{"glyphs":{"0":{"ha":817,"x_min":60,"x_max":757,"o":"m 410 -7 q 229 38 308 -7 q 105 159 150 82 q 60 333 60 236 q 105 503 60 429 q 229 621 150 578 q 407 664 308 664 q 588 620 508 664 q 712 501 667 576 q 757 328 757 425 q 712 156 757 232 q 589 37 667 81 q 410 -7 511 -7 m 411 121 q 508 147 465 121 q 574 220 550 174 q 597 326 597 267 q 574 433 597 386 q 507 508 550 481 q 407 536 464 536 q 310 510 354 536 q 241 440 267 485 q 215 335 215 394 q 241 226 215 275 q 311 149 267 178 q 411 121 356 121 z "},"1":{"ha":601,"x_min":50,"x_max":436,"o":"m 274 0 l 274 514 l 399 528 l 121 375 l 50 501 l 356 657 l 436 657 l 436 0 l 274 0 z "},"2":{"ha":675,"x_min":49,"x_max":653,"o":"m 56 83 q 253 221 178 161 q 364 331 329 281 q 399 425 399 381 q 369 497 399 469 q 279 525 339 525 q 202 508 244 525 q 128 450 160 492 l 49 525 q 174 631 103 599 q 322 664 244 664 q 456 633 404 664 q 533 554 508 601 q 558 458 558 507 q 535 360 558 410 q 469 263 513 311 q 367 167 426 214 q 233 78 307 121 l 246 136 l 653 136 l 653 0 l 81 0 l 56 83 z "},"3":{"ha":585,"x_min":26,"x_max":542,"o":"m 110 279 q 292 363 242 319 q 343 451 343 407 q 333 491 343 471 q 301 524 324 511 q 240 538 279 538 q 170 523 206 538 q 103 471 135 508 l 26 547 q 143 638 78 610 q 281 667 208 667 q 408 638 358 667 q 480 569 457 610 q 503 488 503 528 q 478 405 503 444 q 408 328 454 365 q 295 256 361 290 q 146 192 229 222 l 110 279 m 96 -199 l 60 -90 q 293 -5 213 -58 q 374 108 374 49 q 340 176 374 146 q 242 206 307 206 q 201 203 226 206 q 146 192 176 200 l 226 315 q 261 325 243 322 q 300 328 279 328 q 442 297 389 328 q 518 219 494 265 q 542 126 542 172 q 492 -8 542 56 q 342 -121 442 -71 q 96 -199 243 -171 z "},"4":{"ha":693,"x_min":26,"x_max":678,"o":"m 415 -199 l 415 554 l 492 574 l 146 81 l 88 151 l 678 163 l 678 38 l 61 40 l 26 119 l 401 657 l 553 657 l 553 -169 l 415 -199 z "},"5":{"ha":610,"x_min":89,"x_max":546,"o":"m 142 418 q 336 395 258 417 q 460 337 414 374 q 526 255 507 300 q 546 161 546 210 q 515 32 546 90 q 426 -72 483 -26 q 293 -149 369 -117 q 125 -199 217 -181 l 89 -90 q 310 9 233 -47 q 388 136 388 65 q 312 249 388 213 q 89 286 236 286 l 124 650 l 540 669 l 526 526 l 175 519 l 238 590 l 217 375 l 142 418 z "},"6":{"ha":725,"x_min":60,"x_max":676,"o":"m 443 538 q 578 501 526 538 q 653 408 629 464 q 676 293 676 351 q 633 141 676 210 q 516 31 590 72 q 349 -10 442 -10 q 199 27 264 -10 q 97 135 133 64 q 60 304 60 206 q 94 471 60 388 q 196 628 129 554 q 358 760 263 701 q 575 854 453 819 l 617 754 q 442 672 517 719 q 319 568 368 625 q 247 449 271 511 q 222 324 222 388 q 265 164 222 221 q 375 107 307 107 q 448 126 418 107 q 494 177 478 144 q 510 249 510 210 q 495 331 510 293 q 451 394 481 369 q 372 418 421 418 q 282 401 331 418 q 201 349 233 383 l 171 388 q 244 463 204 429 q 333 517 283 497 q 443 538 382 538 z "},"7":{"ha":678,"x_min":51,"x_max":650,"o":"m 272 -187 l 129 -122 l 460 557 l 547 513 l 51 513 l 51 657 l 650 657 l 272 -187 z "},"8":{"ha":717,"x_min":61,"x_max":656,"o":"m 371 485 q 438 547 411 510 q 464 628 464 585 q 435 699 464 671 q 356 726 407 726 q 283 704 311 726 q 256 643 256 682 q 277 583 256 608 q 335 539 299 558 q 413 501 371 519 q 498 462 456 483 q 576 412 540 440 q 634 344 613 383 q 656 249 656 304 q 617 118 656 176 q 510 25 579 60 q 346 -10 440 -10 q 202 16 267 -10 q 99 90 138 42 q 61 206 61 139 q 115 354 61 285 q 261 471 168 424 l 325 418 q 239 333 268 382 q 210 239 210 285 q 233 165 210 194 q 295 122 257 136 q 375 108 333 108 q 478 144 449 108 q 507 219 507 179 q 485 289 507 260 q 428 340 464 318 q 351 382 393 363 q 265 423 308 401 q 187 472 222 444 q 130 535 151 499 q 108 624 108 572 q 141 735 108 686 q 235 814 174 785 q 378 843 296 843 q 502 821 450 843 q 583 759 554 799 q 611 667 611 719 q 561 533 611 594 q 435 432 511 472 l 371 485 z "},"9":{"ha":717,"x_min":50,"x_max":667,"o":"m 151 -197 l 110 -97 q 283 -15 210 -62 q 406 88 357 32 q 480 208 456 144 q 504 339 504 272 q 458 493 504 436 q 339 550 413 550 q 273 533 300 550 q 231 487 246 517 q 217 415 217 457 q 233 333 217 374 q 283 266 249 293 q 368 239 317 239 q 451 256 407 239 q 525 308 496 274 l 556 269 q 486 194 524 228 q 402 140 449 160 q 296 119 356 119 q 156 158 211 119 q 76 257 101 197 q 50 376 50 317 q 91 522 50 457 q 203 627 132 588 q 367 667 275 667 q 523 629 456 667 q 628 522 590 592 q 667 358 667 453 q 633 190 667 274 q 534 33 600 107 q 372 -101 468 -42 q 151 -197 276 -160 z "},"A":{"ha":939,"x_min":36,"x_max":903,"o":"m 714 0 l 426 822 l 494 822 l 213 0 l 36 0 l 404 914 l 554 914 l 903 0 l 714 0 m 199 258 l 249 396 l 643 396 l 717 258 l 199 258 z "},"Á":{"ha":939,"x_min":36,"x_max":903,"o":"m 714 0 l 426 822 l 494 822 l 213 0 l 36 0 l 404 914 l 554 914 l 903 0 l 714 0 m 199 258 l 249 396 l 643 396 l 717 258 l 199 258 m 399 1015 l 489 1260 l 682 1260 l 526 1015 l 399 1015 z "},"Ă":{"ha":939,"x_min":36,"x_max":903,"o":"m 714 0 l 426 822 l 494 822 l 213 0 l 36 0 l 404 914 l 554 914 l 903 0 l 714 0 m 199 258 l 249 396 l 643 396 l 717 258 l 199 258 m 474 979 q 329 1036 386 979 q 254 1196 272 1093 l 342 1210 q 389 1135 353 1163 q 474 1108 425 1108 q 559 1135 522 1108 q 606 1210 596 1163 l 693 1196 q 618 1036 675 1093 q 474 979 561 979 z "},"Ắ":{"ha":939,"x_min":36,"x_max":903,"o":"m 714 0 l 426 822 l 494 822 l 213 0 l 36 0 l 404 914 l 554 914 l 903 0 l 714 0 m 199 258 l 249 396 l 643 396 l 717 258 l 199 258 m 474 979 q 329 1036 386 979 q 254 1196 272 1093 l 342 1210 q 389 1135 353 1163 q 474 1108 425 1108 q 559 1135 522 1108 q 606 1210 596 1163 l 693 1196 q 618 1036 675 1093 q 474 979 561 979 m 411 1213 l 504 1429 l 669 1429 l 522 1213 l 411 1213 z "},"Ặ":{"ha":939,"x_min":36,"x_max":903,"o":"m 714 0 l 426 822 l 494 822 l 213 0 l 36 0 l 404 914 l 554 914 l 903 0 l 714 0 m 199 258 l 249 396 l 643 396 l 717 258 l 199 258 m 469 -314 q 396 -287 424 -314 q 368 -217 368 -261 q 396 -145 368 -172 q 469 -118 424 -118 q 542 -145 514 -118 q 569 -217 569 -172 q 542 -287 569 -261 q 469 -314 514 -314 m 474 979 q 329 1036 386 979 q 254 1196 272 1093 l 342 1210 q 389 1135 353 1163 q 474 1108 425 1108 q 559 1135 522 1108 q 606 1210 596 1163 l 693 1196 q 618 1036 675 1093 q 474 979 561 979 z "},"Ằ":{"ha":939,"x_min":36,"x_max":903,"o":"m 714 0 l 426 822 l 494 822 l 213 0 l 36 0 l 404 914 l 554 914 l 903 0 l 714 0 m 199 258 l 249 396 l 643 396 l 717 258 l 199 258 m 474 979 q 329 1036 386 979 q 254 1196 272 1093 l 342 1210 q 389 1135 353 1163 q 474 1108 425 1108 q 559 1135 522 1108 q 606 1210 596 1163 l 693 1196 q 618 1036 675 1093 q 474 979 561 979 m 425 1213 l 278 1429 l 443 1429 l 536 1213 l 425 1213 z "},"Ẳ":{"ha":939,"x_min":36,"x_max":903,"o":"m 714 0 l 426 822 l 494 822 l 213 0 l 36 0 l 404 914 l 554 914 l 903 0 l 714 0 m 199 258 l 249 396 l 643 396 l 717 258 l 199 258 m 474 979 q 329 1036 386 979 q 254 1196 272 1093 l 342 1210 q 389 1135 353 1163 q 474 1108 425 1108 q 559 1135 522 1108 q 606 1210 596 1163 l 693 1196 q 618 1036 675 1093 q 474 979 561 979 m 414 1188 l 411 1269 q 468 1284 439 1269 q 497 1322 497 1299 q 484 1349 497 1338 q 446 1361 471 1361 q 414 1355 432 1361 q 383 1338 396 1349 l 358 1382 q 424 1426 390 1415 q 485 1438 458 1438 q 570 1408 538 1438 q 603 1335 603 1378 q 567 1260 603 1289 q 465 1231 531 1231 l 503 1267 l 503 1188 l 414 1188 z "},"Ẵ":{"ha":939,"x_min":36,"x_max":903,"o":"m 714 0 l 426 822 l 494 822 l 213 0 l 36 0 l 404 914 l 554 914 l 903 0 l 714 0 m 199 258 l 249 396 l 643 396 l 717 258 l 199 258 m 474 979 q 329 1036 386 979 q 254 1196 272 1093 l 342 1210 q 389 1135 353 1163 q 474 1108 425 1108 q 559 1135 522 1108 q 606 1210 596 1163 l 693 1196 q 618 1036 675 1093 q 474 979 561 979 m 339 1258 l 253 1279 q 313 1376 271 1338 q 404 1415 356 1415 q 460 1403 438 1415 q 501 1380 482 1392 q 542 1368 519 1368 q 581 1385 564 1368 q 607 1436 599 1403 l 693 1415 q 633 1307 675 1349 q 542 1265 590 1265 q 481 1277 503 1265 q 442 1300 458 1289 q 404 1311 426 1311 q 365 1298 382 1311 q 339 1258 347 1285 z "},"Ǎ":{"ha":939,"x_min":36,"x_max":903,"o":"m 714 0 l 426 822 l 494 822 l 213 0 l 36 0 l 404 914 l 554 914 l 903 0 l 714 0 m 199 258 l 249 396 l 643 396 l 717 258 l 199 258 m 418 1015 l 447 1119 l 588 1260 l 711 1260 l 528 1015 l 418 1015 m 418 1015 l 235 1260 l 358 1260 l 500 1117 l 528 1015 l 418 1015 z "},"Â":{"ha":939,"x_min":36,"x_max":903,"o":"m 714 0 l 426 822 l 494 822 l 213 0 l 36 0 l 404 914 l 554 914 l 903 0 l 714 0 m 199 258 l 249 396 l 643 396 l 717 258 l 199 258 m 588 1015 l 447 1156 l 418 1260 l 528 1260 l 711 1015 l 588 1015 m 235 1015 l 418 1260 l 528 1260 l 500 1158 l 358 1015 l 235 1015 z "},"Ấ":{"ha":939,"x_min":36,"x_max":903,"o":"m 714 0 l 426 822 l 494 822 l 213 0 l 36 0 l 404 914 l 554 914 l 903 0 l 714 0 m 199 258 l 249 396 l 643 396 l 717 258 l 199 258 m 589 986 l 449 1126 l 419 1231 l 529 1231 l 713 986 l 589 986 m 236 986 l 419 1231 l 529 1231 l 501 1129 l 360 986 l 236 986 m 640 1119 l 733 1336 l 899 1336 l 751 1119 l 640 1119 z "},"Ậ":{"ha":939,"x_min":36,"x_max":903,"o":"m 714 0 l 426 822 l 494 822 l 213 0 l 36 0 l 404 914 l 554 914 l 903 0 l 714 0 m 199 258 l 249 396 l 643 396 l 717 258 l 199 258 m 469 -314 q 396 -287 424 -314 q 368 -217 368 -261 q 396 -145 368 -172 q 469 -118 424 -118 q 542 -145 514 -118 q 569 -217 569 -172 q 542 -287 569 -261 q 469 -314 514 -314 m 588 1015 l 447 1156 l 418 1260 l 528 1260 l 711 1015 l 588 1015 m 235 1015 l 418 1260 l 528 1260 l 500 1158 l 358 1015 l 235 1015 z "},"Ầ":{"ha":939,"x_min":36,"x_max":903,"o":"m 714 0 l 426 822 l 494 822 l 213 0 l 36 0 l 404 914 l 554 914 l 903 0 l 714 0 m 199 258 l 249 396 l 643 396 l 717 258 l 199 258 m 588 986 l 447 1126 l 418 1231 l 528 1231 l 711 986 l 588 986 m 235 986 l 418 1231 l 528 1231 l 500 1129 l 358 986 l 235 986 m 703 1119 l 556 1336 l 721 1336 l 814 1119 l 703 1119 z "},"Ẩ":{"ha":939,"x_min":36,"x_max":903,"o":"m 714 0 l 426 822 l 494 822 l 213 0 l 36 0 l 404 914 l 554 914 l 903 0 l 714 0 m 199 258 l 249 396 l 643 396 l 717 258 l 199 258 m 589 986 l 449 1126 l 419 1231 l 529 1231 l 713 986 l 589 986 m 236 986 l 419 1231 l 529 1231 l 501 1129 l 360 986 l 236 986 m 658 1119 l 656 1201 q 713 1216 683 1201 q 742 1254 742 1231 q 728 1281 742 1269 q 690 1293 715 1293 q 658 1287 676 1293 q 628 1269 640 1281 l 603 1314 q 669 1358 635 1347 q 729 1369 703 1369 q 815 1340 782 1369 q 847 1267 847 1310 q 811 1192 847 1221 q 710 1163 775 1163 l 747 1199 l 747 1119 l 658 1119 z "},"Ẫ":{"ha":939,"x_min":36,"x_max":903,"o":"m 714 0 l 426 822 l 494 822 l 213 0 l 36 0 l 404 914 l 554 914 l 903 0 l 714 0 m 199 258 l 249 396 l 643 396 l 717 258 l 199 258 m 589 986 l 449 1126 l 419 1231 l 529 1231 l 713 986 l 589 986 m 236 986 l 419 1231 l 529 1231 l 501 1129 l 360 986 l 236 986 m 344 1257 l 258 1278 q 319 1375 276 1336 q 410 1414 361 1414 q 465 1402 443 1414 q 506 1378 488 1390 q 547 1367 525 1367 q 587 1384 569 1367 q 613 1435 604 1401 l 699 1414 q 638 1306 681 1347 q 547 1264 596 1264 q 486 1276 508 1264 q 448 1299 464 1288 q 410 1310 432 1310 q 370 1297 388 1310 q 344 1257 353 1283 z "},"Ä":{"ha":939,"x_min":36,"x_max":903,"o":"m 714 0 l 426 822 l 494 822 l 213 0 l 36 0 l 404 914 l 554 914 l 903 0 l 714 0 m 199 258 l 249 396 l 643 396 l 717 258 l 199 258 m 336 1006 q 269 1031 294 1006 q 243 1096 243 1057 q 269 1163 243 1138 q 336 1189 294 1189 q 403 1163 378 1189 q 429 1096 429 1138 q 403 1031 429 1057 q 336 1006 378 1006 m 611 1006 q 542 1031 568 1006 q 515 1096 515 1057 q 542 1163 515 1138 q 611 1189 568 1189 q 677 1163 651 1189 q 703 1096 703 1138 q 677 1031 703 1057 q 611 1006 651 1006 z "},"Ạ":{"ha":939,"x_min":36,"x_max":903,"o":"m 714 0 l 426 822 l 494 822 l 213 0 l 36 0 l 404 914 l 554 914 l 903 0 l 714 0 m 199 258 l 249 396 l 643 396 l 717 258 l 199 258 m 469 -314 q 396 -287 424 -314 q 368 -217 368 -261 q 396 -145 368 -172 q 469 -118 424 -118 q 542 -145 514 -118 q 569 -217 569 -172 q 542 -287 569 -261 q 469 -314 514 -314 z "},"À":{"ha":939,"x_min":36,"x_max":903,"o":"m 714 0 l 426 822 l 494 822 l 213 0 l 36 0 l 404 914 l 554 914 l 903 0 l 714 0 m 199 258 l 249 396 l 643 396 l 717 258 l 199 258 m 421 1015 l 265 1260 l 458 1260 l 549 1015 l 421 1015 z "},"Ả":{"ha":939,"x_min":36,"x_max":903,"o":"m 714 0 l 426 822 l 494 822 l 213 0 l 36 0 l 404 914 l 554 914 l 903 0 l 714 0 m 199 258 l 249 396 l 643 396 l 717 258 l 199 258 m 410 971 l 407 1082 q 481 1094 456 1082 q 507 1128 507 1107 q 494 1161 507 1150 q 456 1172 481 1172 q 416 1167 438 1172 q 379 1149 394 1161 l 329 1210 q 412 1253 369 1242 q 488 1265 454 1265 q 610 1230 564 1265 q 656 1146 656 1194 q 608 1061 656 1094 q 475 1028 560 1028 l 543 1079 l 543 971 l 410 971 z "},"Ā":{"ha":939,"x_min":36,"x_max":903,"o":"m 714 0 l 426 822 l 494 822 l 213 0 l 36 0 l 404 914 l 554 914 l 903 0 l 714 0 m 199 258 l 249 396 l 643 396 l 717 258 l 199 258 m 247 1036 l 247 1150 l 699 1150 l 699 1036 l 247 1036 z "},"Ą":{"ha":939,"x_min":36,"x_max":975,"o":"m 714 0 l 426 822 l 494 822 l 213 0 l 36 0 l 404 914 l 554 914 l 903 0 l 714 0 m 199 258 l 249 396 l 643 396 l 717 258 l 199 258 m 825 -401 q 662 -349 719 -401 q 604 -211 604 -297 q 649 -71 604 -142 q 790 57 693 0 l 903 0 q 805 -79 836 -35 q 774 -172 774 -124 q 799 -250 774 -215 q 885 -285 825 -285 q 910 -283 897 -285 q 936 -275 924 -281 l 975 -360 q 906 -391 942 -381 q 825 -401 871 -401 z "},"Å":{"ha":939,"x_min":36,"x_max":903,"o":"m 714 0 l 426 822 l 494 822 l 213 0 l 36 0 l 404 914 l 554 914 l 903 0 l 714 0 m 199 258 l 249 396 l 643 396 l 717 258 l 199 258 m 472 957 q 347 998 396 957 q 297 1101 297 1039 q 348 1202 297 1163 q 476 1242 399 1242 q 601 1201 553 1242 q 650 1099 650 1160 q 600 997 650 1038 q 472 957 550 957 m 475 1031 q 517 1049 501 1031 q 533 1099 533 1068 q 517 1149 533 1131 q 474 1168 501 1168 q 431 1150 447 1168 q 414 1101 414 1132 q 431 1050 414 1069 q 475 1031 449 1031 z "},"Ǻ":{"ha":939,"x_min":36,"x_max":903,"o":"m 714 0 l 426 822 l 494 822 l 213 0 l 36 0 l 404 914 l 554 914 l 903 0 l 714 0 m 199 258 l 249 396 l 643 396 l 717 258 l 199 258 m 311 1211 l 276 1289 l 607 1467 l 663 1339 l 311 1211 m 465 947 q 340 985 389 947 q 290 1078 290 1022 q 341 1168 290 1132 q 469 1204 392 1204 q 594 1167 546 1204 q 643 1075 643 1131 q 593 983 643 1019 q 465 947 543 947 m 468 1010 q 506 1027 492 1010 q 519 1075 519 1044 q 505 1124 519 1106 q 467 1142 490 1142 q 428 1124 443 1142 q 414 1078 414 1107 q 429 1028 414 1047 q 468 1010 444 1010 z "},"Ã":{"ha":939,"x_min":36,"x_max":903,"o":"m 714 0 l 426 822 l 494 822 l 213 0 l 36 0 l 404 914 l 554 914 l 903 0 l 714 0 m 199 258 l 249 396 l 643 396 l 717 258 l 199 258 m 310 976 l 224 997 q 263 1079 238 1043 q 322 1136 289 1115 q 390 1157 354 1157 q 442 1153 414 1157 q 501 1144 471 1149 q 557 1139 531 1139 q 605 1156 583 1139 q 636 1206 626 1174 l 724 1186 q 656 1060 703 1108 q 557 1011 610 1011 q 499 1016 528 1011 q 442 1025 469 1021 q 390 1029 415 1029 q 342 1015 364 1029 q 310 976 321 1001 z "},"Æ":{"ha":1238,"x_min":-14,"x_max":1175,"o":"m -14 0 l 529 914 l 674 914 l 186 0 l -14 0 m 274 282 l 347 419 l 697 419 l 697 282 l 274 282 m 697 393 l 697 531 l 1079 531 l 1079 393 l 697 393 m 615 0 l 615 914 l 1132 914 l 1132 775 l 775 775 l 775 139 l 1175 139 l 1175 0 l 615 0 z "},"Ǽ":{"ha":1238,"x_min":-14,"x_max":1175,"o":"m -14 0 l 529 914 l 674 914 l 186 0 l -14 0 m 274 282 l 347 419 l 697 419 l 697 282 l 274 282 m 697 393 l 697 531 l 1079 531 l 1079 393 l 697 393 m 615 0 l 615 914 l 1132 914 l 1132 775 l 775 775 l 775 139 l 1175 139 l 1175 0 l 615 0 m 678 1015 l 768 1260 l 961 1260 l 806 1015 l 678 1015 z "},"Ǣ":{"ha":1238,"x_min":-14,"x_max":1175,"o":"m -14 0 l 529 914 l 674 914 l 186 0 l -14 0 m 274 282 l 347 419 l 697 419 l 697 282 l 274 282 m 697 393 l 697 531 l 1079 531 l 1079 393 l 697 393 m 615 0 l 615 914 l 1132 914 l 1132 775 l 775 775 l 775 139 l 1175 139 l 1175 0 l 615 0 m 526 1036 l 526 1150 l 978 1150 l 978 1036 l 526 1036 z "},"B":{"ha":824,"x_min":132,"x_max":763,"o":"m 396 428 l 425 525 q 601 493 525 525 q 720 404 678 461 q 763 269 763 347 q 718 129 763 190 q 592 34 674 68 q 399 0 511 0 l 132 0 l 132 914 l 417 914 q 565 887 501 914 q 666 810 629 860 q 703 693 703 760 q 679 592 703 640 q 613 508 656 544 q 515 449 571 471 q 396 428 460 428 m 242 536 l 415 536 q 506 569 471 536 q 542 660 542 603 q 509 751 542 711 q 388 790 476 790 l 293 790 l 293 124 l 426 124 q 549 163 508 124 q 589 269 589 201 q 542 377 589 338 q 386 417 496 417 l 242 417 l 242 536 z "},"C":{"ha":906,"x_min":72,"x_max":874,"o":"m 547 -18 q 299 40 406 -18 q 132 201 192 97 q 72 440 72 304 q 112 648 72 557 q 221 802 151 739 q 381 899 290 865 q 574 932 471 932 q 722 912 647 932 q 865 851 797 892 l 785 696 q 662 776 722 750 q 536 801 601 801 q 390 762 451 801 q 295 648 328 722 q 263 471 263 574 q 304 280 263 361 q 415 153 346 199 q 564 108 483 108 q 697 138 636 108 q 800 214 758 167 l 874 75 q 719 5 801 28 q 547 -18 636 -18 z "},"Ć":{"ha":906,"x_min":72,"x_max":874,"o":"m 547 -18 q 299 40 406 -18 q 132 201 192 97 q 72 440 72 304 q 112 648 72 557 q 221 802 151 739 q 381 899 290 865 q 574 932 471 932 q 722 912 647 932 q 865 851 797 892 l 785 696 q 662 776 722 750 q 536 801 601 801 q 390 762 451 801 q 295 648 328 722 q 263 471 263 574 q 304 280 263 361 q 415 153 346 199 q 564 108 483 108 q 697 138 636 108 q 800 214 758 167 l 874 75 q 719 5 801 28 q 547 -18 636 -18 m 474 1015 l 564 1260 l 757 1260 l 601 1015 l 474 1015 z "},"Č":{"ha":906,"x_min":72,"x_max":874,"o":"m 547 -18 q 299 40 406 -18 q 132 201 192 97 q 72 440 72 304 q 112 648 72 557 q 221 802 151 739 q 381 899 290 865 q 574 932 471 932 q 722 912 647 932 q 865 851 797 892 l 785 696 q 662 776 722 750 q 536 801 601 801 q 390 762 451 801 q 295 648 328 722 q 263 471 263 574 q 304 280 263 361 q 415 153 346 199 q 564 108 483 108 q 697 138 636 108 q 800 214 758 167 l 874 75 q 719 5 801 28 q 547 -18 636 -18 m 493 1015 l 522 1119 l 663 1260 l 786 1260 l 603 1015 l 493 1015 m 493 1015 l 310 1260 l 433 1260 l 575 1117 l 603 1015 l 493 1015 z "},"Ç":{"ha":906,"x_min":72,"x_max":874,"o":"m 547 -18 q 299 40 406 -18 q 132 201 192 97 q 72 440 72 304 q 112 648 72 557 q 221 802 151 739 q 381 899 290 865 q 574 932 471 932 q 722 912 647 932 q 865 851 797 892 l 785 696 q 662 776 722 750 q 536 801 601 801 q 390 762 451 801 q 295 648 328 722 q 263 471 263 574 q 304 280 263 361 q 415 153 346 199 q 564 108 483 108 q 697 138 636 108 q 800 214 758 167 l 874 75 q 719 5 801 28 q 547 -18 636 -18 m 497 0 l 590 0 l 556 -128 l 490 -107 q 524 -90 504 -96 q 571 -85 544 -85 q 684 -123 640 -85 q 728 -225 728 -161 q 676 -332 728 -292 q 539 -372 625 -372 q 458 -361 496 -372 q 390 -328 421 -350 l 419 -250 q 467 -272 439 -264 q 522 -281 496 -281 q 578 -262 561 -281 q 594 -222 594 -243 q 567 -176 594 -193 q 501 -158 540 -158 q 474 -160 488 -158 q 444 -167 460 -162 l 497 0 z "},"Ĉ":{"ha":906,"x_min":72,"x_max":874,"o":"m 547 -18 q 299 40 406 -18 q 132 201 192 97 q 72 440 72 304 q 112 648 72 557 q 221 802 151 739 q 381 899 290 865 q 574 932 471 932 q 722 912 647 932 q 865 851 797 892 l 785 696 q 662 776 722 750 q 536 801 601 801 q 390 762 451 801 q 295 648 328 722 q 263 471 263 574 q 304 280 263 361 q 415 153 346 199 q 564 108 483 108 q 697 138 636 108 q 800 214 758 167 l 874 75 q 719 5 801 28 q 547 -18 636 -18 m 663 1015 l 522 1156 l 493 1260 l 603 1260 l 786 1015 l 663 1015 m 310 1015 l 493 1260 l 603 1260 l 575 1158 l 433 1015 l 310 1015 z "},"Ċ":{"ha":906,"x_min":72,"x_max":874,"o":"m 547 -18 q 299 40 406 -18 q 132 201 192 97 q 72 440 72 304 q 112 648 72 557 q 221 802 151 739 q 381 899 290 865 q 574 932 471 932 q 722 912 647 932 q 865 851 797 892 l 785 696 q 662 776 722 750 q 536 801 601 801 q 390 762 451 801 q 295 648 328 722 q 263 471 263 574 q 304 280 263 361 q 415 153 346 199 q 564 108 483 108 q 697 138 636 108 q 800 214 758 167 l 874 75 q 719 5 801 28 q 547 -18 636 -18 m 549 1015 q 475 1042 503 1015 q 447 1113 447 1068 q 475 1184 447 1157 q 549 1211 503 1211 q 621 1184 593 1211 q 649 1113 649 1157 q 621 1042 649 1068 q 549 1015 593 1015 z "},"D":{"ha":1019,"x_min":132,"x_max":947,"o":"m 132 0 l 132 914 l 435 914 q 638 885 544 914 q 801 802 732 857 q 909 667 871 747 q 947 482 947 586 q 919 313 947 399 q 828 157 890 228 q 663 43 765 86 q 411 0 560 0 l 132 0 m 307 126 l 426 126 q 593 153 528 126 q 695 227 658 181 q 747 331 732 274 q 761 451 761 389 q 728 615 761 539 q 617 738 694 690 q 406 785 539 785 l 307 785 l 307 126 z "},"Ð":{"ha":1032,"x_min":39,"x_max":961,"o":"m 146 0 l 146 914 l 449 914 q 713 864 597 914 q 895 717 829 814 q 961 482 961 621 q 933 313 961 399 q 842 157 904 228 q 676 43 779 86 q 425 0 574 0 l 146 0 m 39 392 l 39 521 l 546 521 l 546 392 l 39 392 m 321 126 l 440 126 q 607 153 542 126 q 709 227 672 181 q 760 331 746 274 q 775 451 775 389 q 742 615 775 539 q 631 738 708 690 q 419 785 553 785 l 321 785 l 321 126 z "},"Ď":{"ha":1019,"x_min":132,"x_max":947,"o":"m 132 0 l 132 914 l 435 914 q 638 885 544 914 q 801 802 732 857 q 909 667 871 747 q 947 482 947 586 q 919 313 947 399 q 828 157 890 228 q 663 43 765 86 q 411 0 560 0 l 132 0 m 307 126 l 426 126 q 593 153 528 126 q 695 227 658 181 q 747 331 732 274 q 761 451 761 389 q 728 615 761 539 q 617 738 694 690 q 406 785 539 785 l 307 785 l 307 126 m 400 1015 l 429 1119 l 569 1260 l 693 1260 l 510 1015 l 400 1015 m 400 1015 l 217 1260 l 340 1260 l 482 1117 l 510 1015 l 400 1015 z "},"Đ":{"ha":1032,"x_min":39,"x_max":961,"o":"m 146 0 l 146 914 l 449 914 q 713 864 597 914 q 895 717 829 814 q 961 482 961 621 q 933 313 961 399 q 842 157 904 228 q 676 43 779 86 q 425 0 574 0 l 146 0 m 39 392 l 39 521 l 546 521 l 546 392 l 39 392 m 321 126 l 440 126 q 607 153 542 126 q 709 227 672 181 q 760 331 746 274 q 775 451 775 389 q 742 615 775 539 q 631 738 708 690 q 419 785 553 785 l 321 785 l 321 126 z "},"Ḍ":{"ha":1019,"x_min":132,"x_max":947,"o":"m 132 0 l 132 914 l 435 914 q 638 885 544 914 q 801 802 732 857 q 909 667 871 747 q 947 482 947 586 q 919 313 947 399 q 828 157 890 228 q 663 43 765 86 q 411 0 560 0 l 132 0 m 307 126 l 426 126 q 593 153 528 126 q 695 227 658 181 q 747 331 732 274 q 761 451 761 389 q 728 615 761 539 q 617 738 694 690 q 406 785 539 785 l 307 785 l 307 126 m 475 -314 q 401 -287 429 -314 q 374 -217 374 -261 q 401 -145 374 -172 q 475 -118 429 -118 q 547 -145 519 -118 q 575 -217 575 -172 q 547 -287 575 -261 q 475 -314 519 -314 z "},"Ḏ":{"ha":1019,"x_min":132,"x_max":947,"o":"m 132 0 l 132 914 l 435 914 q 638 885 544 914 q 801 802 732 857 q 909 667 871 747 q 947 482 947 586 q 919 313 947 399 q 828 157 890 228 q 663 43 765 86 q 411 0 560 0 l 132 0 m 307 126 l 426 126 q 593 153 528 126 q 695 227 658 181 q 747 331 732 274 q 761 451 761 389 q 728 615 761 539 q 617 738 694 690 q 406 785 539 785 l 307 785 l 307 126 m 290 -237 l 290 -124 l 658 -124 l 658 -237 l 290 -237 z "},"E":{"ha":804,"x_min":132,"x_max":733,"o":"m 733 0 l 132 0 l 132 914 l 686 914 l 686 775 l 301 775 l 301 139 l 733 139 l 733 0 m 186 396 l 186 531 l 633 531 l 633 396 l 186 396 z "},"É":{"ha":804,"x_min":132,"x_max":733,"o":"m 733 0 l 132 0 l 132 914 l 686 914 l 686 775 l 301 775 l 301 139 l 733 139 l 733 0 m 186 396 l 186 531 l 633 531 l 633 396 l 186 396 m 363 1015 l 453 1260 l 646 1260 l 490 1015 l 363 1015 z "},"Ĕ":{"ha":804,"x_min":132,"x_max":733,"o":"m 733 0 l 132 0 l 132 914 l 686 914 l 686 775 l 301 775 l 301 139 l 733 139 l 733 0 m 186 396 l 186 531 l 633 531 l 633 396 l 186 396 m 438 979 q 293 1036 350 979 q 218 1196 236 1093 l 306 1210 q 353 1135 317 1163 q 438 1108 389 1108 q 523 1135 486 1108 q 569 1210 560 1163 l 657 1196 q 582 1036 639 1093 q 438 979 525 979 z "},"Ě":{"ha":804,"x_min":132,"x_max":733,"o":"m 733 0 l 132 0 l 132 914 l 686 914 l 686 775 l 301 775 l 301 139 l 733 139 l 733 0 m 186 396 l 186 531 l 633 531 l 633 396 l 186 396 m 382 1015 l 411 1119 l 551 1260 l 675 1260 l 492 1015 l 382 1015 m 382 1015 l 199 1260 l 322 1260 l 464 1117 l 492 1015 l 382 1015 z "},"Ê":{"ha":804,"x_min":132,"x_max":733,"o":"m 733 0 l 132 0 l 132 914 l 686 914 l 686 775 l 301 775 l 301 139 l 733 139 l 733 0 m 186 396 l 186 531 l 633 531 l 633 396 l 186 396 m 551 1015 l 411 1156 l 382 1260 l 492 1260 l 675 1015 l 551 1015 m 199 1015 l 382 1260 l 492 1260 l 464 1158 l 322 1015 l 199 1015 z "},"Ế":{"ha":804,"x_min":132,"x_max":863,"o":"m 733 0 l 132 0 l 132 914 l 686 914 l 686 775 l 301 775 l 301 139 l 733 139 l 733 0 m 186 396 l 186 531 l 633 531 l 633 396 l 186 396 m 553 986 l 413 1126 l 383 1231 l 493 1231 l 676 986 l 553 986 m 200 986 l 383 1231 l 493 1231 l 465 1129 l 324 986 l 200 986 m 604 1119 l 697 1336 l 863 1336 l 715 1119 l 604 1119 z "},"Ệ":{"ha":804,"x_min":132,"x_max":733,"o":"m 733 0 l 132 0 l 132 914 l 686 914 l 686 775 l 301 775 l 301 139 l 733 139 l 733 0 m 186 396 l 186 531 l 633 531 l 633 396 l 186 396 m 438 -314 q 364 -287 392 -314 q 336 -217 336 -261 q 364 -145 336 -172 q 438 -118 392 -118 q 510 -145 482 -118 q 538 -217 538 -172 q 510 -287 538 -261 q 438 -314 482 -314 m 551 1015 l 411 1156 l 382 1260 l 492 1260 l 675 1015 l 551 1015 m 199 1015 l 382 1260 l 492 1260 l 464 1158 l 322 1015 l 199 1015 z "},"Ề":{"ha":804,"x_min":132,"x_max":778,"o":"m 733 0 l 132 0 l 132 914 l 686 914 l 686 775 l 301 775 l 301 139 l 733 139 l 733 0 m 186 396 l 186 531 l 633 531 l 633 396 l 186 396 m 551 986 l 411 1126 l 382 1231 l 492 1231 l 675 986 l 551 986 m 199 986 l 382 1231 l 492 1231 l 464 1129 l 322 986 l 199 986 m 667 1119 l 519 1336 l 685 1336 l 778 1119 l 667 1119 z "},"Ể":{"ha":804,"x_min":132,"x_max":811,"o":"m 733 0 l 132 0 l 132 914 l 686 914 l 686 775 l 301 775 l 301 139 l 733 139 l 733 0 m 186 396 l 186 531 l 633 531 l 633 396 l 186 396 m 553 986 l 413 1126 l 383 1231 l 493 1231 l 676 986 l 553 986 m 200 986 l 383 1231 l 493 1231 l 465 1129 l 324 986 l 200 986 m 622 1119 l 619 1201 q 676 1216 647 1201 q 706 1254 706 1231 q 692 1281 706 1269 q 654 1293 679 1293 q 622 1287 640 1293 q 592 1269 604 1281 l 567 1314 q 633 1358 599 1347 q 693 1369 667 1369 q 778 1340 746 1369 q 811 1267 811 1310 q 775 1192 811 1221 q 674 1163 739 1163 l 711 1199 l 711 1119 l 622 1119 z "},"Ễ":{"ha":804,"x_min":132,"x_max":733,"o":"m 733 0 l 132 0 l 132 914 l 686 914 l 686 775 l 301 775 l 301 139 l 733 139 l 733 0 m 186 396 l 186 531 l 633 531 l 633 396 l 186 396 m 553 986 l 413 1126 l 383 1231 l 493 1231 l 676 986 l 553 986 m 200 986 l 383 1231 l 493 1231 l 465 1129 l 324 986 l 200 986 m 308 1257 l 222 1278 q 283 1375 240 1336 q 374 1414 325 1414 q 429 1402 407 1414 q 470 1378 451 1390 q 511 1367 489 1367 q 551 1384 533 1367 q 576 1435 568 1401 l 663 1414 q 602 1306 644 1347 q 511 1264 560 1264 q 450 1276 472 1264 q 412 1299 428 1288 q 374 1310 396 1310 q 334 1297 351 1310 q 308 1257 317 1283 z "},"Ë":{"ha":804,"x_min":132,"x_max":733,"o":"m 733 0 l 132 0 l 132 914 l 686 914 l 686 775 l 301 775 l 301 139 l 733 139 l 733 0 m 186 396 l 186 531 l 633 531 l 633 396 l 186 396 m 300 1006 q 233 1031 258 1006 q 207 1096 207 1057 q 233 1163 207 1138 q 300 1189 258 1189 q 367 1163 342 1189 q 393 1096 393 1138 q 367 1031 393 1057 q 300 1006 342 1006 m 575 1006 q 506 1031 532 1006 q 479 1096 479 1057 q 506 1163 479 1138 q 575 1189 532 1189 q 641 1163 615 1189 q 667 1096 667 1138 q 641 1031 667 1057 q 575 1006 615 1006 z "},"Ė":{"ha":804,"x_min":132,"x_max":733,"o":"m 733 0 l 132 0 l 132 914 l 686 914 l 686 775 l 301 775 l 301 139 l 733 139 l 733 0 m 186 396 l 186 531 l 633 531 l 633 396 l 186 396 m 438 1015 q 364 1042 392 1015 q 336 1113 336 1068 q 364 1184 336 1157 q 438 1211 392 1211 q 510 1184 482 1211 q 538 1113 538 1157 q 510 1042 538 1068 q 438 1015 482 1015 z "},"Ẹ":{"ha":804,"x_min":132,"x_max":733,"o":"m 733 0 l 132 0 l 132 914 l 686 914 l 686 775 l 301 775 l 301 139 l 733 139 l 733 0 m 186 396 l 186 531 l 633 531 l 633 396 l 186 396 m 438 -314 q 364 -287 392 -314 q 336 -217 336 -261 q 364 -145 336 -172 q 438 -118 392 -118 q 510 -145 482 -118 q 538 -217 538 -172 q 510 -287 538 -261 q 438 -314 482 -314 z "},"È":{"ha":804,"x_min":132,"x_max":733,"o":"m 733 0 l 132 0 l 132 914 l 686 914 l 686 775 l 301 775 l 301 139 l 733 139 l 733 0 m 186 396 l 186 531 l 633 531 l 633 396 l 186 396 m 385 1015 l 229 1260 l 422 1260 l 513 1015 l 385 1015 z "},"Ẻ":{"ha":804,"x_min":132,"x_max":733,"o":"m 733 0 l 132 0 l 132 914 l 686 914 l 686 775 l 301 775 l 301 139 l 733 139 l 733 0 m 186 396 l 186 531 l 633 531 l 633 396 l 186 396 m 374 971 l 371 1082 q 445 1094 419 1082 q 471 1128 471 1107 q 458 1161 471 1150 q 419 1172 444 1172 q 380 1167 401 1172 q 343 1149 358 1161 l 293 1210 q 376 1253 333 1242 q 451 1265 418 1265 q 574 1230 528 1265 q 619 1146 619 1194 q 572 1061 619 1094 q 439 1028 524 1028 l 507 1079 l 507 971 l 374 971 z "},"Ē":{"ha":804,"x_min":132,"x_max":733,"o":"m 733 0 l 132 0 l 132 914 l 686 914 l 686 775 l 301 775 l 301 139 l 733 139 l 733 0 m 186 396 l 186 531 l 633 531 l 633 396 l 186 396 m 211 1036 l 211 1150 l 663 1150 l 663 1036 l 211 1036 z "},"Ę":{"ha":804,"x_min":132,"x_max":806,"o":"m 733 0 l 132 0 l 132 914 l 686 914 l 686 775 l 301 775 l 301 139 l 733 139 l 733 0 m 186 396 l 186 531 l 633 531 l 633 396 l 186 396 m 656 -401 q 492 -349 550 -401 q 435 -211 435 -297 q 492 -64 435 -139 q 679 71 550 11 l 733 0 q 635 -79 667 -35 q 604 -172 604 -124 q 630 -250 604 -215 q 715 -285 656 -285 q 741 -283 728 -285 q 767 -275 754 -281 l 806 -360 q 737 -391 772 -381 q 656 -401 701 -401 z "},"Ẽ":{"ha":804,"x_min":132,"x_max":733,"o":"m 733 0 l 132 0 l 132 914 l 686 914 l 686 775 l 301 775 l 301 139 l 733 139 l 733 0 m 186 396 l 186 531 l 633 531 l 633 396 l 186 396 m 274 976 l 188 997 q 227 1079 201 1043 q 285 1136 253 1115 q 354 1157 318 1157 q 406 1153 378 1157 q 465 1144 435 1149 q 521 1139 494 1139 q 569 1156 547 1139 q 600 1206 590 1174 l 688 1186 q 620 1060 667 1108 q 521 1011 574 1011 q 463 1016 492 1011 q 406 1025 433 1021 q 354 1029 379 1029 q 306 1015 328 1029 q 274 976 285 1001 z "},"Ə":{"ha":1003,"x_min":72,"x_max":931,"o":"m 464 -18 q 265 30 354 -18 q 124 162 176 78 q 72 353 72 246 q 73 404 72 379 q 76 454 74 429 l 251 417 q 247 388 249 406 q 246 356 246 369 q 280 228 246 285 q 370 140 314 172 q 494 107 426 107 q 632 148 575 107 q 719 263 689 189 q 750 436 750 336 q 713 624 750 543 q 610 752 676 706 q 453 799 543 799 q 352 781 397 799 q 269 733 307 764 q 197 661 232 703 l 114 804 q 226 874 167 846 q 351 917 286 903 q 483 932 417 932 q 669 896 586 932 q 810 796 751 860 q 899 647 868 732 q 931 465 931 563 q 895 273 931 361 q 796 119 860 185 q 647 18 732 54 q 464 -18 563 -18 m 168 328 l 76 454 l 814 454 l 814 328 l 168 328 z "},"Ʒ":{"ha":782,"x_min":31,"x_max":747,"o":"m 374 -18 q 222 7 292 -18 q 102 78 151 32 q 31 190 53 125 l 190 250 q 250 174 218 204 q 322 129 282 144 q 411 114 361 114 q 485 124 453 114 q 538 152 517 133 q 569 198 558 171 q 579 261 579 225 q 566 326 579 293 q 516 387 553 360 q 410 427 479 414 q 226 432 340 440 l 194 519 l 601 864 l 664 783 l 64 776 l 64 914 l 710 914 l 710 799 l 329 465 l 301 560 q 553 541 454 574 q 699 442 651 508 q 747 290 747 376 q 696 123 747 192 q 560 18 644 54 q 374 -18 475 -18 z "},"Ǯ":{"ha":782,"x_min":31,"x_max":747,"o":"m 374 -18 q 222 7 292 -18 q 102 78 151 32 q 31 190 53 125 l 190 250 q 250 174 218 204 q 322 129 282 144 q 411 114 361 114 q 485 124 453 114 q 538 152 517 133 q 569 198 558 171 q 579 261 579 225 q 566 326 579 293 q 516 387 553 360 q 410 427 479 414 q 226 432 340 440 l 194 519 l 601 864 l 664 783 l 64 776 l 64 914 l 710 914 l 710 799 l 329 465 l 301 560 q 553 541 454 574 q 699 442 651 508 q 747 290 747 376 q 696 123 747 192 q 560 18 644 54 q 374 -18 475 -18 m 336 1015 l 365 1119 l 506 1260 l 629 1260 l 446 1015 l 336 1015 m 336 1015 l 153 1260 l 276 1260 l 418 1117 l 446 1015 l 336 1015 z "},"F":{"ha":750,"x_min":132,"x_max":692,"o":"m 132 0 l 132 914 l 692 914 l 692 775 l 307 775 l 307 0 l 132 0 m 186 360 l 186 499 l 639 499 l 639 360 l 186 360 z "},"G":{"ha":1003,"x_min":72,"x_max":908,"o":"m 585 -18 q 311 40 426 -18 q 134 200 196 97 q 72 439 72 303 q 111 636 72 546 q 220 792 150 726 q 385 895 290 858 q 594 932 481 932 q 756 912 672 932 q 903 847 839 892 l 825 688 q 685 778 757 754 q 556 801 614 801 q 397 759 463 801 q 297 641 332 717 q 263 467 263 565 q 306 281 263 361 q 429 155 350 200 q 615 110 508 110 q 729 122 672 110 q 835 163 786 133 l 744 58 l 744 336 l 585 336 l 585 464 l 908 464 l 908 57 q 807 15 861 32 q 697 -10 753 -1 q 585 -18 640 -18 z "},"Ğ":{"ha":1003,"x_min":72,"x_max":908,"o":"m 585 -18 q 311 40 426 -18 q 134 200 196 97 q 72 439 72 303 q 111 636 72 546 q 220 792 150 726 q 385 895 290 858 q 594 932 481 932 q 756 912 672 932 q 903 847 839 892 l 825 688 q 685 778 757 754 q 556 801 614 801 q 397 759 463 801 q 297 641 332 717 q 263 467 263 565 q 306 281 263 361 q 429 155 350 200 q 615 110 508 110 q 729 122 672 110 q 835 163 786 133 l 744 58 l 744 336 l 585 336 l 585 464 l 908 464 l 908 57 q 807 15 861 32 q 697 -10 753 -1 q 585 -18 640 -18 m 557 979 q 413 1036 469 979 q 338 1196 356 1093 l 425 1210 q 472 1135 436 1163 q 557 1108 508 1108 q 642 1135 606 1108 q 689 1210 679 1163 l 776 1196 q 701 1036 758 1093 q 557 979 644 979 z "},"Ǧ":{"ha":1003,"x_min":72,"x_max":908,"o":"m 585 -18 q 311 40 426 -18 q 134 200 196 97 q 72 439 72 303 q 111 636 72 546 q 220 792 150 726 q 385 895 290 858 q 594 932 481 932 q 756 912 672 932 q 903 847 839 892 l 825 688 q 685 778 757 754 q 556 801 614 801 q 397 759 463 801 q 297 641 332 717 q 263 467 263 565 q 306 281 263 361 q 429 155 350 200 q 615 110 508 110 q 729 122 672 110 q 835 163 786 133 l 744 58 l 744 336 l 585 336 l 585 464 l 908 464 l 908 57 q 807 15 861 32 q 697 -10 753 -1 q 585 -18 640 -18 m 501 1015 l 531 1119 l 671 1260 l 794 1260 l 611 1015 l 501 1015 m 501 1015 l 318 1260 l 442 1260 l 583 1117 l 611 1015 l 501 1015 z "},"Ĝ":{"ha":1003,"x_min":72,"x_max":908,"o":"m 585 -18 q 311 40 426 -18 q 134 200 196 97 q 72 439 72 303 q 111 636 72 546 q 220 792 150 726 q 385 895 290 858 q 594 932 481 932 q 756 912 672 932 q 903 847 839 892 l 825 688 q 685 778 757 754 q 556 801 614 801 q 397 759 463 801 q 297 641 332 717 q 263 467 263 565 q 306 281 263 361 q 429 155 350 200 q 615 110 508 110 q 729 122 672 110 q 835 163 786 133 l 744 58 l 744 336 l 585 336 l 585 464 l 908 464 l 908 57 q 807 15 861 32 q 697 -10 753 -1 q 585 -18 640 -18 m 671 1015 l 531 1156 l 501 1260 l 611 1260 l 794 1015 l 671 1015 m 318 1015 l 501 1260 l 611 1260 l 583 1158 l 442 1015 l 318 1015 z "},"Ģ":{"ha":1003,"x_min":72,"x_max":908,"o":"m 585 -18 q 311 40 426 -18 q 134 200 196 97 q 72 439 72 303 q 111 636 72 546 q 220 792 150 726 q 385 895 290 858 q 594 932 481 932 q 756 912 672 932 q 903 847 839 892 l 825 688 q 685 778 757 754 q 556 801 614 801 q 397 759 463 801 q 297 641 332 717 q 263 467 263 565 q 306 281 263 361 q 429 155 350 200 q 615 110 508 110 q 729 122 672 110 q 835 163 786 133 l 744 58 l 744 336 l 585 336 l 585 464 l 908 464 l 908 57 q 807 15 861 32 q 697 -10 753 -1 q 585 -18 640 -18 m 539 -429 l 478 -379 q 511 -317 500 -351 q 522 -250 522 -283 q 514 -192 522 -218 q 490 -153 506 -167 l 606 -68 q 656 -129 640 -93 q 672 -206 672 -165 q 636 -333 672 -269 q 539 -429 600 -397 z "},"Ġ":{"ha":1003,"x_min":72,"x_max":908,"o":"m 585 -18 q 311 40 426 -18 q 134 200 196 97 q 72 439 72 303 q 111 636 72 546 q 220 792 150 726 q 385 895 290 858 q 594 932 481 932 q 756 912 672 932 q 903 847 839 892 l 825 688 q 685 778 757 754 q 556 801 614 801 q 397 759 463 801 q 297 641 332 717 q 263 467 263 565 q 306 281 263 361 q 429 155 350 200 q 615 110 508 110 q 729 122 672 110 q 835 163 786 133 l 744 58 l 744 336 l 585 336 l 585 464 l 908 464 l 908 57 q 807 15 861 32 q 697 -10 753 -1 q 585 -18 640 -18 m 557 1015 q 483 1042 511 1015 q 456 1113 456 1068 q 483 1184 456 1157 q 557 1211 511 1211 q 629 1184 601 1211 q 657 1113 657 1157 q 629 1042 657 1068 q 557 1015 601 1015 z "},"Ḡ":{"ha":1003,"x_min":72,"x_max":908,"o":"m 585 -18 q 311 40 426 -18 q 134 200 196 97 q 72 439 72 303 q 111 636 72 546 q 220 792 150 726 q 385 895 290 858 q 594 932 481 932 q 756 912 672 932 q 903 847 839 892 l 825 688 q 685 778 757 754 q 556 801 614 801 q 397 759 463 801 q 297 641 332 717 q 263 467 263 565 q 306 281 263 361 q 429 155 350 200 q 615 110 508 110 q 729 122 672 110 q 835 163 786 133 l 744 58 l 744 336 l 585 336 l 585 464 l 908 464 l 908 57 q 807 15 861 32 q 697 -10 753 -1 q 585 -18 640 -18 m 331 1036 l 331 1150 l 782 1150 l 782 1036 l 331 1036 z "},"Ǥ":{"ha":1017,"x_min":72,"x_max":1011,"o":"m 585 -18 q 311 40 426 -18 q 134 200 196 97 q 72 439 72 303 q 111 636 72 546 q 219 792 150 726 q 383 895 289 858 q 589 932 478 932 q 761 910 675 932 q 903 843 847 888 l 825 689 q 691 776 764 750 q 557 801 618 801 q 399 759 465 801 q 298 641 333 717 q 263 467 263 565 q 306 281 263 361 q 429 155 350 200 q 615 110 508 110 q 729 122 672 110 q 835 165 786 135 l 747 58 l 747 519 l 908 519 l 908 57 q 807 15 861 32 q 697 -10 753 -1 q 585 -18 640 -18 m 560 272 l 560 394 l 1011 394 l 1011 272 l 560 272 z "},"H":{"ha":1061,"x_min":132,"x_max":929,"o":"m 754 0 l 754 914 l 929 914 l 929 0 l 754 0 m 132 0 l 132 914 l 308 914 l 308 0 l 132 0 m 186 394 l 186 535 l 875 535 l 875 394 l 186 394 z "},"Ħ":{"ha":1058,"x_min":132,"x_max":926,"o":"m 751 0 l 751 914 l 926 914 l 926 0 l 751 0 m 132 0 l 132 914 l 307 914 l 307 0 l 132 0 m 186 246 l 186 376 l 872 376 l 872 246 l 186 246 m 186 550 l 186 681 l 872 681 l 872 550 l 186 550 z "},"Ḫ":{"ha":1061,"x_min":132,"x_max":929,"o":"m 754 0 l 754 914 l 929 914 l 929 0 l 754 0 m 132 0 l 132 914 l 308 914 l 308 0 l 132 0 m 186 394 l 186 535 l 875 535 l 875 394 l 186 394 m 531 -351 q 386 -294 443 -351 q 311 -135 329 -237 l 399 -121 q 446 -195 410 -168 q 531 -222 482 -222 q 616 -195 579 -222 q 663 -121 653 -168 l 750 -135 q 675 -294 732 -237 q 531 -351 618 -351 z "},"Ĥ":{"ha":1061,"x_min":132,"x_max":929,"o":"m 754 0 l 754 914 l 929 914 l 929 0 l 754 0 m 132 0 l 132 914 l 308 914 l 308 0 l 132 0 m 186 394 l 186 535 l 875 535 l 875 394 l 186 394 m 644 1015 l 504 1156 l 475 1260 l 585 1260 l 768 1015 l 644 1015 m 292 1015 l 475 1260 l 585 1260 l 557 1158 l 415 1015 l 292 1015 z "},"Ḥ":{"ha":1061,"x_min":132,"x_max":929,"o":"m 754 0 l 754 914 l 929 914 l 929 0 l 754 0 m 132 0 l 132 914 l 308 914 l 308 0 l 132 0 m 186 394 l 186 535 l 875 535 l 875 394 l 186 394 m 531 -314 q 457 -287 485 -314 q 429 -217 429 -261 q 457 -145 429 -172 q 531 -118 485 -118 q 603 -145 575 -118 q 631 -217 631 -172 q 603 -287 631 -261 q 531 -314 575 -314 z "},"I":{"ha":460,"x_min":139,"x_max":321,"o":"m 139 0 l 139 914 l 321 914 l 321 0 l 139 0 z "},"Ĳ":{"ha":1010,"x_min":117,"x_max":899,"o":"m 294 389 l 294 363 q 322 229 294 286 q 399 141 349 172 q 515 110 449 110 q 629 138 583 110 q 699 221 675 167 q 724 349 724 275 l 724 914 l 899 914 l 899 393 q 849 176 899 269 q 706 33 799 83 q 488 -18 614 -18 q 295 24 379 -18 q 164 147 211 67 q 117 339 117 226 l 117 389 l 294 389 m 117 551 l 117 914 l 297 914 l 297 551 l 117 551 z "},"Í":{"ha":460,"x_min":139,"x_max":431,"o":"m 139 0 l 139 914 l 321 914 l 321 0 l 139 0 m 147 1015 l 238 1260 l 431 1260 l 275 1015 l 147 1015 z "},"Ĭ":{"ha":460,"x_min":3,"x_max":442,"o":"m 139 0 l 139 914 l 321 914 l 321 0 l 139 0 m 222 979 q 78 1036 135 979 q 3 1196 21 1093 l 90 1210 q 138 1135 101 1163 q 222 1108 174 1108 q 308 1135 271 1108 q 354 1210 344 1163 l 442 1196 q 367 1036 424 1093 q 222 979 310 979 z "},"Ǐ":{"ha":460,"x_min":-17,"x_max":460,"o":"m 139 0 l 139 914 l 321 914 l 321 0 l 139 0 m 167 1015 l 196 1119 l 336 1260 l 460 1260 l 276 1015 l 167 1015 m 167 1015 l -17 1260 l 107 1260 l 249 1117 l 276 1015 l 167 1015 z "},"Î":{"ha":460,"x_min":-17,"x_max":460,"o":"m 139 0 l 139 914 l 321 914 l 321 0 l 139 0 m 336 1015 l 196 1156 l 167 1260 l 276 1260 l 460 1015 l 336 1015 m -17 1015 l 167 1260 l 276 1260 l 249 1158 l 107 1015 l -17 1015 z "},"Ï":{"ha":460,"x_min":-8,"x_max":451,"o":"m 139 0 l 139 914 l 321 914 l 321 0 l 139 0 m 85 1006 q 17 1031 43 1006 q -8 1096 -8 1057 q 17 1163 -8 1138 q 85 1189 43 1189 q 152 1163 126 1189 q 178 1096 178 1138 q 152 1031 178 1057 q 85 1006 126 1006 m 360 1006 q 290 1031 317 1006 q 264 1096 264 1057 q 290 1163 264 1138 q 360 1189 317 1189 q 426 1163 400 1189 q 451 1096 451 1138 q 426 1031 451 1057 q 360 1006 400 1006 z "},"İ":{"ha":460,"x_min":121,"x_max":322,"o":"m 139 0 l 139 914 l 321 914 l 321 0 l 139 0 m 222 1015 q 149 1042 176 1015 q 121 1113 121 1068 q 149 1184 121 1157 q 222 1211 176 1211 q 294 1184 267 1211 q 322 1113 322 1157 q 294 1042 322 1068 q 222 1015 267 1015 z "},"Ị":{"ha":460,"x_min":121,"x_max":322,"o":"m 139 0 l 139 914 l 321 914 l 321 0 l 139 0 m 222 -314 q 149 -287 176 -314 q 121 -217 121 -261 q 149 -145 121 -172 q 222 -118 176 -118 q 294 -145 267 -118 q 322 -217 322 -172 q 294 -287 322 -261 q 222 -314 267 -314 z "},"Ì":{"ha":460,"x_min":14,"x_max":321,"o":"m 139 0 l 139 914 l 321 914 l 321 0 l 139 0 m 169 1015 l 14 1260 l 207 1260 l 297 1015 l 169 1015 z "},"Ỉ":{"ha":460,"x_min":78,"x_max":404,"o":"m 139 0 l 139 914 l 321 914 l 321 0 l 139 0 m 158 971 l 156 1082 q 230 1094 204 1082 q 256 1128 256 1107 q 242 1161 256 1150 q 204 1172 229 1172 q 165 1167 186 1172 q 128 1149 143 1161 l 78 1210 q 160 1253 118 1242 q 236 1265 203 1265 q 358 1230 313 1265 q 404 1146 404 1194 q 356 1061 404 1094 q 224 1028 308 1028 l 292 1079 l 292 971 l 158 971 z "},"Ī":{"ha":460,"x_min":-4,"x_max":447,"o":"m 139 0 l 139 914 l 321 914 l 321 0 l 139 0 m -4 1036 l -4 1150 l 447 1150 l 447 1036 l -4 1036 z "},"Į":{"ha":460,"x_min":57,"x_max":424,"o":"m 139 0 l 139 914 l 321 914 l 321 0 l 139 0 m 256 -401 q 110 -351 163 -401 q 57 -219 57 -301 q 101 -85 57 -154 q 243 40 146 -15 l 321 0 q 255 -83 276 -37 q 233 -182 233 -129 q 253 -253 233 -221 q 315 -285 272 -285 q 351 -281 333 -285 q 385 -271 368 -278 l 424 -356 q 349 -390 389 -378 q 256 -401 308 -401 z "},"Ĩ":{"ha":460,"x_min":-28,"x_max":472,"o":"m 139 0 l 139 914 l 321 914 l 321 0 l 139 0 m 58 976 l -28 997 q 12 1079 -14 1043 q 70 1136 38 1115 q 139 1157 103 1157 q 191 1153 163 1157 q 249 1144 219 1149 q 306 1139 279 1139 q 353 1156 332 1139 q 385 1206 375 1174 l 472 1186 q 405 1060 451 1108 q 306 1011 358 1011 q 247 1016 276 1011 q 191 1025 218 1021 q 139 1029 164 1029 q 91 1015 113 1029 q 58 976 69 1001 z "},"J":{"ha":443,"x_min":-32,"x_max":318,"o":"m 143 86 l 143 914 l 318 914 l 318 86 q 296 -77 318 -11 q 233 -185 274 -143 q 135 -253 192 -228 q 11 -296 79 -279 l -32 -196 q 65 -144 26 -174 q 124 -60 104 -114 q 143 86 143 -7 z "},"Ĵ":{"ha":443,"x_min":-32,"x_max":461,"o":"m 143 86 l 143 914 l 318 914 l 318 86 q 296 -77 318 -11 q 233 -185 274 -143 q 135 -253 192 -228 q 11 -296 79 -279 l -32 -196 q 65 -144 26 -174 q 124 -60 104 -114 q 143 86 143 -7 m 338 1015 l 197 1156 l 168 1260 l 278 1260 l 461 1015 l 338 1015 m -15 1015 l 168 1260 l 278 1260 l 250 1158 l 108 1015 l -15 1015 z "},"K":{"ha":899,"x_min":132,"x_max":910,"o":"m 660 0 l 282 467 l 621 914 l 831 914 l 424 440 l 438 519 l 910 0 l 660 0 m 132 0 l 132 914 l 303 914 l 303 0 l 132 0 z "},"Ḱ":{"ha":899,"x_min":132,"x_max":910,"o":"m 660 0 l 282 467 l 621 914 l 831 914 l 424 440 l 438 519 l 910 0 l 660 0 m 132 0 l 132 914 l 303 914 l 303 0 l 132 0 m 397 1015 l 488 1260 l 681 1260 l 525 1015 l 397 1015 z "},"Ǩ":{"ha":899,"x_min":132,"x_max":910,"o":"m 660 0 l 282 467 l 621 914 l 831 914 l 424 440 l 438 519 l 910 0 l 660 0 m 132 0 l 132 914 l 303 914 l 303 0 l 132 0 m 417 1015 l 446 1119 l 586 1260 l 710 1260 l 526 1015 l 417 1015 m 417 1015 l 233 1260 l 357 1260 l 499 1117 l 526 1015 l 417 1015 z "},"Ķ":{"ha":899,"x_min":132,"x_max":910,"o":"m 660 0 l 282 467 l 621 914 l 831 914 l 424 440 l 438 519 l 910 0 l 660 0 m 132 0 l 132 914 l 303 914 l 303 0 l 132 0 m 443 -429 l 382 -379 q 415 -317 404 -351 q 426 -250 426 -283 q 418 -192 426 -218 q 394 -153 410 -167 l 510 -68 q 560 -129 544 -93 q 576 -206 576 -165 q 540 -333 576 -269 q 443 -429 504 -397 z "},"L":{"ha":768,"x_min":132,"x_max":742,"o":"m 132 0 l 132 914 l 307 914 l 307 0 l 132 0 m 186 0 l 186 138 l 742 138 l 742 0 l 186 0 z "},"Ĺ":{"ha":768,"x_min":132,"x_max":742,"o":"m 132 0 l 132 914 l 307 914 l 307 0 l 132 0 m 186 0 l 186 138 l 742 138 l 742 0 l 186 0 m 150 1015 l 240 1260 l 433 1260 l 278 1015 l 150 1015 z "},"Ľ":{"ha":768,"x_min":132,"x_max":742,"o":"m 132 0 l 132 914 l 307 914 l 307 0 l 132 0 m 186 0 l 186 138 l 742 138 l 742 0 l 186 0 m 604 515 l 506 514 l 506 914 l 660 914 l 604 515 z "},"Ļ":{"ha":768,"x_min":132,"x_max":742,"o":"m 132 0 l 132 914 l 307 914 l 307 0 l 132 0 m 186 0 l 186 138 l 742 138 l 742 0 l 186 0 m 406 -429 l 344 -379 q 378 -317 367 -351 q 389 -250 389 -283 q 381 -192 389 -218 q 357 -153 372 -167 l 472 -68 q 523 -129 507 -93 q 539 -206 539 -165 q 503 -333 539 -269 q 406 -429 467 -397 z "},"Ŀ":{"ha":768,"x_min":132,"x_max":742,"o":"m 132 0 l 132 914 l 307 914 l 307 0 l 132 0 m 186 0 l 186 138 l 742 138 l 742 0 l 186 0 m 608 403 q 528 432 558 403 q 499 508 499 461 q 528 586 499 557 q 608 615 558 615 q 686 586 657 615 q 715 508 715 557 q 686 432 715 461 q 608 403 657 403 z "},"Ḷ":{"ha":768,"x_min":132,"x_max":742,"o":"m 132 0 l 132 914 l 307 914 l 307 0 l 132 0 m 186 0 l 186 138 l 742 138 l 742 0 l 186 0 m 447 -314 q 374 -287 401 -314 q 346 -217 346 -261 q 374 -145 346 -172 q 447 -118 401 -118 q 519 -145 492 -118 q 547 -217 547 -172 q 519 -287 547 -261 q 447 -314 492 -314 z "},"Ḹ":{"ha":768,"x_min":-1,"x_max":742,"o":"m 132 0 l 132 914 l 307 914 l 307 0 l 132 0 m 186 0 l 186 138 l 742 138 l 742 0 l 186 0 m 447 -314 q 374 -287 401 -314 q 346 -217 346 -261 q 374 -145 346 -172 q 447 -118 401 -118 q 519 -145 492 -118 q 547 -217 547 -172 q 519 -287 547 -261 q 447 -314 492 -314 m -1 1036 l -1 1150 l 450 1150 l 450 1036 l -1 1036 z "},"Ḻ":{"ha":768,"x_min":132,"x_max":742,"o":"m 132 0 l 132 914 l 307 914 l 307 0 l 132 0 m 186 0 l 186 138 l 742 138 l 742 0 l 186 0 m 263 -237 l 263 -124 l 631 -124 l 631 -237 l 263 -237 z "},"Ł":{"ha":811,"x_min":15,"x_max":771,"o":"m 161 0 l 161 914 l 336 914 l 336 0 l 161 0 m 215 0 l 215 138 l 771 138 l 771 0 l 215 0 m 81 289 l 15 403 l 490 678 l 557 563 l 81 289 z "},"M":{"ha":1278,"x_min":115,"x_max":1164,"o":"m 988 0 l 963 829 l 1046 869 l 686 72 l 583 72 l 254 794 l 256 914 l 378 914 l 683 254 l 635 254 l 928 914 l 1111 914 l 1164 0 l 988 0 m 115 0 l 179 914 l 304 914 l 275 0 l 115 0 z "},"Ṁ":{"ha":1278,"x_min":115,"x_max":1164,"o":"m 988 0 l 963 829 l 1046 869 l 686 72 l 583 72 l 254 794 l 256 914 l 378 914 l 683 254 l 635 254 l 928 914 l 1111 914 l 1164 0 l 988 0 m 115 0 l 179 914 l 304 914 l 275 0 l 115 0 m 647 1015 q 574 1042 601 1015 q 546 1113 546 1068 q 574 1184 546 1157 q 647 1211 601 1211 q 719 1184 692 1211 q 747 1113 747 1157 q 719 1042 747 1068 q 647 1015 692 1015 z "},"Ṃ":{"ha":1278,"x_min":115,"x_max":1164,"o":"m 988 0 l 963 829 l 1046 869 l 686 72 l 583 72 l 254 794 l 256 914 l 378 914 l 683 254 l 635 254 l 928 914 l 1111 914 l 1164 0 l 988 0 m 115 0 l 179 914 l 304 914 l 275 0 l 115 0 m 647 -314 q 574 -287 601 -314 q 546 -217 546 -261 q 574 -145 546 -172 q 647 -118 601 -118 q 719 -145 692 -118 q 747 -217 747 -172 q 719 -287 747 -261 q 647 -314 692 -314 z "},"N":{"ha":1075,"x_min":132,"x_max":943,"o":"m 132 0 l 132 914 l 269 914 l 293 0 l 132 0 m 869 0 l 800 0 l 188 797 l 190 914 l 304 914 l 865 185 l 869 0 m 943 914 l 943 0 l 806 0 l 782 914 l 943 914 z "},"Ń":{"ha":1075,"x_min":132,"x_max":943,"o":"m 132 0 l 132 914 l 269 914 l 293 0 l 132 0 m 869 0 l 800 0 l 188 797 l 190 914 l 304 914 l 865 185 l 869 0 m 943 914 l 943 0 l 806 0 l 782 914 l 943 914 m 463 1015 l 553 1260 l 746 1260 l 590 1015 l 463 1015 z "},"Ň":{"ha":1075,"x_min":132,"x_max":943,"o":"m 132 0 l 132 914 l 269 914 l 293 0 l 132 0 m 869 0 l 800 0 l 188 797 l 190 914 l 304 914 l 865 185 l 869 0 m 943 914 l 943 0 l 806 0 l 782 914 l 943 914 m 482 1015 l 511 1119 l 651 1260 l 775 1260 l 592 1015 l 482 1015 m 482 1015 l 299 1260 l 422 1260 l 564 1117 l 592 1015 l 482 1015 z "},"Ṋ":{"ha":1075,"x_min":132,"x_max":943,"o":"m 132 0 l 132 914 l 269 914 l 293 0 l 132 0 m 869 0 l 800 0 l 188 797 l 190 914 l 304 914 l 865 185 l 869 0 m 943 914 l 943 0 l 806 0 l 782 914 l 943 914 m 631 -376 l 511 -187 l 482 -90 l 592 -90 l 747 -376 l 631 -376 m 326 -376 l 482 -90 l 592 -90 l 564 -185 l 443 -376 l 326 -376 z "},"Ņ":{"ha":1075,"x_min":132,"x_max":943,"o":"m 132 0 l 132 914 l 269 914 l 293 0 l 132 0 m 869 0 l 800 0 l 188 797 l 190 914 l 304 914 l 865 185 l 869 0 m 943 914 l 943 0 l 806 0 l 782 914 l 943 914 m 496 -429 l 435 -379 q 468 -317 457 -351 q 479 -250 479 -283 q 471 -192 479 -218 q 447 -153 463 -167 l 563 -68 q 613 -129 597 -93 q 629 -206 629 -165 q 593 -333 629 -269 q 496 -429 557 -397 z "},"Ṅ":{"ha":1075,"x_min":132,"x_max":943,"o":"m 132 0 l 132 914 l 269 914 l 293 0 l 132 0 m 869 0 l 800 0 l 188 797 l 190 914 l 304 914 l 865 185 l 869 0 m 943 914 l 943 0 l 806 0 l 782 914 l 943 914 m 538 1015 q 464 1042 492 1015 q 436 1113 436 1068 q 464 1184 436 1157 q 538 1211 492 1211 q 610 1184 582 1211 q 638 1113 638 1157 q 610 1042 638 1068 q 538 1015 582 1015 z "},"Ṇ":{"ha":1075,"x_min":132,"x_max":943,"o":"m 132 0 l 132 914 l 269 914 l 293 0 l 132 0 m 869 0 l 800 0 l 188 797 l 190 914 l 304 914 l 865 185 l 869 0 m 943 914 l 943 0 l 806 0 l 782 914 l 943 914 m 538 -314 q 464 -287 492 -314 q 436 -217 436 -261 q 464 -145 436 -172 q 538 -118 492 -118 q 610 -145 582 -118 q 638 -217 638 -172 q 610 -287 638 -261 q 538 -314 582 -314 z "},"Ṉ":{"ha":1075,"x_min":132,"x_max":943,"o":"m 132 0 l 132 914 l 269 914 l 293 0 l 132 0 m 869 0 l 800 0 l 188 797 l 190 914 l 304 914 l 865 185 l 869 0 m 943 914 l 943 0 l 806 0 l 782 914 l 943 914 m 353 -237 l 353 -124 l 721 -124 l 721 -237 l 353 -237 z "},"Ñ":{"ha":1075,"x_min":132,"x_max":943,"o":"m 132 0 l 132 914 l 269 914 l 293 0 l 132 0 m 869 0 l 800 0 l 188 797 l 190 914 l 304 914 l 865 185 l 869 0 m 943 914 l 943 0 l 806 0 l 782 914 l 943 914 m 374 976 l 288 997 q 327 1079 301 1043 q 385 1136 353 1115 q 454 1157 418 1157 q 506 1153 478 1157 q 565 1144 535 1149 q 621 1139 594 1139 q 669 1156 647 1139 q 700 1206 690 1174 l 788 1186 q 720 1060 767 1108 q 621 1011 674 1011 q 563 1016 592 1011 q 506 1025 533 1021 q 454 1029 479 1029 q 406 1015 428 1029 q 374 976 385 1001 z "},"Ŋ":{"ha":1075,"x_min":132,"x_max":943,"o":"m 790 0 l 188 783 l 190 914 l 294 914 l 865 157 l 790 0 m 132 0 l 132 914 l 269 914 l 293 0 l 132 0 m 636 -296 l 592 -196 q 698 -144 656 -174 q 761 -60 740 -114 q 782 86 782 -7 l 768 914 l 943 914 l 943 86 q 921 -77 943 -11 q 857 -185 899 -143 q 759 -253 815 -228 q 636 -296 703 -279 z "},"O":{"ha":1093,"x_min":72,"x_max":1021,"o":"m 535 -18 q 296 42 400 -18 q 132 209 192 103 q 72 450 72 315 q 111 650 72 561 q 219 801 150 739 q 376 898 288 864 q 563 932 464 932 q 799 872 696 932 q 962 706 903 811 q 1021 464 1021 600 q 982 264 1021 353 q 876 112 943 175 q 721 15 808 49 q 535 -18 633 -18 m 567 110 q 708 150 649 110 q 800 264 768 190 q 832 436 832 338 q 791 633 832 551 q 681 760 750 715 q 528 804 613 804 q 391 765 450 804 q 299 651 332 725 q 267 478 267 578 q 308 281 267 364 q 417 154 349 199 q 567 110 485 110 z "},"Ó":{"ha":1093,"x_min":72,"x_max":1021,"o":"m 535 -18 q 296 42 400 -18 q 132 209 192 103 q 72 450 72 315 q 111 650 72 561 q 219 801 150 739 q 376 898 288 864 q 563 932 464 932 q 799 872 696 932 q 962 706 903 811 q 1021 464 1021 600 q 982 264 1021 353 q 876 112 943 175 q 721 15 808 49 q 535 -18 633 -18 m 567 110 q 708 150 649 110 q 800 264 768 190 q 832 436 832 338 q 791 633 832 551 q 681 760 750 715 q 528 804 613 804 q 391 765 450 804 q 299 651 332 725 q 267 478 267 578 q 308 281 267 364 q 417 154 349 199 q 567 110 485 110 m 481 1015 l 571 1260 l 764 1260 l 608 1015 l 481 1015 z "},"Ŏ":{"ha":1093,"x_min":72,"x_max":1021,"o":"m 535 -18 q 296 42 400 -18 q 132 209 192 103 q 72 450 72 315 q 111 650 72 561 q 219 801 150 739 q 376 898 288 864 q 563 932 464 932 q 799 872 696 932 q 962 706 903 811 q 1021 464 1021 600 q 982 264 1021 353 q 876 112 943 175 q 721 15 808 49 q 535 -18 633 -18 m 567 110 q 708 150 649 110 q 800 264 768 190 q 832 436 832 338 q 791 633 832 551 q 681 760 750 715 q 528 804 613 804 q 391 765 450 804 q 299 651 332 725 q 267 478 267 578 q 308 281 267 364 q 417 154 349 199 q 567 110 485 110 m 556 979 q 411 1036 468 979 q 336 1196 354 1093 l 424 1210 q 471 1135 435 1163 q 556 1108 507 1108 q 641 1135 604 1108 q 688 1210 678 1163 l 775 1196 q 700 1036 757 1093 q 556 979 643 979 z "},"Ǒ":{"ha":1093,"x_min":72,"x_max":1021,"o":"m 535 -18 q 296 42 400 -18 q 132 209 192 103 q 72 450 72 315 q 111 650 72 561 q 219 801 150 739 q 376 898 288 864 q 563 932 464 932 q 799 872 696 932 q 962 706 903 811 q 1021 464 1021 600 q 982 264 1021 353 q 876 112 943 175 q 721 15 808 49 q 535 -18 633 -18 m 567 110 q 708 150 649 110 q 800 264 768 190 q 832 436 832 338 q 791 633 832 551 q 681 760 750 715 q 528 804 613 804 q 391 765 450 804 q 299 651 332 725 q 267 478 267 578 q 308 281 267 364 q 417 154 349 199 q 567 110 485 110 m 500 1015 l 529 1119 l 669 1260 l 793 1260 l 610 1015 l 500 1015 m 500 1015 l 317 1260 l 440 1260 l 582 1117 l 610 1015 l 500 1015 z "},"Ô":{"ha":1093,"x_min":72,"x_max":1021,"o":"m 535 -18 q 296 42 400 -18 q 132 209 192 103 q 72 450 72 315 q 111 650 72 561 q 219 801 150 739 q 376 898 288 864 q 563 932 464 932 q 799 872 696 932 q 962 706 903 811 q 1021 464 1021 600 q 982 264 1021 353 q 876 112 943 175 q 721 15 808 49 q 535 -18 633 -18 m 567 110 q 708 150 649 110 q 800 264 768 190 q 832 436 832 338 q 791 633 832 551 q 681 760 750 715 q 528 804 613 804 q 391 765 450 804 q 299 651 332 725 q 267 478 267 578 q 308 281 267 364 q 417 154 349 199 q 567 110 485 110 m 669 1015 l 529 1156 l 500 1260 l 610 1260 l 793 1015 l 669 1015 m 317 1015 l 500 1260 l 610 1260 l 582 1158 l 440 1015 l 317 1015 z "},"Ố":{"ha":1093,"x_min":72,"x_max":1021,"o":"m 535 -18 q 296 42 400 -18 q 132 209 192 103 q 72 450 72 315 q 111 650 72 561 q 219 801 150 739 q 376 898 288 864 q 563 932 464 932 q 799 872 696 932 q 962 706 903 811 q 1021 464 1021 600 q 982 264 1021 353 q 876 112 943 175 q 721 15 808 49 q 535 -18 633 -18 m 567 110 q 708 150 649 110 q 800 264 768 190 q 832 436 832 338 q 791 633 832 551 q 681 760 750 715 q 528 804 613 804 q 391 765 450 804 q 299 651 332 725 q 267 478 267 578 q 308 281 267 364 q 417 154 349 199 q 567 110 485 110 m 671 986 l 531 1126 l 501 1231 l 611 1231 l 794 986 l 671 986 m 318 986 l 501 1231 l 611 1231 l 583 1129 l 442 986 l 318 986 m 722 1119 l 815 1336 l 981 1336 l 833 1119 l 722 1119 z "},"Ộ":{"ha":1093,"x_min":72,"x_max":1021,"o":"m 535 -18 q 296 42 400 -18 q 132 209 192 103 q 72 450 72 315 q 111 650 72 561 q 219 801 150 739 q 376 898 288 864 q 563 932 464 932 q 799 872 696 932 q 962 706 903 811 q 1021 464 1021 600 q 982 264 1021 353 q 876 112 943 175 q 721 15 808 49 q 535 -18 633 -18 m 567 110 q 708 150 649 110 q 800 264 768 190 q 832 436 832 338 q 791 633 832 551 q 681 760 750 715 q 528 804 613 804 q 391 765 450 804 q 299 651 332 725 q 267 478 267 578 q 308 281 267 364 q 417 154 349 199 q 567 110 485 110 m 565 -314 q 492 -287 519 -314 q 464 -217 464 -261 q 492 -145 464 -172 q 565 -118 519 -118 q 638 -145 610 -118 q 665 -217 665 -172 q 638 -287 665 -261 q 565 -314 610 -314 m 669 1015 l 529 1156 l 500 1260 l 610 1260 l 793 1015 l 669 1015 m 317 1015 l 500 1260 l 610 1260 l 582 1158 l 440 1015 l 317 1015 z "},"Ồ":{"ha":1093,"x_min":72,"x_max":1021,"o":"m 535 -18 q 296 42 400 -18 q 132 209 192 103 q 72 450 72 315 q 111 650 72 561 q 219 801 150 739 q 376 898 288 864 q 563 932 464 932 q 799 872 696 932 q 962 706 903 811 q 1021 464 1021 600 q 982 264 1021 353 q 876 112 943 175 q 721 15 808 49 q 535 -18 633 -18 m 567 110 q 708 150 649 110 q 800 264 768 190 q 832 436 832 338 q 791 633 832 551 q 681 760 750 715 q 528 804 613 804 q 391 765 450 804 q 299 651 332 725 q 267 478 267 578 q 308 281 267 364 q 417 154 349 199 q 567 110 485 110 m 669 986 l 529 1126 l 500 1231 l 610 1231 l 793 986 l 669 986 m 317 986 l 500 1231 l 610 1231 l 582 1129 l 440 986 l 317 986 m 785 1119 l 638 1336 l 803 1336 l 896 1119 l 785 1119 z "},"Ổ":{"ha":1093,"x_min":72,"x_max":1021,"o":"m 535 -18 q 296 42 400 -18 q 132 209 192 103 q 72 450 72 315 q 111 650 72 561 q 219 801 150 739 q 376 898 288 864 q 563 932 464 932 q 799 872 696 932 q 962 706 903 811 q 1021 464 1021 600 q 982 264 1021 353 q 876 112 943 175 q 721 15 808 49 q 535 -18 633 -18 m 567 110 q 708 150 649 110 q 800 264 768 190 q 832 436 832 338 q 791 633 832 551 q 681 760 750 715 q 528 804 613 804 q 391 765 450 804 q 299 651 332 725 q 267 478 267 578 q 308 281 267 364 q 417 154 349 199 q 567 110 485 110 m 671 986 l 531 1126 l 501 1231 l 611 1231 l 794 986 l 671 986 m 318 986 l 501 1231 l 611 1231 l 583 1129 l 442 986 l 318 986 m 740 1119 l 738 1201 q 794 1216 765 1201 q 824 1254 824 1231 q 810 1281 824 1269 q 772 1293 797 1293 q 740 1287 758 1293 q 710 1269 722 1281 l 685 1314 q 751 1358 717 1347 q 811 1369 785 1369 q 897 1340 864 1369 q 929 1267 929 1310 q 893 1192 929 1221 q 792 1163 857 1163 l 829 1199 l 829 1119 l 740 1119 z "},"Ỗ":{"ha":1093,"x_min":72,"x_max":1021,"o":"m 535 -18 q 296 42 400 -18 q 132 209 192 103 q 72 450 72 315 q 111 650 72 561 q 219 801 150 739 q 376 898 288 864 q 563 932 464 932 q 799 872 696 932 q 962 706 903 811 q 1021 464 1021 600 q 982 264 1021 353 q 876 112 943 175 q 721 15 808 49 q 535 -18 633 -18 m 567 110 q 708 150 649 110 q 800 264 768 190 q 832 436 832 338 q 791 633 832 551 q 681 760 750 715 q 528 804 613 804 q 391 765 450 804 q 299 651 332 725 q 267 478 267 578 q 308 281 267 364 q 417 154 349 199 q 567 110 485 110 m 671 986 l 531 1126 l 501 1231 l 611 1231 l 794 986 l 671 986 m 318 986 l 501 1231 l 611 1231 l 583 1129 l 442 986 l 318 986 m 426 1257 l 340 1278 q 401 1375 358 1336 q 492 1414 443 1414 q 547 1402 525 1414 q 588 1378 569 1390 q 629 1367 607 1367 q 669 1384 651 1367 q 694 1435 686 1401 l 781 1414 q 720 1306 763 1347 q 629 1264 678 1264 q 568 1276 590 1264 q 530 1299 546 1288 q 492 1310 514 1310 q 452 1297 469 1310 q 426 1257 435 1283 z "},"Ö":{"ha":1093,"x_min":72,"x_max":1021,"o":"m 535 -18 q 296 42 400 -18 q 132 209 192 103 q 72 450 72 315 q 111 650 72 561 q 219 801 150 739 q 376 898 288 864 q 563 932 464 932 q 799 872 696 932 q 962 706 903 811 q 1021 464 1021 600 q 982 264 1021 353 q 876 112 943 175 q 721 15 808 49 q 535 -18 633 -18 m 567 110 q 708 150 649 110 q 800 264 768 190 q 832 436 832 338 q 791 633 832 551 q 681 760 750 715 q 528 804 613 804 q 391 765 450 804 q 299 651 332 725 q 267 478 267 578 q 308 281 267 364 q 417 154 349 199 q 567 110 485 110 m 418 1006 q 351 1031 376 1006 q 325 1096 325 1057 q 351 1163 325 1138 q 418 1189 376 1189 q 485 1163 460 1189 q 511 1096 511 1138 q 485 1031 511 1057 q 418 1006 460 1006 m 693 1006 q 624 1031 650 1006 q 597 1096 597 1057 q 624 1163 597 1138 q 693 1189 650 1189 q 759 1163 733 1189 q 785 1096 785 1138 q 759 1031 785 1057 q 693 1006 733 1006 z "},"Ọ":{"ha":1093,"x_min":72,"x_max":1021,"o":"m 535 -18 q 296 42 400 -18 q 132 209 192 103 q 72 450 72 315 q 111 650 72 561 q 219 801 150 739 q 376 898 288 864 q 563 932 464 932 q 799 872 696 932 q 962 706 903 811 q 1021 464 1021 600 q 982 264 1021 353 q 876 112 943 175 q 721 15 808 49 q 535 -18 633 -18 m 567 110 q 708 150 649 110 q 800 264 768 190 q 832 436 832 338 q 791 633 832 551 q 681 760 750 715 q 528 804 613 804 q 391 765 450 804 q 299 651 332 725 q 267 478 267 578 q 308 281 267 364 q 417 154 349 199 q 567 110 485 110 m 565 -314 q 492 -287 519 -314 q 464 -217 464 -261 q 492 -145 464 -172 q 565 -118 519 -118 q 638 -145 610 -118 q 665 -217 665 -172 q 638 -287 665 -261 q 565 -314 610 -314 z "},"Ò":{"ha":1093,"x_min":72,"x_max":1021,"o":"m 535 -18 q 296 42 400 -18 q 132 209 192 103 q 72 450 72 315 q 111 650 72 561 q 219 801 150 739 q 376 898 288 864 q 563 932 464 932 q 799 872 696 932 q 962 706 903 811 q 1021 464 1021 600 q 982 264 1021 353 q 876 112 943 175 q 721 15 808 49 q 535 -18 633 -18 m 567 110 q 708 150 649 110 q 800 264 768 190 q 832 436 832 338 q 791 633 832 551 q 681 760 750 715 q 528 804 613 804 q 391 765 450 804 q 299 651 332 725 q 267 478 267 578 q 308 281 267 364 q 417 154 349 199 q 567 110 485 110 m 503 1015 l 347 1260 l 540 1260 l 631 1015 l 503 1015 z "},"Ỏ":{"ha":1093,"x_min":72,"x_max":1021,"o":"m 535 -18 q 296 42 400 -18 q 132 209 192 103 q 72 450 72 315 q 111 650 72 561 q 219 801 150 739 q 376 898 288 864 q 563 932 464 932 q 799 872 696 932 q 962 706 903 811 q 1021 464 1021 600 q 982 264 1021 353 q 876 112 943 175 q 721 15 808 49 q 535 -18 633 -18 m 567 110 q 708 150 649 110 q 800 264 768 190 q 832 436 832 338 q 791 633 832 551 q 681 760 750 715 q 528 804 613 804 q 391 765 450 804 q 299 651 332 725 q 267 478 267 578 q 308 281 267 364 q 417 154 349 199 q 567 110 485 110 m 492 971 l 489 1082 q 563 1094 538 1082 q 589 1128 589 1107 q 576 1161 589 1150 q 538 1172 563 1172 q 498 1167 519 1172 q 461 1149 476 1161 l 411 1210 q 494 1253 451 1242 q 569 1265 536 1265 q 692 1230 646 1265 q 738 1146 738 1194 q 690 1061 738 1094 q 557 1028 642 1028 l 625 1079 l 625 971 l 492 971 z "},"Ơ":{"ha":1093,"x_min":72,"x_max":1058,"o":"m 535 -18 q 296 42 400 -18 q 132 209 192 103 q 72 450 72 315 q 111 650 72 561 q 219 801 150 739 q 376 898 288 864 q 563 932 464 932 q 799 872 696 932 q 962 706 903 811 q 1021 464 1021 600 q 982 264 1021 353 q 876 112 943 175 q 721 15 808 49 q 535 -18 633 -18 m 567 110 q 708 150 649 110 q 800 264 768 190 q 832 436 832 338 q 791 633 832 551 q 681 760 750 715 q 528 804 613 804 q 391 765 450 804 q 299 651 332 725 q 267 478 267 578 q 308 281 267 364 q 417 154 349 199 q 567 110 485 110 m 751 739 l 736 833 q 862 885 814 856 q 910 986 910 915 q 900 1038 910 1014 q 869 1078 890 1063 l 975 1160 q 1037 1092 1015 1132 q 1058 997 1058 1051 q 1020 869 1058 921 q 913 785 982 817 q 751 739 844 754 z "},"Ớ":{"ha":1093,"x_min":72,"x_max":1058,"o":"m 535 -18 q 296 42 400 -18 q 132 209 192 103 q 72 450 72 315 q 111 650 72 561 q 219 801 150 739 q 376 898 288 864 q 563 932 464 932 q 799 872 696 932 q 962 706 903 811 q 1021 464 1021 600 q 982 264 1021 353 q 876 112 943 175 q 721 15 808 49 q 535 -18 633 -18 m 567 110 q 708 150 649 110 q 800 264 768 190 q 832 436 832 338 q 791 633 832 551 q 681 760 750 715 q 528 804 613 804 q 391 765 450 804 q 299 651 332 725 q 267 478 267 578 q 308 281 267 364 q 417 154 349 199 q 567 110 485 110 m 751 739 l 736 833 q 862 885 814 856 q 910 986 910 915 q 900 1038 910 1014 q 869 1078 890 1063 l 975 1160 q 1037 1092 1015 1132 q 1058 997 1058 1051 q 1020 869 1058 921 q 913 785 982 817 q 751 739 844 754 m 472 1015 l 563 1260 l 756 1260 l 600 1015 l 472 1015 z "},"Ợ":{"ha":1093,"x_min":72,"x_max":1058,"o":"m 535 -18 q 296 42 400 -18 q 132 209 192 103 q 72 450 72 315 q 111 650 72 561 q 219 801 150 739 q 376 898 288 864 q 563 932 464 932 q 799 872 696 932 q 962 706 903 811 q 1021 464 1021 600 q 982 264 1021 353 q 876 112 943 175 q 721 15 808 49 q 535 -18 633 -18 m 567 110 q 708 150 649 110 q 800 264 768 190 q 832 436 832 338 q 791 633 832 551 q 681 760 750 715 q 528 804 613 804 q 391 765 450 804 q 299 651 332 725 q 267 478 267 578 q 308 281 267 364 q 417 154 349 199 q 567 110 485 110 m 751 739 l 736 833 q 862 885 814 856 q 910 986 910 915 q 900 1038 910 1014 q 869 1078 890 1063 l 975 1160 q 1037 1092 1015 1132 q 1058 997 1058 1051 q 1020 869 1058 921 q 913 785 982 817 q 751 739 844 754 m 547 -314 q 474 -287 501 -314 q 446 -217 446 -261 q 474 -145 446 -172 q 547 -118 501 -118 q 619 -145 592 -118 q 647 -217 647 -172 q 619 -287 647 -261 q 547 -314 592 -314 z "},"Ờ":{"ha":1093,"x_min":72,"x_max":1058,"o":"m 535 -18 q 296 42 400 -18 q 132 209 192 103 q 72 450 72 315 q 111 650 72 561 q 219 801 150 739 q 376 898 288 864 q 563 932 464 932 q 799 872 696 932 q 962 706 903 811 q 1021 464 1021 600 q 982 264 1021 353 q 876 112 943 175 q 721 15 808 49 q 535 -18 633 -18 m 567 110 q 708 150 649 110 q 800 264 768 190 q 832 436 832 338 q 791 633 832 551 q 681 760 750 715 q 528 804 613 804 q 391 765 450 804 q 299 651 332 725 q 267 478 267 578 q 308 281 267 364 q 417 154 349 199 q 567 110 485 110 m 751 739 l 736 833 q 862 885 814 856 q 910 986 910 915 q 900 1038 910 1014 q 869 1078 890 1063 l 975 1160 q 1037 1092 1015 1132 q 1058 997 1058 1051 q 1020 869 1058 921 q 913 785 982 817 q 751 739 844 754 m 494 1015 l 339 1260 l 532 1260 l 622 1015 l 494 1015 z "},"Ở":{"ha":1093,"x_min":72,"x_max":1058,"o":"m 535 -18 q 296 42 400 -18 q 132 209 192 103 q 72 450 72 315 q 111 650 72 561 q 219 801 150 739 q 376 898 288 864 q 563 932 464 932 q 799 872 696 932 q 962 706 903 811 q 1021 464 1021 600 q 982 264 1021 353 q 876 112 943 175 q 721 15 808 49 q 535 -18 633 -18 m 567 110 q 708 150 649 110 q 800 264 768 190 q 832 436 832 338 q 791 633 832 551 q 681 760 750 715 q 528 804 613 804 q 391 765 450 804 q 299 651 332 725 q 267 478 267 578 q 308 281 267 364 q 417 154 349 199 q 567 110 485 110 m 751 739 l 736 833 q 862 885 814 856 q 910 986 910 915 q 900 1038 910 1014 q 869 1078 890 1063 l 975 1160 q 1037 1092 1015 1132 q 1058 997 1058 1051 q 1020 869 1058 921 q 913 785 982 817 q 751 739 844 754 m 483 971 l 481 1082 q 555 1094 529 1082 q 581 1128 581 1107 q 567 1161 581 1150 q 529 1172 554 1172 q 490 1167 511 1172 q 453 1149 468 1161 l 403 1210 q 485 1253 443 1242 q 561 1265 528 1265 q 683 1230 638 1265 q 729 1146 729 1194 q 681 1061 729 1094 q 549 1028 633 1028 l 617 1079 l 617 971 l 483 971 z "},"Ỡ":{"ha":1093,"x_min":72,"x_max":1058,"o":"m 535 -18 q 296 42 400 -18 q 132 209 192 103 q 72 450 72 315 q 111 650 72 561 q 219 801 150 739 q 376 898 288 864 q 563 932 464 932 q 799 872 696 932 q 962 706 903 811 q 1021 464 1021 600 q 982 264 1021 353 q 876 112 943 175 q 721 15 808 49 q 535 -18 633 -18 m 567 110 q 708 150 649 110 q 800 264 768 190 q 832 436 832 338 q 791 633 832 551 q 681 760 750 715 q 528 804 613 804 q 391 765 450 804 q 299 651 332 725 q 267 478 267 578 q 308 281 267 364 q 417 154 349 199 q 567 110 485 110 m 751 739 l 736 833 q 862 885 814 856 q 910 986 910 915 q 900 1038 910 1014 q 869 1078 890 1063 l 975 1160 q 1037 1092 1015 1132 q 1058 997 1058 1051 q 1020 869 1058 921 q 913 785 982 817 q 751 739 844 754 m 383 976 l 297 997 q 337 1079 311 1043 q 395 1136 363 1115 q 464 1157 428 1157 q 516 1153 488 1157 q 574 1144 544 1149 q 631 1139 604 1139 q 678 1156 657 1139 q 710 1206 700 1174 l 797 1186 q 730 1060 776 1108 q 631 1011 683 1011 q 572 1016 601 1011 q 516 1025 543 1021 q 464 1029 489 1029 q 416 1015 438 1029 q 383 976 394 1001 z "},"Ő":{"ha":1093,"x_min":72,"x_max":1021,"o":"m 535 -18 q 296 42 400 -18 q 132 209 192 103 q 72 450 72 315 q 111 650 72 561 q 219 801 150 739 q 376 898 288 864 q 563 932 464 932 q 799 872 696 932 q 962 706 903 811 q 1021 464 1021 600 q 982 264 1021 353 q 876 112 943 175 q 721 15 808 49 q 535 -18 633 -18 m 567 110 q 708 150 649 110 q 800 264 768 190 q 832 436 832 338 q 791 633 832 551 q 681 760 750 715 q 528 804 613 804 q 391 765 450 804 q 299 651 332 725 q 267 478 267 578 q 308 281 267 364 q 417 154 349 199 q 567 110 485 110 m 357 1015 l 447 1260 l 640 1260 l 485 1015 l 357 1015 m 603 1015 l 693 1260 l 886 1260 l 731 1015 l 603 1015 z "},"Ō":{"ha":1093,"x_min":72,"x_max":1021,"o":"m 535 -18 q 296 42 400 -18 q 132 209 192 103 q 72 450 72 315 q 111 650 72 561 q 219 801 150 739 q 376 898 288 864 q 563 932 464 932 q 799 872 696 932 q 962 706 903 811 q 1021 464 1021 600 q 982 264 1021 353 q 876 112 943 175 q 721 15 808 49 q 535 -18 633 -18 m 567 110 q 708 150 649 110 q 800 264 768 190 q 832 436 832 338 q 791 633 832 551 q 681 760 750 715 q 528 804 613 804 q 391 765 450 804 q 299 651 332 725 q 267 478 267 578 q 308 281 267 364 q 417 154 349 199 q 567 110 485 110 m 329 1036 l 329 1150 l 781 1150 l 781 1036 l 329 1036 z "},"Ǫ":{"ha":1093,"x_min":72,"x_max":1021,"o":"m 535 -18 q 296 42 400 -18 q 132 209 192 103 q 72 450 72 315 q 111 650 72 561 q 219 801 150 739 q 376 898 288 864 q 563 932 464 932 q 799 872 696 932 q 962 706 903 811 q 1021 464 1021 600 q 982 264 1021 353 q 876 112 943 175 q 721 15 808 49 q 535 -18 633 -18 m 567 110 q 708 150 649 110 q 800 264 768 190 q 832 436 832 338 q 791 633 832 551 q 681 760 750 715 q 528 804 613 804 q 391 765 450 804 q 299 651 332 725 q 267 478 267 578 q 308 281 267 364 q 417 154 349 199 q 567 110 485 110 m 632 -401 q 467 -346 525 -401 q 410 -193 410 -290 q 460 -56 410 -126 q 622 72 510 15 l 679 29 q 603 -56 628 -8 q 579 -156 579 -103 q 605 -246 579 -207 q 690 -285 631 -285 q 716 -283 703 -285 q 742 -275 729 -281 l 781 -360 q 712 -391 747 -381 q 632 -401 676 -401 z "},"Ø":{"ha":1090,"x_min":72,"x_max":1019,"o":"m 531 -18 q 347 18 431 -18 q 201 118 263 54 q 106 267 139 182 q 72 449 72 351 q 110 641 72 553 q 216 794 149 729 q 371 896 283 860 q 558 932 458 932 q 744 896 660 932 q 890 795 828 860 q 985 646 951 731 q 1019 464 1019 561 q 981 272 1019 360 q 875 119 943 185 q 719 18 807 54 q 531 -18 631 -18 m 561 107 q 707 147 644 107 q 804 260 769 188 q 839 429 839 333 q 801 626 839 542 q 693 758 763 711 q 529 804 624 804 q 383 764 446 804 q 286 651 321 724 q 251 482 251 579 q 290 285 251 369 q 399 154 329 201 q 561 107 468 107 m 181 -81 l 81 3 l 894 974 l 994 886 l 181 -81 z "},"Ǿ":{"ha":1090,"x_min":72,"x_max":1019,"o":"m 531 -18 q 347 18 431 -18 q 201 118 263 54 q 106 267 139 182 q 72 449 72 351 q 110 641 72 553 q 216 794 149 729 q 371 896 283 860 q 558 932 458 932 q 744 896 660 932 q 890 795 828 860 q 985 646 951 731 q 1019 464 1019 561 q 981 272 1019 360 q 875 119 943 185 q 719 18 807 54 q 531 -18 631 -18 m 561 107 q 707 147 644 107 q 804 260 769 188 q 839 429 839 333 q 801 626 839 542 q 693 758 763 711 q 529 804 624 804 q 383 764 446 804 q 286 651 321 724 q 251 482 251 579 q 290 285 251 369 q 399 154 329 201 q 561 107 468 107 m 181 -81 l 81 3 l 894 974 l 994 886 l 181 -81 m 481 1015 l 571 1260 l 764 1260 l 608 1015 l 481 1015 z "},"Õ":{"ha":1093,"x_min":72,"x_max":1021,"o":"m 535 -18 q 296 42 400 -18 q 132 209 192 103 q 72 450 72 315 q 111 650 72 561 q 219 801 150 739 q 376 898 288 864 q 563 932 464 932 q 799 872 696 932 q 962 706 903 811 q 1021 464 1021 600 q 982 264 1021 353 q 876 112 943 175 q 721 15 808 49 q 535 -18 633 -18 m 567 110 q 708 150 649 110 q 800 264 768 190 q 832 436 832 338 q 791 633 832 551 q 681 760 750 715 q 528 804 613 804 q 391 765 450 804 q 299 651 332 725 q 267 478 267 578 q 308 281 267 364 q 417 154 349 199 q 567 110 485 110 m 392 976 l 306 997 q 345 1079 319 1043 q 403 1136 371 1115 q 472 1157 436 1157 q 524 1153 496 1157 q 583 1144 553 1149 q 639 1139 613 1139 q 687 1156 665 1139 q 718 1206 708 1174 l 806 1186 q 738 1060 785 1108 q 639 1011 692 1011 q 581 1016 610 1011 q 524 1025 551 1021 q 472 1029 497 1029 q 424 1015 446 1029 q 392 976 403 1001 z "},"Œ":{"ha":1304,"x_min":57,"x_max":1242,"o":"m 540 -10 q 348 24 436 -10 q 194 119 260 58 q 93 264 129 181 q 57 444 57 347 q 97 638 57 550 q 209 789 138 725 q 374 888 281 853 q 574 924 468 924 q 672 915 625 924 q 763 892 719 907 l 731 740 q 651 782 704 768 q 544 796 599 796 q 422 774 476 796 q 327 710 367 753 q 266 608 288 668 q 244 471 244 549 q 268 325 244 390 q 335 213 292 260 q 438 140 378 165 q 571 115 499 115 q 664 129 622 115 q 742 171 706 143 l 810 64 q 685 10 753 29 q 540 -10 618 -10 m 693 394 l 693 532 l 1146 532 l 1146 394 l 693 394 m 646 0 l 646 914 l 1199 914 l 1199 775 l 814 775 l 814 139 l 1242 139 l 1242 0 l 646 0 z "},"P":{"ha":833,"x_min":132,"x_max":779,"o":"m 382 303 q 321 306 361 303 q 242 317 281 308 l 242 446 q 324 438 290 440 q 396 436 357 436 q 512 453 467 436 q 578 508 557 471 q 600 600 600 544 q 546 736 600 689 q 400 783 492 783 l 304 783 l 304 0 l 132 0 l 132 914 l 429 914 q 612 881 533 914 q 735 786 690 847 q 779 640 779 725 q 750 512 779 572 q 668 404 721 451 q 542 330 615 357 q 382 303 469 303 z "},"Þ":{"ha":874,"x_min":132,"x_max":828,"o":"m 132 0 l 132 914 l 304 914 l 304 768 l 501 768 q 672 734 599 768 q 786 638 744 700 q 828 493 828 576 q 777 324 828 400 q 641 202 726 247 q 451 157 556 157 l 242 157 l 242 294 l 481 294 q 572 315 532 294 q 635 374 613 336 q 658 461 658 411 q 608 583 658 535 q 472 631 557 631 l 304 631 l 304 0 l 132 0 z "},"Q":{"ha":1093,"x_min":72,"x_max":1110,"o":"m 535 -18 q 296 42 400 -18 q 132 209 192 103 q 72 450 72 315 q 111 650 72 561 q 219 801 150 739 q 376 898 288 864 q 563 932 464 932 q 799 872 696 932 q 962 706 903 811 q 1021 464 1021 600 q 982 264 1021 353 q 876 112 943 175 q 721 15 808 49 q 535 -18 633 -18 m 567 110 q 708 150 649 110 q 800 264 768 190 q 832 436 832 338 q 791 633 832 551 q 681 760 750 715 q 528 804 613 804 q 391 765 450 804 q 299 651 332 725 q 267 478 267 578 q 308 281 267 364 q 417 154 349 199 q 567 110 485 110 m 713 67 q 796 -44 749 1 q 897 -112 843 -89 q 1010 -135 951 -135 q 1037 -133 1019 -135 q 1074 -122 1054 -131 l 1110 -208 q 1006 -237 1050 -231 q 933 -243 963 -243 q 704 -182 801 -243 q 535 0 607 -121 l 713 67 z "},"R":{"ha":944,"x_min":132,"x_max":971,"o":"m 132 0 l 132 914 l 404 914 q 585 885 508 914 q 703 802 661 856 q 744 675 744 749 q 717 558 744 614 q 641 460 689 503 q 532 392 593 417 q 404 367 471 367 l 194 367 l 194 483 l 426 483 q 497 506 465 483 q 549 565 529 528 q 568 644 568 601 q 522 747 568 708 q 389 786 475 786 l 301 786 l 301 0 l 132 0 m 818 -15 q 716 1 760 -15 q 636 51 672 17 q 561 144 600 86 l 390 406 l 528 454 l 728 204 q 788 142 761 164 q 837 114 814 121 q 879 107 860 107 q 903 108 888 107 q 933 115 919 110 l 971 17 q 890 -8 926 -1 q 818 -15 853 -15 z "},"Ŕ":{"ha":944,"x_min":132,"x_max":971,"o":"m 132 0 l 132 914 l 404 914 q 585 885 508 914 q 703 802 661 856 q 744 675 744 749 q 717 558 744 614 q 641 460 689 503 q 532 392 593 417 q 404 367 471 367 l 194 367 l 194 483 l 426 483 q 497 506 465 483 q 549 565 529 528 q 568 644 568 601 q 522 747 568 708 q 389 786 475 786 l 301 786 l 301 0 l 132 0 m 818 -15 q 716 1 760 -15 q 636 51 672 17 q 561 144 600 86 l 390 406 l 528 454 l 728 204 q 788 142 761 164 q 837 114 814 121 q 879 107 860 107 q 903 108 888 107 q 933 115 919 110 l 971 17 q 890 -8 926 -1 q 818 -15 853 -15 m 329 1015 l 419 1260 l 613 1260 l 457 1015 l 329 1015 z "},"Ř":{"ha":944,"x_min":132,"x_max":971,"o":"m 132 0 l 132 914 l 404 914 q 585 885 508 914 q 703 802 661 856 q 744 675 744 749 q 717 558 744 614 q 641 460 689 503 q 532 392 593 417 q 404 367 471 367 l 194 367 l 194 483 l 426 483 q 497 506 465 483 q 549 565 529 528 q 568 644 568 601 q 522 747 568 708 q 389 786 475 786 l 301 786 l 301 0 l 132 0 m 818 -15 q 716 1 760 -15 q 636 51 672 17 q 561 144 600 86 l 390 406 l 528 454 l 728 204 q 788 142 761 164 q 837 114 814 121 q 879 107 860 107 q 903 108 888 107 q 933 115 919 110 l 971 17 q 890 -8 926 -1 q 818 -15 853 -15 m 349 1015 l 378 1119 l 518 1260 l 642 1260 l 458 1015 l 349 1015 m 349 1015 l 165 1260 l 289 1260 l 431 1117 l 458 1015 l 349 1015 z "},"Ŗ":{"ha":944,"x_min":132,"x_max":971,"o":"m 132 0 l 132 914 l 404 914 q 585 885 508 914 q 703 802 661 856 q 744 675 744 749 q 717 558 744 614 q 641 460 689 503 q 532 392 593 417 q 404 367 471 367 l 194 367 l 194 483 l 426 483 q 497 506 465 483 q 549 565 529 528 q 568 644 568 601 q 522 747 568 708 q 389 786 475 786 l 301 786 l 301 0 l 132 0 m 818 -15 q 716 1 760 -15 q 636 51 672 17 q 561 144 600 86 l 390 406 l 528 454 l 728 204 q 788 142 761 164 q 837 114 814 121 q 879 107 860 107 q 903 108 888 107 q 933 115 919 110 l 971 17 q 890 -8 926 -1 q 818 -15 853 -15 m 436 -429 l 375 -379 q 408 -317 397 -351 q 419 -250 419 -283 q 411 -192 419 -218 q 388 -153 403 -167 l 503 -68 q 553 -129 538 -93 q 569 -206 569 -165 q 533 -333 569 -269 q 436 -429 497 -397 z "},"Ṛ":{"ha":944,"x_min":132,"x_max":971,"o":"m 132 0 l 132 914 l 404 914 q 585 885 508 914 q 703 802 661 856 q 744 675 744 749 q 717 558 744 614 q 641 460 689 503 q 532 392 593 417 q 404 367 471 367 l 194 367 l 194 483 l 426 483 q 497 506 465 483 q 549 565 529 528 q 568 644 568 601 q 522 747 568 708 q 389 786 475 786 l 301 786 l 301 0 l 132 0 m 818 -15 q 716 1 760 -15 q 636 51 672 17 q 561 144 600 86 l 390 406 l 528 454 l 728 204 q 788 142 761 164 q 837 114 814 121 q 879 107 860 107 q 903 108 888 107 q 933 115 919 110 l 971 17 q 890 -8 926 -1 q 818 -15 853 -15 m 478 -314 q 404 -287 432 -314 q 376 -217 376 -261 q 404 -145 376 -172 q 478 -118 432 -118 q 550 -145 522 -118 q 578 -217 578 -172 q 550 -287 578 -261 q 478 -314 522 -314 z "},"Ṝ":{"ha":944,"x_min":132,"x_max":971,"o":"m 132 0 l 132 914 l 404 914 q 585 885 508 914 q 703 802 661 856 q 744 675 744 749 q 717 558 744 614 q 641 460 689 503 q 532 392 593 417 q 404 367 471 367 l 194 367 l 194 483 l 426 483 q 497 506 465 483 q 549 565 529 528 q 568 644 568 601 q 522 747 568 708 q 389 786 475 786 l 301 786 l 301 0 l 132 0 m 818 -15 q 716 1 760 -15 q 636 51 672 17 q 561 144 600 86 l 390 406 l 528 454 l 728 204 q 788 142 761 164 q 837 114 814 121 q 879 107 860 107 q 903 108 888 107 q 933 115 919 110 l 971 17 q 890 -8 926 -1 q 818 -15 853 -15 m 478 -314 q 404 -287 432 -314 q 376 -217 376 -261 q 404 -145 376 -172 q 478 -118 432 -118 q 550 -145 522 -118 q 578 -217 578 -172 q 550 -287 578 -261 q 478 -314 522 -314 m 178 1036 l 178 1150 l 629 1150 l 629 1036 l 178 1036 z "},"Ṟ":{"ha":944,"x_min":132,"x_max":971,"o":"m 132 0 l 132 914 l 404 914 q 585 885 508 914 q 703 802 661 856 q 744 675 744 749 q 717 558 744 614 q 641 460 689 503 q 532 392 593 417 q 404 367 471 367 l 194 367 l 194 483 l 426 483 q 497 506 465 483 q 549 565 529 528 q 568 644 568 601 q 522 747 568 708 q 389 786 475 786 l 301 786 l 301 0 l 132 0 m 818 -15 q 716 1 760 -15 q 636 51 672 17 q 561 144 600 86 l 390 406 l 528 454 l 728 204 q 788 142 761 164 q 837 114 814 121 q 879 107 860 107 q 903 108 888 107 q 933 115 919 110 l 971 17 q 890 -8 926 -1 q 818 -15 853 -15 m 293 -237 l 293 -124 l 661 -124 l 661 -237 l 293 -237 z "},"S":{"ha":735,"x_min":53,"x_max":672,"o":"m 507 225 q 485 290 507 263 q 426 340 463 318 q 346 383 389 363 q 259 428 303 404 q 178 482 215 451 q 119 554 142 513 q 97 653 97 596 q 140 803 97 742 q 252 899 182 865 q 407 932 322 932 q 524 919 460 932 q 638 882 588 907 l 576 724 q 476 781 533 761 q 374 801 419 801 q 306 785 331 801 q 270 744 281 768 q 260 697 260 719 q 282 639 260 664 q 341 592 304 614 q 422 550 378 571 q 510 504 467 529 q 591 447 554 479 q 650 372 628 414 q 672 271 672 329 q 626 112 672 176 q 506 15 581 47 q 344 -18 432 -18 q 178 8 254 -18 q 53 69 101 35 l 138 215 q 254 144 189 172 q 382 115 319 115 q 472 144 436 115 q 507 225 507 174 z "},"Ś":{"ha":735,"x_min":53,"x_max":672,"o":"m 507 225 q 485 290 507 263 q 426 340 463 318 q 346 383 389 363 q 259 428 303 404 q 178 482 215 451 q 119 554 142 513 q 97 653 97 596 q 140 803 97 742 q 252 899 182 865 q 407 932 322 932 q 524 919 460 932 q 638 882 588 907 l 576 724 q 476 781 533 761 q 374 801 419 801 q 306 785 331 801 q 270 744 281 768 q 260 697 260 719 q 282 639 260 664 q 341 592 304 614 q 422 550 378 571 q 510 504 467 529 q 591 447 554 479 q 650 372 628 414 q 672 271 672 329 q 626 112 672 176 q 506 15 581 47 q 344 -18 432 -18 q 178 8 254 -18 q 53 69 101 35 l 138 215 q 254 144 189 172 q 382 115 319 115 q 472 144 436 115 q 507 225 507 174 m 329 1015 l 419 1260 l 613 1260 l 457 1015 l 329 1015 z "},"Ꞌ":{"ha":365,"x_min":94,"x_max":271,"o":"m 136 326 l 94 914 l 271 914 l 229 326 l 136 326 z "},"Š":{"ha":735,"x_min":53,"x_max":672,"o":"m 507 225 q 485 290 507 263 q 426 340 463 318 q 346 383 389 363 q 259 428 303 404 q 178 482 215 451 q 119 554 142 513 q 97 653 97 596 q 140 803 97 742 q 252 899 182 865 q 407 932 322 932 q 524 919 460 932 q 638 882 588 907 l 576 724 q 476 781 533 761 q 374 801 419 801 q 306 785 331 801 q 270 744 281 768 q 260 697 260 719 q 282 639 260 664 q 341 592 304 614 q 422 550 378 571 q 510 504 467 529 q 591 447 554 479 q 650 372 628 414 q 672 271 672 329 q 626 112 672 176 q 506 15 581 47 q 344 -18 432 -18 q 178 8 254 -18 q 53 69 101 35 l 138 215 q 254 144 189 172 q 382 115 319 115 q 472 144 436 115 q 507 225 507 174 m 349 1015 l 378 1119 l 518 1260 l 642 1260 l 458 1015 l 349 1015 m 349 1015 l 165 1260 l 289 1260 l 431 1117 l 458 1015 l 349 1015 z "},"Ş":{"ha":735,"x_min":53,"x_max":672,"o":"m 507 225 q 485 290 507 263 q 426 340 463 318 q 346 383 389 363 q 259 428 303 404 q 178 482 215 451 q 119 554 142 513 q 97 653 97 596 q 140 803 97 742 q 252 899 182 865 q 407 932 322 932 q 524 919 460 932 q 638 882 588 907 l 576 724 q 476 781 533 761 q 374 801 419 801 q 306 785 331 801 q 270 744 281 768 q 260 697 260 719 q 282 639 260 664 q 341 592 304 614 q 422 550 378 571 q 510 504 467 529 q 591 447 554 479 q 650 372 628 414 q 672 271 672 329 q 626 112 672 176 q 506 15 581 47 q 344 -18 432 -18 q 178 8 254 -18 q 53 69 101 35 l 138 215 q 254 144 189 172 q 382 115 319 115 q 472 144 436 115 q 507 225 507 174 m 322 0 l 415 0 l 381 -128 l 315 -107 q 349 -90 329 -96 q 396 -85 369 -85 q 509 -123 465 -85 q 553 -225 553 -161 q 501 -332 553 -292 q 364 -372 450 -372 q 283 -361 321 -372 q 215 -328 246 -350 l 244 -250 q 292 -272 264 -264 q 347 -281 321 -281 q 403 -262 386 -281 q 419 -222 419 -243 q 392 -176 419 -193 q 326 -158 365 -158 q 299 -160 313 -158 q 269 -167 285 -162 l 322 0 z "},"Ŝ":{"ha":735,"x_min":53,"x_max":672,"o":"m 507 225 q 485 290 507 263 q 426 340 463 318 q 346 383 389 363 q 259 428 303 404 q 178 482 215 451 q 119 554 142 513 q 97 653 97 596 q 140 803 97 742 q 252 899 182 865 q 407 932 322 932 q 524 919 460 932 q 638 882 588 907 l 576 724 q 476 781 533 761 q 374 801 419 801 q 306 785 331 801 q 270 744 281 768 q 260 697 260 719 q 282 639 260 664 q 341 592 304 614 q 422 550 378 571 q 510 504 467 529 q 591 447 554 479 q 650 372 628 414 q 672 271 672 329 q 626 112 672 176 q 506 15 581 47 q 344 -18 432 -18 q 178 8 254 -18 q 53 69 101 35 l 138 215 q 254 144 189 172 q 382 115 319 115 q 472 144 436 115 q 507 225 507 174 m 518 1015 l 378 1156 l 349 1260 l 458 1260 l 642 1015 l 518 1015 m 165 1015 l 349 1260 l 458 1260 l 431 1158 l 289 1015 l 165 1015 z "},"Ș":{"ha":735,"x_min":53,"x_max":672,"o":"m 507 225 q 485 290 507 263 q 426 340 463 318 q 346 383 389 363 q 259 428 303 404 q 178 482 215 451 q 119 554 142 513 q 97 653 97 596 q 140 803 97 742 q 252 899 182 865 q 407 932 322 932 q 524 919 460 932 q 638 882 588 907 l 576 724 q 476 781 533 761 q 374 801 419 801 q 306 785 331 801 q 270 744 281 768 q 260 697 260 719 q 282 639 260 664 q 341 592 304 614 q 422 550 378 571 q 510 504 467 529 q 591 447 554 479 q 650 372 628 414 q 672 271 672 329 q 626 112 672 176 q 506 15 581 47 q 344 -18 432 -18 q 178 8 254 -18 q 53 69 101 35 l 138 215 q 254 144 189 172 q 382 115 319 115 q 472 144 436 115 q 507 225 507 174 m 326 -429 l 265 -379 q 299 -317 288 -351 q 310 -250 310 -283 q 301 -192 310 -218 q 278 -153 293 -167 l 393 -68 q 444 -129 428 -93 q 460 -206 460 -165 q 424 -333 460 -269 q 326 -429 388 -397 z "},"Ṡ":{"ha":735,"x_min":53,"x_max":672,"o":"m 507 225 q 485 290 507 263 q 426 340 463 318 q 346 383 389 363 q 259 428 303 404 q 178 482 215 451 q 119 554 142 513 q 97 653 97 596 q 140 803 97 742 q 252 899 182 865 q 407 932 322 932 q 524 919 460 932 q 638 882 588 907 l 576 724 q 476 781 533 761 q 374 801 419 801 q 306 785 331 801 q 270 744 281 768 q 260 697 260 719 q 282 639 260 664 q 341 592 304 614 q 422 550 378 571 q 510 504 467 529 q 591 447 554 479 q 650 372 628 414 q 672 271 672 329 q 626 112 672 176 q 506 15 581 47 q 344 -18 432 -18 q 178 8 254 -18 q 53 69 101 35 l 138 215 q 254 144 189 172 q 382 115 319 115 q 472 144 436 115 q 507 225 507 174 m 404 1015 q 331 1042 358 1015 q 303 1113 303 1068 q 331 1184 303 1157 q 404 1211 358 1211 q 476 1184 449 1211 q 504 1113 504 1157 q 476 1042 504 1068 q 404 1015 449 1015 z "},"Ṣ":{"ha":735,"x_min":53,"x_max":672,"o":"m 507 225 q 485 290 507 263 q 426 340 463 318 q 346 383 389 363 q 259 428 303 404 q 178 482 215 451 q 119 554 142 513 q 97 653 97 596 q 140 803 97 742 q 252 899 182 865 q 407 932 322 932 q 524 919 460 932 q 638 882 588 907 l 576 724 q 476 781 533 761 q 374 801 419 801 q 306 785 331 801 q 270 744 281 768 q 260 697 260 719 q 282 639 260 664 q 341 592 304 614 q 422 550 378 571 q 510 504 467 529 q 591 447 554 479 q 650 372 628 414 q 672 271 672 329 q 626 112 672 176 q 506 15 581 47 q 344 -18 432 -18 q 178 8 254 -18 q 53 69 101 35 l 138 215 q 254 144 189 172 q 382 115 319 115 q 472 144 436 115 q 507 225 507 174 m 368 -314 q 294 -287 322 -314 q 267 -217 267 -261 q 294 -145 267 -172 q 368 -118 322 -118 q 440 -145 413 -118 q 468 -217 468 -172 q 440 -287 468 -261 q 368 -314 413 -314 z "},"ẞ":{"ha":992,"x_min":117,"x_max":936,"o":"m 117 0 l 117 492 q 153 701 117 617 q 256 837 190 786 q 408 910 322 888 q 592 932 494 932 q 697 926 646 932 q 796 910 747 921 q 889 882 844 899 l 747 739 q 638 781 697 767 q 521 796 578 796 q 411 773 461 796 q 331 697 361 750 q 300 549 300 643 l 300 0 l 117 0 m 629 -10 q 527 1 578 -10 q 449 22 476 11 l 501 167 q 569 136 533 149 q 639 124 606 124 q 702 138 674 124 q 748 181 731 151 q 765 253 765 210 q 736 341 765 304 q 661 402 707 378 q 567 440 615 426 l 685 576 q 747 552 713 568 q 814 513 781 536 q 875 458 847 490 q 919 385 903 426 q 936 290 936 343 q 899 142 936 210 q 794 32 863 74 q 629 -10 726 -10 m 567 440 l 742 888 l 889 882 l 731 490 l 567 440 z "},"T":{"ha":857,"x_min":39,"x_max":818,"o":"m 338 0 l 338 914 l 518 914 l 518 0 l 338 0 m 39 776 l 39 914 l 818 914 l 818 776 l 39 776 z "},"Ŧ":{"ha":857,"x_min":39,"x_max":818,"o":"m 338 0 l 338 914 l 518 914 l 518 0 l 338 0 m 39 776 l 39 914 l 818 914 l 818 776 l 39 776 m 175 393 l 175 522 l 682 522 l 682 393 l 175 393 z "},"Ť":{"ha":857,"x_min":39,"x_max":818,"o":"m 338 0 l 338 914 l 518 914 l 518 0 l 338 0 m 39 776 l 39 914 l 818 914 l 818 776 l 39 776 m 374 1015 l 403 1119 l 543 1260 l 667 1260 l 483 1015 l 374 1015 m 374 1015 l 190 1260 l 314 1260 l 456 1117 l 483 1015 l 374 1015 z "},"Ţ":{"ha":857,"x_min":39,"x_max":818,"o":"m 338 0 l 338 914 l 518 914 l 518 0 l 338 0 m 39 776 l 39 914 l 818 914 l 818 776 l 39 776 m 383 0 l 476 0 l 442 -128 l 376 -107 q 410 -90 390 -96 q 457 -85 431 -85 q 570 -123 526 -85 q 614 -225 614 -161 q 563 -332 614 -292 q 425 -372 511 -372 q 344 -361 382 -372 q 276 -328 307 -350 l 306 -250 q 353 -272 325 -264 q 408 -281 382 -281 q 464 -262 447 -281 q 481 -222 481 -243 q 453 -176 481 -193 q 388 -158 426 -158 q 360 -160 374 -158 q 331 -167 346 -162 l 383 0 z "},"Ț":{"ha":857,"x_min":39,"x_max":818,"o":"m 338 0 l 338 914 l 518 914 l 518 0 l 338 0 m 39 776 l 39 914 l 818 914 l 818 776 l 39 776 m 388 -429 l 326 -379 q 360 -317 349 -351 q 371 -250 371 -283 q 363 -192 371 -218 q 339 -153 354 -167 l 454 -68 q 505 -129 489 -93 q 521 -206 521 -165 q 485 -333 521 -269 q 388 -429 449 -397 z "},"Ṭ":{"ha":857,"x_min":39,"x_max":818,"o":"m 338 0 l 338 914 l 518 914 l 518 0 l 338 0 m 39 776 l 39 914 l 818 914 l 818 776 l 39 776 m 429 -314 q 356 -287 383 -314 q 328 -217 328 -261 q 356 -145 328 -172 q 429 -118 383 -118 q 501 -145 474 -118 q 529 -217 529 -172 q 501 -287 529 -261 q 429 -314 474 -314 z "},"Ṯ":{"ha":857,"x_min":39,"x_max":818,"o":"m 338 0 l 338 914 l 518 914 l 518 0 l 338 0 m 39 776 l 39 914 l 818 914 l 818 776 l 39 776 m 244 -237 l 244 -124 l 613 -124 l 613 -237 l 244 -237 z "},"U":{"ha":1018,"x_min":117,"x_max":907,"o":"m 499 -18 q 299 27 385 -18 q 165 156 213 72 q 117 353 117 239 l 117 914 l 294 914 l 294 390 q 322 246 294 306 q 403 155 350 186 q 531 124 457 124 q 653 152 603 124 q 728 232 703 181 q 754 350 754 283 l 754 914 l 907 914 l 907 390 q 856 175 907 267 q 714 33 806 83 q 499 -18 622 -18 z "},"Ú":{"ha":1018,"x_min":117,"x_max":907,"o":"m 499 -18 q 299 27 385 -18 q 165 156 213 72 q 117 353 117 239 l 117 914 l 294 914 l 294 390 q 322 246 294 306 q 403 155 350 186 q 531 124 457 124 q 653 152 603 124 q 728 232 703 181 q 754 350 754 283 l 754 914 l 907 914 l 907 390 q 856 175 907 267 q 714 33 806 83 q 499 -18 622 -18 m 456 1015 l 546 1260 l 739 1260 l 583 1015 l 456 1015 z "},"Ŭ":{"ha":1018,"x_min":117,"x_max":907,"o":"m 499 -18 q 299 27 385 -18 q 165 156 213 72 q 117 353 117 239 l 117 914 l 294 914 l 294 390 q 322 246 294 306 q 403 155 350 186 q 531 124 457 124 q 653 152 603 124 q 728 232 703 181 q 754 350 754 283 l 754 914 l 907 914 l 907 390 q 856 175 907 267 q 714 33 806 83 q 499 -18 622 -18 m 531 979 q 386 1036 443 979 q 311 1196 329 1093 l 399 1210 q 446 1135 410 1163 q 531 1108 482 1108 q 616 1135 579 1108 q 663 1210 653 1163 l 750 1196 q 675 1036 732 1093 q 531 979 618 979 z "},"Ǔ":{"ha":1018,"x_min":117,"x_max":907,"o":"m 499 -18 q 299 27 385 -18 q 165 156 213 72 q 117 353 117 239 l 117 914 l 294 914 l 294 390 q 322 246 294 306 q 403 155 350 186 q 531 124 457 124 q 653 152 603 124 q 728 232 703 181 q 754 350 754 283 l 754 914 l 907 914 l 907 390 q 856 175 907 267 q 714 33 806 83 q 499 -18 622 -18 m 475 1015 l 504 1119 l 644 1260 l 768 1260 l 585 1015 l 475 1015 m 475 1015 l 292 1260 l 415 1260 l 557 1117 l 585 1015 l 475 1015 z "},"Û":{"ha":1018,"x_min":117,"x_max":907,"o":"m 499 -18 q 299 27 385 -18 q 165 156 213 72 q 117 353 117 239 l 117 914 l 294 914 l 294 390 q 322 246 294 306 q 403 155 350 186 q 531 124 457 124 q 653 152 603 124 q 728 232 703 181 q 754 350 754 283 l 754 914 l 907 914 l 907 390 q 856 175 907 267 q 714 33 806 83 q 499 -18 622 -18 m 644 1015 l 504 1156 l 475 1260 l 585 1260 l 768 1015 l 644 1015 m 292 1015 l 475 1260 l 585 1260 l 557 1158 l 415 1015 l 292 1015 z "},"Ü":{"ha":1018,"x_min":117,"x_max":907,"o":"m 499 -18 q 299 27 385 -18 q 165 156 213 72 q 117 353 117 239 l 117 914 l 294 914 l 294 390 q 322 246 294 306 q 403 155 350 186 q 531 124 457 124 q 653 152 603 124 q 728 232 703 181 q 754 350 754 283 l 754 914 l 907 914 l 907 390 q 856 175 907 267 q 714 33 806 83 q 499 -18 622 -18 m 393 1006 q 326 1031 351 1006 q 300 1096 300 1057 q 326 1163 300 1138 q 393 1189 351 1189 q 460 1163 435 1189 q 486 1096 486 1138 q 460 1031 486 1057 q 393 1006 435 1006 m 668 1006 q 599 1031 625 1006 q 572 1096 572 1057 q 599 1163 572 1138 q 668 1189 625 1189 q 734 1163 708 1189 q 760 1096 760 1138 q 734 1031 760 1057 q 668 1006 708 1006 z "},"Ǘ":{"ha":1024,"x_min":117,"x_max":907,"o":"m 499 -18 q 299 27 385 -18 q 165 156 213 72 q 117 353 117 239 l 117 914 l 294 914 l 294 390 q 322 246 294 306 q 403 155 350 186 q 531 124 457 124 q 653 152 603 124 q 728 232 703 181 q 754 350 754 283 l 754 914 l 907 914 l 907 390 q 856 175 907 267 q 714 33 806 83 q 499 -18 622 -18 m 392 976 q 324 1002 350 976 q 299 1067 299 1028 q 324 1134 299 1108 q 392 1160 350 1160 q 459 1134 433 1160 q 485 1067 485 1108 q 459 1002 485 1028 q 392 976 433 976 m 667 976 q 597 1002 624 976 q 571 1067 571 1028 q 597 1134 571 1108 q 667 1160 624 1160 q 733 1134 707 1160 q 758 1067 758 1108 q 733 1002 758 1028 q 667 976 707 976 m 464 1197 l 554 1442 l 747 1442 l 592 1197 l 464 1197 z "},"Ǚ":{"ha":1018,"x_min":117,"x_max":907,"o":"m 499 -18 q 299 27 385 -18 q 165 156 213 72 q 117 353 117 239 l 117 914 l 294 914 l 294 390 q 322 246 294 306 q 403 155 350 186 q 531 124 457 124 q 653 152 603 124 q 728 232 703 181 q 754 350 754 283 l 754 914 l 907 914 l 907 390 q 856 175 907 267 q 714 33 806 83 q 499 -18 622 -18 m 649 976 q 581 1002 607 976 q 556 1067 556 1028 q 581 1134 556 1108 q 649 1160 607 1160 q 716 1134 690 1160 q 742 1067 742 1108 q 716 1002 742 1028 q 649 976 690 976 m 374 976 q 308 1002 333 976 q 282 1067 282 1028 q 308 1134 282 1108 q 374 1160 333 1160 q 443 1134 417 1160 q 469 1067 469 1108 q 443 1002 469 1028 q 374 976 417 976 m 460 1197 l 489 1301 l 629 1442 l 753 1442 l 569 1197 l 460 1197 m 460 1197 l 276 1442 l 400 1442 l 542 1299 l 569 1197 l 460 1197 z "},"Ǜ":{"ha":1018,"x_min":117,"x_max":907,"o":"m 499 -18 q 299 27 385 -18 q 165 156 213 72 q 117 353 117 239 l 117 914 l 294 914 l 294 390 q 322 246 294 306 q 403 155 350 186 q 531 124 457 124 q 653 152 603 124 q 728 232 703 181 q 754 350 754 283 l 754 914 l 907 914 l 907 390 q 856 175 907 267 q 714 33 806 83 q 499 -18 622 -18 m 651 976 q 584 1002 610 976 q 558 1067 558 1028 q 584 1134 558 1108 q 651 1160 610 1160 q 719 1134 693 1160 q 744 1067 744 1108 q 719 1002 744 1028 q 651 976 693 976 m 376 976 q 310 1002 336 976 q 285 1067 285 1028 q 310 1134 285 1108 q 376 1160 336 1160 q 446 1134 419 1160 q 472 1067 472 1108 q 446 1002 472 1028 q 376 976 419 976 m 579 1197 l 451 1197 l 296 1442 l 489 1442 l 579 1197 z "},"Ǖ":{"ha":1018,"x_min":117,"x_max":907,"o":"m 499 -18 q 299 27 385 -18 q 165 156 213 72 q 117 353 117 239 l 117 914 l 294 914 l 294 390 q 322 246 294 306 q 403 155 350 186 q 531 124 457 124 q 653 152 603 124 q 728 232 703 181 q 754 350 754 283 l 754 914 l 907 914 l 907 390 q 856 175 907 267 q 714 33 806 83 q 499 -18 622 -18 m 376 976 q 309 1002 335 976 q 283 1067 283 1028 q 309 1134 283 1108 q 376 1160 335 1160 q 444 1134 418 1160 q 469 1067 469 1108 q 444 1002 469 1028 q 376 976 418 976 m 651 976 q 582 1002 608 976 q 556 1067 556 1028 q 582 1134 556 1108 q 651 1160 608 1160 q 717 1134 692 1160 q 743 1067 743 1108 q 717 1002 743 1028 q 651 976 692 976 m 274 1250 l 274 1364 l 751 1364 l 751 1250 l 274 1250 z "},"Ụ":{"ha":1018,"x_min":117,"x_max":907,"o":"m 499 -18 q 299 27 385 -18 q 165 156 213 72 q 117 353 117 239 l 117 914 l 294 914 l 294 390 q 322 246 294 306 q 403 155 350 186 q 531 124 457 124 q 653 152 603 124 q 728 232 703 181 q 754 350 754 283 l 754 914 l 907 914 l 907 390 q 856 175 907 267 q 714 33 806 83 q 499 -18 622 -18 m 511 -314 q 438 -287 465 -314 q 410 -217 410 -261 q 438 -145 410 -172 q 511 -118 465 -118 q 583 -145 556 -118 q 611 -217 611 -172 q 583 -287 611 -261 q 511 -314 556 -314 z "},"Ù":{"ha":1018,"x_min":117,"x_max":907,"o":"m 499 -18 q 299 27 385 -18 q 165 156 213 72 q 117 353 117 239 l 117 914 l 294 914 l 294 390 q 322 246 294 306 q 403 155 350 186 q 531 124 457 124 q 653 152 603 124 q 728 232 703 181 q 754 350 754 283 l 754 914 l 907 914 l 907 390 q 856 175 907 267 q 714 33 806 83 q 499 -18 622 -18 m 478 1015 l 322 1260 l 515 1260 l 606 1015 l 478 1015 z "},"Ủ":{"ha":1018,"x_min":117,"x_max":907,"o":"m 499 -18 q 299 27 385 -18 q 165 156 213 72 q 117 353 117 239 l 117 914 l 294 914 l 294 390 q 322 246 294 306 q 403 155 350 186 q 531 124 457 124 q 653 152 603 124 q 728 232 703 181 q 754 350 754 283 l 754 914 l 907 914 l 907 390 q 856 175 907 267 q 714 33 806 83 q 499 -18 622 -18 m 467 971 l 464 1082 q 538 1094 513 1082 q 564 1128 564 1107 q 551 1161 564 1150 q 513 1172 538 1172 q 473 1167 494 1172 q 436 1149 451 1161 l 386 1210 q 469 1253 426 1242 q 544 1265 511 1265 q 667 1230 621 1265 q 713 1146 713 1194 q 665 1061 713 1094 q 532 1028 617 1028 l 600 1079 l 600 971 l 467 971 z "},"Ư":{"ha":1038,"x_min":117,"x_max":1081,"o":"m 500 -18 q 299 27 385 -18 q 165 156 213 72 q 117 353 117 239 l 117 914 l 294 914 l 294 404 q 324 247 294 308 q 406 154 353 185 q 532 124 460 124 q 649 150 601 124 q 722 226 697 176 q 747 346 747 276 l 747 854 l 907 854 l 907 390 q 856 175 907 267 q 714 33 806 83 q 500 -18 622 -18 m 789 767 l 747 854 q 843 877 801 861 q 909 922 885 893 q 933 993 933 950 q 923 1042 933 1019 q 892 1078 913 1064 l 997 1160 q 1059 1092 1038 1132 q 1081 999 1081 1051 q 1044 878 1081 928 q 942 801 1007 829 q 789 767 876 774 z "},"Ứ":{"ha":1038,"x_min":117,"x_max":1081,"o":"m 500 -18 q 299 27 385 -18 q 165 156 213 72 q 117 353 117 239 l 117 914 l 294 914 l 294 404 q 324 247 294 308 q 406 154 353 185 q 532 124 460 124 q 649 150 601 124 q 722 226 697 176 q 747 346 747 276 l 747 854 l 907 854 l 907 390 q 856 175 907 267 q 714 33 806 83 q 500 -18 622 -18 m 789 767 l 747 854 q 843 877 801 861 q 909 922 885 893 q 933 993 933 950 q 923 1042 933 1019 q 892 1078 913 1064 l 997 1160 q 1059 1092 1038 1132 q 1081 999 1081 1051 q 1044 878 1081 928 q 942 801 1007 829 q 789 767 876 774 m 451 1015 l 542 1260 l 735 1260 l 579 1015 l 451 1015 z "},"Ự":{"ha":1038,"x_min":117,"x_max":1081,"o":"m 500 -18 q 299 27 385 -18 q 165 156 213 72 q 117 353 117 239 l 117 914 l 294 914 l 294 404 q 324 247 294 308 q 406 154 353 185 q 532 124 460 124 q 649 150 601 124 q 722 226 697 176 q 747 346 747 276 l 747 854 l 907 854 l 907 390 q 856 175 907 267 q 714 33 806 83 q 500 -18 622 -18 m 789 767 l 747 854 q 843 877 801 861 q 909 922 885 893 q 933 993 933 950 q 923 1042 933 1019 q 892 1078 913 1064 l 997 1160 q 1059 1092 1038 1132 q 1081 999 1081 1051 q 1044 878 1081 928 q 942 801 1007 829 q 789 767 876 774 m 526 -314 q 453 -287 481 -314 q 425 -217 425 -261 q 453 -145 425 -172 q 526 -118 481 -118 q 599 -145 571 -118 q 626 -217 626 -172 q 599 -287 626 -261 q 526 -314 571 -314 z "},"Ừ":{"ha":1038,"x_min":117,"x_max":1081,"o":"m 500 -18 q 299 27 385 -18 q 165 156 213 72 q 117 353 117 239 l 117 914 l 294 914 l 294 404 q 324 247 294 308 q 406 154 353 185 q 532 124 460 124 q 649 150 601 124 q 722 226 697 176 q 747 346 747 276 l 747 854 l 907 854 l 907 390 q 856 175 907 267 q 714 33 806 83 q 500 -18 622 -18 m 789 767 l 747 854 q 843 877 801 861 q 909 922 885 893 q 933 993 933 950 q 923 1042 933 1019 q 892 1078 913 1064 l 997 1160 q 1059 1092 1038 1132 q 1081 999 1081 1051 q 1044 878 1081 928 q 942 801 1007 829 q 789 767 876 774 m 474 1015 l 318 1260 l 511 1260 l 601 1015 l 474 1015 z "},"Ử":{"ha":1038,"x_min":117,"x_max":1081,"o":"m 500 -18 q 299 27 385 -18 q 165 156 213 72 q 117 353 117 239 l 117 914 l 294 914 l 294 404 q 324 247 294 308 q 406 154 353 185 q 532 124 460 124 q 649 150 601 124 q 722 226 697 176 q 747 346 747 276 l 747 854 l 907 854 l 907 390 q 856 175 907 267 q 714 33 806 83 q 500 -18 622 -18 m 789 767 l 747 854 q 843 877 801 861 q 909 922 885 893 q 933 993 933 950 q 923 1042 933 1019 q 892 1078 913 1064 l 997 1160 q 1059 1092 1038 1132 q 1081 999 1081 1051 q 1044 878 1081 928 q 942 801 1007 829 q 789 767 876 774 m 463 971 l 460 1082 q 534 1094 508 1082 q 560 1128 560 1107 q 547 1161 560 1150 q 508 1172 533 1172 q 469 1167 490 1172 q 432 1149 447 1161 l 382 1210 q 465 1253 422 1242 q 540 1265 507 1265 q 663 1230 617 1265 q 708 1146 708 1194 q 660 1061 708 1094 q 528 1028 613 1028 l 596 1079 l 596 971 l 463 971 z "},"Ữ":{"ha":1038,"x_min":117,"x_max":1081,"o":"m 500 -18 q 299 27 385 -18 q 165 156 213 72 q 117 353 117 239 l 117 914 l 294 914 l 294 404 q 324 247 294 308 q 406 154 353 185 q 532 124 460 124 q 649 150 601 124 q 722 226 697 176 q 747 346 747 276 l 747 854 l 907 854 l 907 390 q 856 175 907 267 q 714 33 806 83 q 500 -18 622 -18 m 789 767 l 747 854 q 843 877 801 861 q 909 922 885 893 q 933 993 933 950 q 923 1042 933 1019 q 892 1078 913 1064 l 997 1160 q 1059 1092 1038 1132 q 1081 999 1081 1051 q 1044 878 1081 928 q 942 801 1007 829 q 789 767 876 774 m 363 976 l 276 997 q 316 1079 290 1043 q 374 1136 342 1115 q 443 1157 407 1157 q 495 1153 467 1157 q 553 1144 524 1149 q 610 1139 583 1139 q 658 1156 636 1139 q 689 1206 679 1174 l 776 1186 q 709 1060 756 1108 q 610 1011 663 1011 q 551 1016 581 1011 q 495 1025 522 1021 q 443 1029 468 1029 q 395 1015 417 1029 q 363 976 374 1001 z "},"Ű":{"ha":1018,"x_min":117,"x_max":907,"o":"m 499 -18 q 299 27 385 -18 q 165 156 213 72 q 117 353 117 239 l 117 914 l 294 914 l 294 390 q 322 246 294 306 q 403 155 350 186 q 531 124 457 124 q 653 152 603 124 q 728 232 703 181 q 754 350 754 283 l 754 914 l 907 914 l 907 390 q 856 175 907 267 q 714 33 806 83 q 499 -18 622 -18 m 332 1015 l 422 1260 l 615 1260 l 460 1015 l 332 1015 m 578 1015 l 668 1260 l 861 1260 l 706 1015 l 578 1015 z "},"Ū":{"ha":1018,"x_min":117,"x_max":907,"o":"m 499 -18 q 299 27 385 -18 q 165 156 213 72 q 117 353 117 239 l 117 914 l 294 914 l 294 390 q 322 246 294 306 q 403 155 350 186 q 531 124 457 124 q 653 152 603 124 q 728 232 703 181 q 754 350 754 283 l 754 914 l 907 914 l 907 390 q 856 175 907 267 q 714 33 806 83 q 499 -18 622 -18 m 304 1036 l 304 1150 l 756 1150 l 756 1036 l 304 1036 z "},"Ų":{"ha":1018,"x_min":117,"x_max":907,"o":"m 499 -18 q 299 27 385 -18 q 165 156 213 72 q 117 353 117 239 l 117 914 l 294 914 l 294 390 q 322 246 294 306 q 403 155 350 186 q 531 124 457 124 q 653 152 603 124 q 728 232 703 181 q 754 350 754 283 l 754 914 l 907 914 l 907 390 q 856 175 907 267 q 714 33 806 83 q 499 -18 622 -18 m 583 -401 q 419 -346 476 -401 q 361 -193 361 -290 q 411 -56 361 -126 q 574 72 461 15 l 631 29 q 555 -56 579 -8 q 531 -156 531 -103 q 556 -246 531 -207 q 642 -285 582 -285 q 667 -283 654 -285 q 693 -275 681 -281 l 732 -360 q 663 -391 699 -381 q 583 -401 628 -401 z "},"Ů":{"ha":1018,"x_min":117,"x_max":907,"o":"m 499 -18 q 299 27 385 -18 q 165 156 213 72 q 117 353 117 239 l 117 914 l 294 914 l 294 390 q 322 246 294 306 q 403 155 350 186 q 531 124 457 124 q 653 152 603 124 q 728 232 703 181 q 754 350 754 283 l 754 914 l 907 914 l 907 390 q 856 175 907 267 q 714 33 806 83 q 499 -18 622 -18 m 529 957 q 403 998 453 957 q 354 1101 354 1039 q 405 1202 354 1163 q 533 1242 456 1242 q 658 1201 610 1242 q 707 1099 707 1160 q 657 997 707 1038 q 529 957 607 957 m 532 1031 q 574 1049 558 1031 q 590 1099 590 1068 q 574 1149 590 1131 q 531 1168 558 1168 q 488 1150 504 1168 q 471 1101 471 1132 q 488 1050 471 1069 q 532 1031 506 1031 z "},"Ũ":{"ha":1018,"x_min":117,"x_max":907,"o":"m 499 -18 q 299 27 385 -18 q 165 156 213 72 q 117 353 117 239 l 117 914 l 294 914 l 294 390 q 322 246 294 306 q 403 155 350 186 q 531 124 457 124 q 653 152 603 124 q 728 232 703 181 q 754 350 754 283 l 754 914 l 907 914 l 907 390 q 856 175 907 267 q 714 33 806 83 q 499 -18 622 -18 m 367 976 l 281 997 q 320 1079 294 1043 q 378 1136 346 1115 q 447 1157 411 1157 q 499 1153 471 1157 q 558 1144 528 1149 q 614 1139 588 1139 q 662 1156 640 1139 q 693 1206 683 1174 l 781 1186 q 713 1060 760 1108 q 614 1011 667 1011 q 556 1016 585 1011 q 499 1025 526 1021 q 447 1029 472 1029 q 399 1015 421 1029 q 367 976 378 1001 z "},"V":{"ha":936,"x_min":43,"x_max":893,"o":"m 374 0 l 43 914 l 242 914 l 540 39 l 433 39 l 719 914 l 893 914 l 546 0 l 374 0 z "},"W":{"ha":1344,"x_min":50,"x_max":1296,"o":"m 868 0 l 601 914 l 774 914 l 1026 39 l 924 39 l 1129 914 l 1296 914 l 1042 0 l 868 0 m 301 0 l 50 914 l 235 914 l 453 39 l 353 39 l 592 914 l 731 914 l 475 0 l 301 0 z "},"Ẃ":{"ha":1344,"x_min":50,"x_max":1296,"o":"m 868 0 l 601 914 l 774 914 l 1026 39 l 924 39 l 1129 914 l 1296 914 l 1042 0 l 868 0 m 301 0 l 50 914 l 235 914 l 453 39 l 353 39 l 592 914 l 731 914 l 475 0 l 301 0 m 597 1015 l 688 1260 l 881 1260 l 725 1015 l 597 1015 z "},"Ŵ":{"ha":1344,"x_min":50,"x_max":1296,"o":"m 868 0 l 601 914 l 774 914 l 1026 39 l 924 39 l 1129 914 l 1296 914 l 1042 0 l 868 0 m 301 0 l 50 914 l 235 914 l 453 39 l 353 39 l 592 914 l 731 914 l 475 0 l 301 0 m 786 1015 l 646 1156 l 617 1260 l 726 1260 l 910 1015 l 786 1015 m 433 1015 l 617 1260 l 726 1260 l 699 1158 l 557 1015 l 433 1015 z "},"Ẅ":{"ha":1344,"x_min":50,"x_max":1296,"o":"m 868 0 l 601 914 l 774 914 l 1026 39 l 924 39 l 1129 914 l 1296 914 l 1042 0 l 868 0 m 301 0 l 50 914 l 235 914 l 453 39 l 353 39 l 592 914 l 731 914 l 475 0 l 301 0 m 535 1006 q 467 1031 493 1006 q 442 1096 442 1057 q 467 1163 442 1138 q 535 1189 493 1189 q 602 1163 576 1189 q 628 1096 628 1138 q 602 1031 628 1057 q 535 1006 576 1006 m 810 1006 q 740 1031 767 1006 q 714 1096 714 1057 q 740 1163 714 1138 q 810 1189 767 1189 q 876 1163 850 1189 q 901 1096 901 1138 q 876 1031 901 1057 q 810 1006 850 1006 z "},"Ẁ":{"ha":1344,"x_min":50,"x_max":1296,"o":"m 868 0 l 601 914 l 774 914 l 1026 39 l 924 39 l 1129 914 l 1296 914 l 1042 0 l 868 0 m 301 0 l 50 914 l 235 914 l 453 39 l 353 39 l 592 914 l 731 914 l 475 0 l 301 0 m 619 1015 l 464 1260 l 657 1260 l 747 1015 l 619 1015 z "},"X":{"ha":888,"x_min":35,"x_max":872,"o":"m 35 0 l 354 453 l 50 914 l 265 914 l 465 585 l 657 914 l 853 914 l 549 472 l 872 0 l 658 0 l 436 340 l 233 0 l 35 0 z "},"Y":{"ha":885,"x_min":21,"x_max":864,"o":"m 386 314 l 21 914 l 236 914 l 503 419 l 386 314 m 351 0 l 351 417 l 531 417 l 531 0 l 351 0 m 500 322 l 406 419 l 676 914 l 864 914 l 500 322 z "},"Ý":{"ha":885,"x_min":21,"x_max":864,"o":"m 386 314 l 21 914 l 236 914 l 503 419 l 386 314 m 351 0 l 351 417 l 531 417 l 531 0 l 351 0 m 500 322 l 406 419 l 676 914 l 864 914 l 500 322 m 368 1015 l 458 1260 l 651 1260 l 496 1015 l 368 1015 z "},"Ŷ":{"ha":885,"x_min":21,"x_max":864,"o":"m 386 314 l 21 914 l 236 914 l 503 419 l 386 314 m 351 0 l 351 417 l 531 417 l 531 0 l 351 0 m 500 322 l 406 419 l 676 914 l 864 914 l 500 322 m 557 1015 l 417 1156 l 388 1260 l 497 1260 l 681 1015 l 557 1015 m 204 1015 l 388 1260 l 497 1260 l 469 1158 l 328 1015 l 204 1015 z "},"Ÿ":{"ha":885,"x_min":21,"x_max":864,"o":"m 386 314 l 21 914 l 236 914 l 503 419 l 386 314 m 351 0 l 351 417 l 531 417 l 531 0 l 351 0 m 500 322 l 406 419 l 676 914 l 864 914 l 500 322 m 306 1006 q 238 1031 264 1006 q 213 1096 213 1057 q 238 1163 213 1138 q 306 1189 264 1189 q 373 1163 347 1189 q 399 1096 399 1138 q 373 1031 399 1057 q 306 1006 347 1006 m 581 1006 q 511 1031 538 1006 q 485 1096 485 1057 q 511 1163 485 1138 q 581 1189 538 1189 q 647 1163 621 1189 q 672 1096 672 1138 q 647 1031 672 1057 q 581 1006 621 1006 z "},"Ẏ":{"ha":885,"x_min":21,"x_max":864,"o":"m 386 314 l 21 914 l 236 914 l 503 419 l 386 314 m 351 0 l 351 417 l 531 417 l 531 0 l 351 0 m 500 322 l 406 419 l 676 914 l 864 914 l 500 322 m 443 1015 q 369 1042 397 1015 q 342 1113 342 1068 q 369 1184 342 1157 q 443 1211 397 1211 q 515 1184 488 1211 q 543 1113 543 1157 q 515 1042 543 1068 q 443 1015 488 1015 z "},"Ỵ":{"ha":885,"x_min":21,"x_max":864,"o":"m 386 314 l 21 914 l 236 914 l 503 419 l 386 314 m 351 0 l 351 417 l 531 417 l 531 0 l 351 0 m 500 322 l 406 419 l 676 914 l 864 914 l 500 322 m 443 -314 q 369 -287 397 -314 q 342 -217 342 -261 q 369 -145 342 -172 q 443 -118 397 -118 q 515 -145 488 -118 q 543 -217 543 -172 q 515 -287 543 -261 q 443 -314 488 -314 z "},"Ỳ":{"ha":885,"x_min":21,"x_max":864,"o":"m 386 314 l 21 914 l 236 914 l 503 419 l 386 314 m 351 0 l 351 417 l 531 417 l 531 0 l 351 0 m 500 322 l 406 419 l 676 914 l 864 914 l 500 322 m 390 1015 l 235 1260 l 428 1260 l 518 1015 l 390 1015 z "},"Ỷ":{"ha":885,"x_min":21,"x_max":864,"o":"m 386 314 l 21 914 l 236 914 l 503 419 l 386 314 m 351 0 l 351 417 l 531 417 l 531 0 l 351 0 m 500 322 l 406 419 l 676 914 l 864 914 l 500 322 m 379 971 l 376 1082 q 451 1094 425 1082 q 476 1128 476 1107 q 463 1161 476 1150 q 425 1172 450 1172 q 385 1167 407 1172 q 349 1149 364 1161 l 299 1210 q 381 1253 339 1242 q 457 1265 424 1265 q 579 1230 533 1265 q 625 1146 625 1194 q 577 1061 625 1094 q 444 1028 529 1028 l 513 1079 l 513 971 l 379 971 z "},"Ȳ":{"ha":885,"x_min":21,"x_max":864,"o":"m 386 314 l 21 914 l 236 914 l 503 419 l 386 314 m 351 0 l 351 417 l 531 417 l 531 0 l 351 0 m 500 322 l 406 419 l 676 914 l 864 914 l 500 322 m 217 1036 l 217 1150 l 668 1150 l 668 1036 l 217 1036 z "},"Ỹ":{"ha":885,"x_min":21,"x_max":864,"o":"m 386 314 l 21 914 l 236 914 l 503 419 l 386 314 m 351 0 l 351 417 l 531 417 l 531 0 l 351 0 m 500 322 l 406 419 l 676 914 l 864 914 l 500 322 m 279 976 l 193 997 q 233 1079 207 1043 q 291 1136 258 1115 q 360 1157 324 1157 q 412 1153 383 1157 q 470 1144 440 1149 q 526 1139 500 1139 q 574 1156 553 1139 q 606 1206 596 1174 l 693 1186 q 626 1060 672 1108 q 526 1011 579 1011 q 468 1016 497 1011 q 412 1025 439 1021 q 360 1029 385 1029 q 312 1015 333 1029 q 279 976 290 1001 z "},"Z":{"ha":851,"x_min":71,"x_max":796,"o":"m 72 0 l 71 117 l 660 906 l 736 783 l 94 776 l 94 914 l 782 914 l 782 799 l 194 8 l 125 131 l 796 138 l 796 0 l 72 0 z "},"Ź":{"ha":851,"x_min":71,"x_max":796,"o":"m 72 0 l 71 117 l 660 906 l 736 783 l 94 776 l 94 914 l 782 914 l 782 799 l 194 8 l 125 131 l 796 138 l 796 0 l 72 0 m 375 1015 l 465 1260 l 658 1260 l 503 1015 l 375 1015 z "},"Ž":{"ha":851,"x_min":71,"x_max":796,"o":"m 72 0 l 71 117 l 660 906 l 736 783 l 94 776 l 94 914 l 782 914 l 782 799 l 194 8 l 125 131 l 796 138 l 796 0 l 72 0 m 394 1015 l 424 1119 l 564 1260 l 688 1260 l 504 1015 l 394 1015 m 394 1015 l 211 1260 l 335 1260 l 476 1117 l 504 1015 l 394 1015 z "},"Ż":{"ha":851,"x_min":71,"x_max":796,"o":"m 72 0 l 71 117 l 660 906 l 736 783 l 94 776 l 94 914 l 782 914 l 782 799 l 194 8 l 125 131 l 796 138 l 796 0 l 72 0 m 450 1015 q 376 1042 404 1015 q 349 1113 349 1068 q 376 1184 349 1157 q 450 1211 404 1211 q 522 1184 494 1211 q 550 1113 550 1157 q 522 1042 550 1068 q 450 1015 494 1015 z "},"Ẓ":{"ha":851,"x_min":71,"x_max":796,"o":"m 72 0 l 71 117 l 660 906 l 736 783 l 94 776 l 94 914 l 782 914 l 782 799 l 194 8 l 125 131 l 796 138 l 796 0 l 72 0 m 450 -314 q 376 -287 404 -314 q 349 -217 349 -261 q 376 -145 349 -172 q 450 -118 404 -118 q 522 -145 494 -118 q 550 -217 550 -172 q 522 -287 550 -261 q 450 -314 494 -314 z "},"ꞌ":{"ha":365,"x_min":101,"x_max":265,"o":"m 136 382 l 101 914 l 265 914 l 229 382 l 136 382 z "},"ụ":{"ha":738,"x_min":88,"x_max":650,"o":"m 297 -10 q 147 47 207 -10 q 88 203 88 104 l 88 571 l 249 600 l 249 261 q 278 149 249 190 q 365 108 308 108 q 426 119 394 108 q 486 151 458 131 q 531 203 514 172 l 582 168 q 499 72 544 111 q 402 11 453 32 q 297 -10 351 -10 m 518 -15 l 489 104 l 489 571 l 650 600 l 650 15 l 518 -15 m 351 -314 q 278 -287 306 -314 q 250 -217 250 -261 q 278 -145 250 -172 q 351 -118 306 -118 q 424 -145 396 -118 q 451 -217 451 -172 q 424 -287 451 -261 q 351 -314 396 -314 z "},"ủ":{"ha":738,"x_min":88,"x_max":650,"o":"m 297 -10 q 147 47 207 -10 q 88 203 88 104 l 88 571 l 249 600 l 249 261 q 278 149 249 190 q 365 108 308 108 q 426 119 394 108 q 486 151 458 131 q 531 203 514 172 l 582 168 q 499 72 544 111 q 402 11 453 32 q 297 -10 351 -10 m 518 -15 l 489 104 l 489 571 l 650 600 l 650 15 l 518 -15 m 304 675 l 296 801 q 382 822 353 801 q 411 876 411 842 q 394 926 411 908 q 344 943 376 943 q 305 938 326 943 q 268 919 283 932 l 218 988 q 301 1031 258 1019 q 376 1043 343 1043 q 465 1023 428 1043 q 524 969 503 1003 q 544 894 544 935 q 497 789 544 831 q 364 747 449 747 l 432 799 l 428 675 l 304 675 z "},"ư":{"ha":772,"x_min":88,"x_max":801,"o":"m 296 -10 q 148 47 208 -10 q 88 203 88 104 l 88 571 l 249 600 l 249 261 q 279 149 249 190 q 367 108 310 108 q 430 119 397 108 q 491 151 463 131 q 536 203 519 172 l 588 168 q 503 71 549 111 q 405 10 457 31 q 296 -10 353 -10 m 524 -15 l 494 104 l 494 526 l 656 556 l 656 15 l 524 -15 m 540 451 l 494 526 q 605 575 565 543 q 644 663 644 607 q 634 716 644 693 q 610 753 624 739 l 718 836 q 780 771 758 810 q 801 685 801 732 q 768 575 801 625 q 676 493 735 525 q 540 451 617 461 z "},"ứ":{"ha":772,"x_min":88,"x_max":801,"o":"m 296 -10 q 148 47 208 -10 q 88 203 88 104 l 88 571 l 249 600 l 249 261 q 279 149 249 190 q 367 108 310 108 q 430 119 397 108 q 491 151 463 131 q 536 203 519 172 l 588 168 q 503 71 549 111 q 405 10 457 31 q 296 -10 353 -10 m 524 -15 l 494 104 l 494 526 l 656 556 l 656 15 l 524 -15 m 540 451 l 494 526 q 605 575 565 543 q 644 663 644 607 q 634 716 644 693 q 610 753 624 739 l 718 836 q 780 771 758 810 q 801 685 801 732 q 768 575 801 625 q 676 493 735 525 q 540 451 617 461 m 278 701 l 392 988 l 574 988 l 394 701 l 278 701 z "},"ự":{"ha":772,"x_min":88,"x_max":801,"o":"m 296 -10 q 148 47 208 -10 q 88 203 88 104 l 88 571 l 249 600 l 249 261 q 279 149 249 190 q 367 108 310 108 q 430 119 397 108 q 491 151 463 131 q 536 203 519 172 l 588 168 q 503 71 549 111 q 405 10 457 31 q 296 -10 353 -10 m 524 -15 l 494 104 l 494 526 l 656 556 l 656 15 l 524 -15 m 540 451 l 494 526 q 605 575 565 543 q 644 663 644 607 q 634 716 644 693 q 610 753 624 739 l 718 836 q 780 771 758 810 q 801 685 801 732 q 768 575 801 625 q 676 493 735 525 q 540 451 617 461 m 371 -314 q 297 -287 325 -314 q 269 -217 269 -261 q 297 -145 269 -172 q 371 -118 325 -118 q 443 -145 415 -118 q 471 -217 471 -172 q 443 -287 471 -261 q 371 -314 415 -314 z "},"ừ":{"ha":772,"x_min":88,"x_max":801,"o":"m 296 -10 q 148 47 208 -10 q 88 203 88 104 l 88 571 l 249 600 l 249 261 q 279 149 249 190 q 367 108 310 108 q 430 119 397 108 q 491 151 463 131 q 536 203 519 172 l 588 168 q 503 71 549 111 q 405 10 457 31 q 296 -10 353 -10 m 524 -15 l 494 104 l 494 526 l 656 556 l 656 15 l 524 -15 m 540 451 l 494 526 q 605 575 565 543 q 644 663 644 607 q 634 716 644 693 q 610 753 624 739 l 718 836 q 780 771 758 810 q 801 685 801 732 q 768 575 801 625 q 676 493 735 525 q 540 451 617 461 m 319 701 l 140 988 l 322 988 l 436 701 l 319 701 z "},"ử":{"ha":772,"x_min":88,"x_max":801,"o":"m 296 -10 q 148 47 208 -10 q 88 203 88 104 l 88 571 l 249 600 l 249 261 q 279 149 249 190 q 367 108 310 108 q 430 119 397 108 q 491 151 463 131 q 536 203 519 172 l 588 168 q 503 71 549 111 q 405 10 457 31 q 296 -10 353 -10 m 524 -15 l 494 104 l 494 526 l 656 556 l 656 15 l 524 -15 m 540 451 l 494 526 q 605 575 565 543 q 644 663 644 607 q 634 716 644 693 q 610 753 624 739 l 718 836 q 780 771 758 810 q 801 685 801 732 q 768 575 801 625 q 676 493 735 525 q 540 451 617 461 m 279 675 l 271 801 q 357 822 328 801 q 386 876 386 842 q 369 926 386 908 q 319 943 351 943 q 280 938 301 943 q 243 919 258 932 l 193 988 q 276 1031 233 1019 q 351 1043 318 1043 q 440 1023 403 1043 q 499 969 478 1003 q 519 894 519 935 q 472 789 519 831 q 339 747 424 747 l 407 799 l 403 675 l 279 675 z "},"ữ":{"ha":772,"x_min":88,"x_max":801,"o":"m 296 -10 q 148 47 208 -10 q 88 203 88 104 l 88 571 l 249 600 l 249 261 q 279 149 249 190 q 367 108 310 108 q 430 119 397 108 q 491 151 463 131 q 536 203 519 172 l 588 168 q 503 71 549 111 q 405 10 457 31 q 296 -10 353 -10 m 524 -15 l 494 104 l 494 526 l 656 556 l 656 15 l 524 -15 m 540 451 l 494 526 q 605 575 565 543 q 644 663 644 607 q 634 716 644 693 q 610 753 624 739 l 718 836 q 780 771 758 810 q 801 685 801 732 q 768 575 801 625 q 676 493 735 525 q 540 451 617 461 m 222 669 l 136 690 q 197 804 154 758 q 288 850 239 850 q 335 846 310 850 q 389 837 361 842 q 440 832 417 832 q 479 849 463 832 q 506 899 496 867 l 592 879 q 531 753 574 801 q 440 704 489 704 q 388 709 414 704 q 336 718 361 714 q 288 722 311 722 q 248 708 265 722 q 222 669 231 694 z "},"ﬁ":{"ha":836,"x_min":28,"x_max":726,"o":"m 132 0 l 132 582 q 158 765 132 689 q 228 891 183 842 q 336 964 274 940 q 471 988 399 988 q 608 960 547 988 q 726 881 669 933 l 608 758 q 524 849 561 819 q 443 878 488 878 q 358 851 392 878 q 310 769 325 825 q 294 626 294 714 l 294 0 l 132 0 m 701 475 l 28 482 l 38 574 l 725 589 l 701 475 m 564 0 l 564 526 l 725 589 l 725 0 l 564 0 z "},"ﬂ":{"ha":863,"x_min":28,"x_max":760,"o":"m 132 0 l 132 582 q 185 807 132 717 q 326 942 239 897 q 513 988 413 988 q 626 969 578 988 q 718 928 675 951 l 639 808 q 563 860 601 843 q 476 878 525 878 q 338 818 381 878 q 294 626 294 758 l 294 0 l 132 0 m 496 479 l 28 482 l 38 574 l 506 585 l 496 479 m 600 0 l 600 958 l 760 988 l 760 0 l 600 0 z "},"a":{"ha":756,"x_min":28,"x_max":728,"o":"m 28 0 l 282 657 l 472 657 l 728 0 l 560 0 l 353 588 l 393 588 l 197 0 l 28 0 m 165 178 l 203 296 l 517 296 l 572 178 l 165 178 z "},"á":{"ha":756,"x_min":28,"x_max":728,"o":"m 28 0 l 282 657 l 472 657 l 728 0 l 560 0 l 353 588 l 393 588 l 197 0 l 28 0 m 165 178 l 203 296 l 517 296 l 572 178 l 165 178 m 294 729 l 390 974 l 576 974 l 414 729 l 294 729 z "},"ă":{"ha":756,"x_min":28,"x_max":728,"o":"m 28 0 l 282 657 l 472 657 l 728 0 l 560 0 l 353 588 l 393 588 l 197 0 l 28 0 m 165 178 l 203 296 l 517 296 l 572 178 l 165 178 m 378 722 q 233 779 290 722 q 158 939 176 836 l 246 953 q 293 878 257 906 q 378 851 329 851 q 463 878 426 851 q 510 953 500 906 l 597 939 q 522 779 579 836 q 378 722 465 722 z "},"ắ":{"ha":756,"x_min":28,"x_max":728,"o":"m 28 0 l 282 657 l 472 657 l 728 0 l 560 0 l 353 588 l 393 588 l 197 0 l 28 0 m 165 178 l 203 296 l 517 296 l 572 178 l 165 178 m 378 722 q 233 779 290 722 q 158 939 176 836 l 246 953 q 293 878 257 906 q 378 851 329 851 q 463 878 426 851 q 510 953 500 906 l 597 939 q 522 779 579 836 q 378 722 465 722 m 315 956 l 408 1172 l 574 1172 l 426 956 l 315 956 z "},"ặ":{"ha":756,"x_min":28,"x_max":728,"o":"m 28 0 l 282 657 l 472 657 l 728 0 l 560 0 l 353 588 l 393 588 l 197 0 l 28 0 m 165 178 l 203 296 l 517 296 l 572 178 l 165 178 m 378 -314 q 304 -287 332 -314 q 276 -217 276 -261 q 304 -145 276 -172 q 378 -118 332 -118 q 450 -145 422 -118 q 478 -217 478 -172 q 450 -287 478 -261 q 378 -314 422 -314 m 378 722 q 233 779 290 722 q 158 939 176 836 l 246 953 q 293 878 257 906 q 378 851 329 851 q 463 878 426 851 q 510 953 500 906 l 597 939 q 522 779 579 836 q 378 722 465 722 z "},"ằ":{"ha":756,"x_min":28,"x_max":728,"o":"m 28 0 l 282 657 l 472 657 l 728 0 l 560 0 l 353 588 l 393 588 l 197 0 l 28 0 m 165 178 l 203 296 l 517 296 l 572 178 l 165 178 m 378 722 q 233 779 290 722 q 158 939 176 836 l 246 953 q 293 878 257 906 q 378 851 329 851 q 463 878 426 851 q 510 953 500 906 l 597 939 q 522 779 579 836 q 378 722 465 722 m 329 956 l 182 1172 l 347 1172 l 440 956 l 329 956 z "},"ẳ":{"ha":756,"x_min":28,"x_max":728,"o":"m 28 0 l 282 657 l 472 657 l 728 0 l 560 0 l 353 588 l 393 588 l 197 0 l 28 0 m 165 178 l 203 296 l 517 296 l 572 178 l 165 178 m 378 722 q 233 779 290 722 q 158 939 176 836 l 246 953 q 293 878 257 906 q 378 851 329 851 q 463 878 426 851 q 510 953 500 906 l 597 939 q 522 779 579 836 q 378 722 465 722 m 318 931 l 315 1013 q 372 1027 343 1013 q 401 1065 401 1042 q 388 1092 401 1081 q 350 1104 375 1104 q 318 1098 336 1104 q 288 1081 300 1092 l 263 1125 q 328 1169 294 1158 q 389 1181 363 1181 q 474 1151 442 1181 q 507 1078 507 1121 q 471 1003 507 1032 q 369 974 435 974 l 407 1010 l 407 931 l 318 931 z "},"ẵ":{"ha":756,"x_min":28,"x_max":728,"o":"m 28 0 l 282 657 l 472 657 l 728 0 l 560 0 l 353 588 l 393 588 l 197 0 l 28 0 m 165 178 l 203 296 l 517 296 l 572 178 l 165 178 m 378 722 q 233 779 290 722 q 158 939 176 836 l 246 953 q 293 878 257 906 q 378 851 329 851 q 463 878 426 851 q 510 953 500 906 l 597 939 q 522 779 579 836 q 378 722 465 722 m 243 1001 l 157 1022 q 217 1119 175 1081 q 308 1158 260 1158 q 364 1147 342 1158 q 405 1123 386 1135 q 446 1111 424 1111 q 485 1128 468 1111 q 511 1179 503 1146 l 597 1158 q 537 1050 579 1092 q 446 1008 494 1008 q 385 1020 407 1008 q 347 1043 363 1032 q 308 1054 331 1054 q 269 1041 286 1054 q 243 1001 251 1028 z "},"ǎ":{"ha":756,"x_min":28,"x_max":728,"o":"m 28 0 l 282 657 l 472 657 l 728 0 l 560 0 l 353 588 l 393 588 l 197 0 l 28 0 m 165 178 l 203 296 l 517 296 l 572 178 l 165 178 m 322 729 l 351 826 l 471 974 l 588 974 l 432 729 l 322 729 m 322 729 l 167 974 l 283 974 l 404 824 l 432 729 l 322 729 z "},"â":{"ha":756,"x_min":28,"x_max":728,"o":"m 28 0 l 282 657 l 472 657 l 728 0 l 560 0 l 353 588 l 393 588 l 197 0 l 28 0 m 165 178 l 203 296 l 517 296 l 572 178 l 165 178 m 471 729 l 351 876 l 322 974 l 432 974 l 588 729 l 471 729 m 167 729 l 322 974 l 432 974 l 404 879 l 283 729 l 167 729 z "},"ấ":{"ha":756,"x_min":28,"x_max":783,"o":"m 28 0 l 282 657 l 472 657 l 728 0 l 560 0 l 353 588 l 393 588 l 197 0 l 28 0 m 165 178 l 203 296 l 517 296 l 572 178 l 165 178 m 475 729 l 335 869 l 306 974 l 415 974 l 599 729 l 475 729 m 122 729 l 306 974 l 415 974 l 388 872 l 246 729 l 122 729 m 525 863 l 618 1079 l 783 1079 l 636 863 l 525 863 z "},"ậ":{"ha":756,"x_min":28,"x_max":728,"o":"m 28 0 l 282 657 l 472 657 l 728 0 l 560 0 l 353 588 l 393 588 l 197 0 l 28 0 m 165 178 l 203 296 l 517 296 l 572 178 l 165 178 m 378 -314 q 304 -287 332 -314 q 276 -217 276 -261 q 304 -145 276 -172 q 378 -118 332 -118 q 450 -145 422 -118 q 478 -217 478 -172 q 450 -287 478 -261 q 378 -314 422 -314 m 471 729 l 351 876 l 322 974 l 432 974 l 588 729 l 471 729 m 167 729 l 322 974 l 432 974 l 404 879 l 283 729 l 167 729 z "},"ầ":{"ha":756,"x_min":28,"x_max":728,"o":"m 28 0 l 282 657 l 472 657 l 728 0 l 560 0 l 353 588 l 393 588 l 197 0 l 28 0 m 165 178 l 203 296 l 517 296 l 572 178 l 165 178 m 475 729 l 335 869 l 306 974 l 415 974 l 599 729 l 475 729 m 122 729 l 306 974 l 415 974 l 388 872 l 246 729 l 122 729 m 589 863 l 442 1079 l 607 1079 l 700 863 l 589 863 z "},"ẩ":{"ha":756,"x_min":28,"x_max":742,"o":"m 28 0 l 282 657 l 472 657 l 728 0 l 560 0 l 353 588 l 393 588 l 197 0 l 28 0 m 165 178 l 203 296 l 517 296 l 572 178 l 165 178 m 493 729 l 353 869 l 324 974 l 433 974 l 617 729 l 493 729 m 140 729 l 324 974 l 433 974 l 406 872 l 264 729 l 140 729 m 553 863 l 550 944 q 607 959 578 944 q 636 997 636 974 q 623 1024 636 1013 q 585 1036 610 1036 q 553 1030 571 1036 q 522 1013 535 1024 l 497 1057 q 563 1101 529 1090 q 624 1113 597 1113 q 709 1083 676 1113 q 742 1010 742 1053 q 706 935 742 964 q 604 906 669 906 l 642 942 l 642 863 l 553 863 z "},"ẫ":{"ha":756,"x_min":28,"x_max":728,"o":"m 28 0 l 282 657 l 472 657 l 728 0 l 560 0 l 353 588 l 393 588 l 197 0 l 28 0 m 165 178 l 203 296 l 517 296 l 572 178 l 165 178 m 492 715 l 351 856 l 322 960 l 432 960 l 615 715 l 492 715 m 139 715 l 322 960 l 432 960 l 404 858 l 263 715 l 139 715 m 247 996 l 161 1017 q 222 1114 179 1075 q 313 1153 264 1153 q 368 1141 346 1153 q 409 1117 390 1129 q 450 1106 428 1106 q 490 1123 472 1106 q 515 1174 507 1140 l 601 1153 q 541 1044 583 1086 q 450 1003 499 1003 q 389 1015 411 1003 q 351 1038 367 1026 q 313 1049 335 1049 q 273 1035 290 1049 q 247 996 256 1022 z "},"ä":{"ha":756,"x_min":28,"x_max":728,"o":"m 28 0 l 282 657 l 472 657 l 728 0 l 560 0 l 353 588 l 393 588 l 197 0 l 28 0 m 165 178 l 203 296 l 517 296 l 572 178 l 165 178 m 240 749 q 173 774 199 749 q 147 839 147 800 q 173 906 147 881 q 240 932 199 932 q 308 906 282 932 q 333 839 333 881 q 308 774 333 800 q 240 749 282 749 m 515 749 q 446 774 472 749 q 419 839 419 800 q 446 906 419 881 q 515 932 472 932 q 581 906 556 932 q 607 839 607 881 q 581 774 607 800 q 515 749 556 749 z "},"ạ":{"ha":756,"x_min":28,"x_max":728,"o":"m 28 0 l 282 657 l 472 657 l 728 0 l 560 0 l 353 588 l 393 588 l 197 0 l 28 0 m 165 178 l 203 296 l 517 296 l 572 178 l 165 178 m 378 -314 q 304 -287 332 -314 q 276 -217 276 -261 q 304 -145 276 -172 q 378 -118 332 -118 q 450 -145 422 -118 q 478 -217 478 -172 q 450 -287 478 -261 q 378 -314 422 -314 z "},"à":{"ha":756,"x_min":28,"x_max":728,"o":"m 28 0 l 282 657 l 472 657 l 728 0 l 560 0 l 353 588 l 393 588 l 197 0 l 28 0 m 165 178 l 203 296 l 517 296 l 572 178 l 165 178 m 342 729 l 179 974 l 365 974 l 461 729 l 342 729 z "},"ả":{"ha":756,"x_min":28,"x_max":728,"o":"m 28 0 l 282 657 l 472 657 l 728 0 l 560 0 l 353 588 l 393 588 l 197 0 l 28 0 m 165 178 l 203 296 l 517 296 l 572 178 l 165 178 m 314 714 l 311 825 q 385 838 360 825 q 411 871 411 850 q 398 904 411 893 q 360 915 385 915 q 320 910 342 915 q 283 892 299 904 l 233 953 q 316 997 274 985 q 392 1008 358 1008 q 514 973 468 1008 q 560 889 560 938 q 512 804 560 838 q 379 771 464 771 l 447 822 l 447 714 l 314 714 z "},"ɑ":{"ha":756,"x_min":28,"x_max":728,"o":"m 28 0 l 282 657 l 472 657 l 728 0 l 560 0 l 353 588 l 393 588 l 197 0 l 28 0 m 165 178 l 203 296 l 517 296 l 572 178 l 165 178 z "},"ā":{"ha":756,"x_min":28,"x_max":728,"o":"m 28 0 l 282 657 l 472 657 l 728 0 l 560 0 l 353 588 l 393 588 l 197 0 l 28 0 m 165 178 l 203 296 l 517 296 l 572 178 l 165 178 m 193 779 l 193 893 l 561 893 l 561 779 l 193 779 z "},"ą":{"ha":756,"x_min":28,"x_max":772,"o":"m 28 0 l 282 657 l 472 657 l 728 0 l 560 0 l 353 588 l 393 588 l 197 0 l 28 0 m 165 178 l 203 296 l 517 296 l 572 178 l 165 178 m 615 50 l 728 0 q 620 -84 656 -37 q 585 -187 585 -131 q 605 -260 585 -226 q 676 -294 625 -294 q 703 -292 688 -294 q 735 -283 719 -289 l 772 -360 q 703 -391 739 -381 q 625 -401 668 -401 q 480 -353 531 -401 q 429 -226 429 -306 q 474 -83 429 -156 q 615 50 518 -10 z "},"å":{"ha":756,"x_min":28,"x_max":728,"o":"m 28 0 l 282 657 l 472 657 l 728 0 l 560 0 l 353 588 l 393 588 l 197 0 l 28 0 m 165 178 l 203 296 l 517 296 l 572 178 l 165 178 m 376 697 q 289 715 328 697 q 228 765 250 733 q 206 838 206 797 q 228 908 206 878 q 290 957 251 939 q 381 975 329 975 q 469 956 431 975 q 528 906 507 938 q 550 835 550 875 q 527 765 550 796 q 465 715 504 733 q 376 697 426 697 m 379 757 q 415 778 401 757 q 429 835 429 800 q 415 892 429 871 q 378 914 401 914 q 341 893 356 914 q 326 838 326 872 q 342 779 326 801 q 379 757 357 757 z "},"ǻ":{"ha":756,"x_min":28,"x_max":728,"o":"m 28 0 l 282 657 l 472 657 l 728 0 l 560 0 l 353 588 l 393 588 l 197 0 l 28 0 m 165 178 l 203 296 l 517 296 l 572 178 l 165 178 m 215 954 l 181 1032 l 511 1210 l 567 1082 l 215 954 m 369 690 q 244 728 293 690 q 194 821 194 765 q 245 911 194 875 q 374 947 296 947 q 499 910 450 947 q 547 818 547 874 q 497 726 547 763 q 369 690 447 690 m 372 753 q 410 770 396 753 q 424 818 424 788 q 409 867 424 849 q 371 885 394 885 q 333 867 347 885 q 318 821 318 850 q 333 772 318 790 q 372 753 349 753 z "},"ã":{"ha":756,"x_min":28,"x_max":728,"o":"m 28 0 l 282 657 l 472 657 l 728 0 l 560 0 l 353 588 l 393 588 l 197 0 l 28 0 m 165 178 l 203 296 l 517 296 l 572 178 l 165 178 m 214 719 l 128 740 q 194 854 149 808 q 294 900 240 900 q 347 896 318 900 q 405 887 375 892 q 461 882 435 882 q 509 899 488 882 q 540 949 531 917 l 628 929 q 560 803 607 851 q 461 754 514 754 q 403 759 432 754 q 347 768 374 764 q 294 772 319 772 q 247 758 268 772 q 214 719 225 744 z "},"æ":{"ha":1000,"x_min":0,"x_max":947,"o":"m 0 0 l 413 654 l 543 654 l 183 0 l 0 0 m 221 183 l 288 301 l 560 301 l 560 183 l 221 183 m 492 0 l 492 654 l 914 654 l 914 529 l 636 529 l 636 126 l 947 126 l 947 0 l 492 0 m 560 267 l 560 385 l 874 385 l 874 267 l 560 267 z "},"ǽ":{"ha":1000,"x_min":0,"x_max":947,"o":"m 0 0 l 413 654 l 543 654 l 183 0 l 0 0 m 221 183 l 288 301 l 560 301 l 560 183 l 221 183 m 492 0 l 492 654 l 914 654 l 914 529 l 636 529 l 636 126 l 947 126 l 947 0 l 492 0 m 560 267 l 560 385 l 874 385 l 874 267 l 560 267 m 514 729 l 610 974 l 796 974 l 633 729 l 514 729 z "},"ǣ":{"ha":1000,"x_min":0,"x_max":947,"o":"m 0 0 l 413 654 l 543 654 l 183 0 l 0 0 m 221 183 l 288 301 l 560 301 l 560 183 l 221 183 m 492 0 l 492 654 l 914 654 l 914 529 l 636 529 l 636 126 l 947 126 l 947 0 l 492 0 m 560 267 l 560 385 l 874 385 l 874 267 l 560 267 m 413 779 l 413 893 l 781 893 l 781 779 l 413 779 z "},"b":{"ha":717,"x_min":111,"x_max":669,"o":"m 111 0 l 111 657 l 410 657 q 559 611 500 657 q 618 494 618 565 q 586 399 618 444 q 501 323 554 353 q 385 293 449 293 l 414 389 q 547 365 489 389 q 637 300 604 342 q 669 203 669 258 q 638 99 669 146 q 548 26 606 53 q 410 0 490 0 l 111 0 m 260 122 l 415 122 q 489 145 464 122 q 514 203 514 168 q 483 259 514 238 q 375 281 451 281 l 222 281 l 222 400 l 404 400 q 453 419 433 400 q 472 467 472 438 q 455 511 472 488 q 389 535 438 535 l 260 535 l 260 122 z "},"c":{"ha":703,"x_min":64,"x_max":672,"o":"m 425 -10 q 234 35 315 -10 q 108 155 153 79 q 64 321 64 231 q 110 495 64 417 q 238 620 157 574 q 425 667 319 667 q 559 644 496 667 q 672 582 622 622 l 567 469 q 497 526 539 506 q 410 546 454 546 q 321 521 360 546 q 260 449 282 496 q 239 336 239 403 q 263 220 239 269 q 333 143 286 171 q 446 115 379 115 q 528 129 492 115 q 588 169 565 143 l 667 64 q 558 10 619 29 q 425 -10 496 -10 z "},"ć":{"ha":703,"x_min":64,"x_max":672,"o":"m 425 -10 q 234 35 315 -10 q 108 155 153 79 q 64 321 64 231 q 110 495 64 417 q 238 620 157 574 q 425 667 319 667 q 559 644 496 667 q 672 582 622 622 l 567 469 q 497 526 539 506 q 410 546 454 546 q 321 521 360 546 q 260 449 282 496 q 239 336 239 403 q 263 220 239 269 q 333 143 286 171 q 446 115 379 115 q 528 129 492 115 q 588 169 565 143 l 667 64 q 558 10 619 29 q 425 -10 496 -10 m 322 729 l 418 974 l 604 974 l 442 729 l 322 729 z "},"č":{"ha":703,"x_min":64,"x_max":672,"o":"m 425 -10 q 234 35 315 -10 q 108 155 153 79 q 64 321 64 231 q 110 495 64 417 q 238 620 157 574 q 425 667 319 667 q 559 644 496 667 q 672 582 622 622 l 567 469 q 497 526 539 506 q 410 546 454 546 q 321 521 360 546 q 260 449 282 496 q 239 336 239 403 q 263 220 239 269 q 333 143 286 171 q 446 115 379 115 q 528 129 492 115 q 588 169 565 143 l 667 64 q 558 10 619 29 q 425 -10 496 -10 m 350 729 l 379 826 l 499 974 l 615 974 l 460 729 l 350 729 m 350 729 l 194 974 l 311 974 l 432 824 l 460 729 l 350 729 z "},"ç":{"ha":703,"x_min":64,"x_max":672,"o":"m 425 -10 q 234 35 315 -10 q 108 155 153 79 q 64 321 64 231 q 110 495 64 417 q 238 620 157 574 q 425 667 319 667 q 559 644 496 667 q 672 582 622 622 l 567 469 q 497 526 539 506 q 410 546 454 546 q 321 521 360 546 q 260 449 282 496 q 239 336 239 403 q 263 220 239 269 q 333 143 286 171 q 446 115 379 115 q 528 129 492 115 q 588 169 565 143 l 667 64 q 558 10 619 29 q 425 -10 496 -10 m 354 0 l 447 0 l 413 -128 l 347 -107 q 381 -90 361 -96 q 428 -85 401 -85 q 541 -123 497 -85 q 585 -225 585 -161 q 533 -332 585 -292 q 396 -372 482 -372 q 315 -361 353 -372 q 247 -328 278 -350 l 276 -250 q 324 -272 296 -264 q 379 -281 353 -281 q 435 -262 418 -281 q 451 -222 451 -243 q 424 -176 451 -193 q 358 -158 397 -158 q 331 -160 344 -158 q 301 -167 317 -162 l 354 0 z "},"ĉ":{"ha":703,"x_min":64,"x_max":672,"o":"m 425 -10 q 234 35 315 -10 q 108 155 153 79 q 64 321 64 231 q 110 495 64 417 q 238 620 157 574 q 425 667 319 667 q 559 644 496 667 q 672 582 622 622 l 567 469 q 497 526 539 506 q 410 546 454 546 q 321 521 360 546 q 260 449 282 496 q 239 336 239 403 q 263 220 239 269 q 333 143 286 171 q 446 115 379 115 q 528 129 492 115 q 588 169 565 143 l 667 64 q 558 10 619 29 q 425 -10 496 -10 m 499 729 l 379 876 l 350 974 l 460 974 l 615 729 l 499 729 m 194 729 l 350 974 l 460 974 l 432 879 l 311 729 l 194 729 z "},"ċ":{"ha":703,"x_min":64,"x_max":672,"o":"m 425 -10 q 234 35 315 -10 q 108 155 153 79 q 64 321 64 231 q 110 495 64 417 q 238 620 157 574 q 425 667 319 667 q 559 644 496 667 q 672 582 622 622 l 567 469 q 497 526 539 506 q 410 546 454 546 q 321 521 360 546 q 260 449 282 496 q 239 336 239 403 q 263 220 239 269 q 333 143 286 171 q 446 115 379 115 q 528 129 492 115 q 588 169 565 143 l 667 64 q 558 10 619 29 q 425 -10 496 -10 m 406 758 q 332 785 360 758 q 304 856 304 811 q 332 927 304 900 q 406 954 360 954 q 478 927 450 954 q 506 856 506 900 q 478 785 506 811 q 406 758 450 758 z "},"d":{"ha":797,"x_min":111,"x_max":732,"o":"m 325 0 l 111 0 l 111 657 l 342 657 q 542 617 454 657 q 681 505 631 576 q 732 338 732 433 q 679 165 732 242 q 535 44 626 89 q 325 0 443 0 m 563 315 q 535 432 563 385 q 452 503 507 479 q 318 528 397 528 l 274 528 l 274 129 l 340 129 q 462 149 413 129 q 537 210 511 168 q 563 315 563 251 z "},"ð":{"ha":797,"x_min":13,"x_max":732,"o":"m 111 0 l 111 657 l 342 657 q 542 617 454 657 q 681 505 631 576 q 732 338 732 433 q 679 165 732 242 q 535 44 626 89 q 325 0 443 0 l 111 0 m 13 272 l 13 386 l 408 386 l 408 272 l 13 272 m 274 129 l 340 129 q 462 149 413 129 q 537 210 511 168 q 563 315 563 251 q 535 432 563 385 q 452 503 507 479 q 318 528 397 528 l 274 528 l 274 129 z "},"ď":{"ha":797,"x_min":111,"x_max":732,"o":"m 325 0 l 111 0 l 111 657 l 342 657 q 542 617 454 657 q 681 505 631 576 q 732 338 732 433 q 679 165 732 242 q 535 44 626 89 q 325 0 443 0 m 563 315 q 535 432 563 385 q 452 503 507 479 q 318 528 397 528 l 274 528 l 274 129 l 340 129 q 462 149 413 129 q 537 210 511 168 q 563 315 563 251 m 315 729 l 344 826 l 464 974 l 581 974 l 425 729 l 315 729 m 315 729 l 160 974 l 276 974 l 397 824 l 425 729 l 315 729 z "},"đ":{"ha":797,"x_min":13,"x_max":732,"o":"m 111 0 l 111 657 l 342 657 q 542 617 454 657 q 681 505 631 576 q 732 338 732 433 q 679 165 732 242 q 535 44 626 89 q 325 0 443 0 l 111 0 m 13 272 l 13 386 l 408 386 l 408 272 l 13 272 m 274 129 l 340 129 q 462 149 413 129 q 537 210 511 168 q 563 315 563 251 q 535 432 563 385 q 452 503 507 479 q 318 528 397 528 l 274 528 l 274 129 z "},"ḍ":{"ha":797,"x_min":111,"x_max":732,"o":"m 325 0 l 111 0 l 111 657 l 342 657 q 542 617 454 657 q 681 505 631 576 q 732 338 732 433 q 679 165 732 242 q 535 44 626 89 q 325 0 443 0 m 563 315 q 535 432 563 385 q 452 503 507 479 q 318 528 397 528 l 274 528 l 274 129 l 340 129 q 462 149 413 129 q 537 210 511 168 q 563 315 563 251 m 399 -314 q 325 -287 353 -314 q 297 -217 297 -261 q 325 -145 297 -172 q 399 -118 353 -118 q 471 -145 443 -118 q 499 -217 499 -172 q 471 -287 499 -261 q 399 -314 443 -314 z "},"ḏ":{"ha":797,"x_min":111,"x_max":732,"o":"m 325 0 l 111 0 l 111 657 l 342 657 q 542 617 454 657 q 681 505 631 576 q 732 338 732 433 q 679 165 732 242 q 535 44 626 89 q 325 0 443 0 m 563 315 q 535 432 563 385 q 452 503 507 479 q 318 528 397 528 l 274 528 l 274 129 l 340 129 q 462 149 413 129 q 537 210 511 168 q 563 315 563 251 m 214 -237 l 214 -124 l 582 -124 l 582 -237 l 214 -237 z "},"e":{"ha":682,"x_min":111,"x_max":629,"o":"m 111 0 l 111 657 l 269 657 l 269 0 l 111 0 m 164 0 l 164 125 l 629 125 l 629 0 l 164 0 m 164 268 l 164 392 l 546 392 l 546 268 l 164 268 m 164 532 l 164 657 l 601 657 l 601 532 l 164 532 z "},"é":{"ha":682,"x_min":111,"x_max":629,"o":"m 111 0 l 111 657 l 269 657 l 269 0 l 111 0 m 164 0 l 164 125 l 629 125 l 629 0 l 164 0 m 164 268 l 164 392 l 546 392 l 546 268 l 164 268 m 164 532 l 164 657 l 601 657 l 601 532 l 164 532 m 279 729 l 375 974 l 561 974 l 399 729 l 279 729 z "},"ĕ":{"ha":682,"x_min":111,"x_max":629,"o":"m 111 0 l 111 657 l 269 657 l 269 0 l 111 0 m 164 0 l 164 125 l 629 125 l 629 0 l 164 0 m 164 268 l 164 392 l 546 392 l 546 268 l 164 268 m 164 532 l 164 657 l 601 657 l 601 532 l 164 532 m 363 722 q 218 779 275 722 q 143 939 161 836 l 231 953 q 278 878 242 906 q 363 851 314 851 q 448 878 411 851 q 494 953 485 906 l 582 939 q 507 779 564 836 q 363 722 450 722 z "},"ě":{"ha":682,"x_min":111,"x_max":629,"o":"m 111 0 l 111 657 l 269 657 l 269 0 l 111 0 m 164 0 l 164 125 l 629 125 l 629 0 l 164 0 m 164 268 l 164 392 l 546 392 l 546 268 l 164 268 m 164 532 l 164 657 l 601 657 l 601 532 l 164 532 m 307 729 l 336 826 l 456 974 l 572 974 l 417 729 l 307 729 m 307 729 l 151 974 l 268 974 l 389 824 l 417 729 l 307 729 z "},"ê":{"ha":682,"x_min":111,"x_max":629,"o":"m 111 0 l 111 657 l 269 657 l 269 0 l 111 0 m 164 0 l 164 125 l 629 125 l 629 0 l 164 0 m 164 268 l 164 392 l 546 392 l 546 268 l 164 268 m 164 532 l 164 657 l 601 657 l 601 532 l 164 532 m 456 729 l 336 876 l 307 974 l 417 974 l 572 729 l 456 729 m 151 729 l 307 974 l 417 974 l 389 879 l 268 729 l 151 729 z "},"ế":{"ha":682,"x_min":107,"x_max":768,"o":"m 111 0 l 111 657 l 269 657 l 269 0 l 111 0 m 164 0 l 164 125 l 629 125 l 629 0 l 164 0 m 164 268 l 164 392 l 546 392 l 546 268 l 164 268 m 164 532 l 164 657 l 601 657 l 601 532 l 164 532 m 460 729 l 319 869 l 290 974 l 400 974 l 583 729 l 460 729 m 107 729 l 290 974 l 400 974 l 372 872 l 231 729 l 107 729 m 510 863 l 603 1079 l 768 1079 l 621 863 l 510 863 z "},"ệ":{"ha":682,"x_min":111,"x_max":629,"o":"m 111 0 l 111 657 l 269 657 l 269 0 l 111 0 m 164 0 l 164 125 l 629 125 l 629 0 l 164 0 m 164 268 l 164 392 l 546 392 l 546 268 l 164 268 m 164 532 l 164 657 l 601 657 l 601 532 l 164 532 m 342 -314 q 268 -287 296 -314 q 240 -217 240 -261 q 268 -145 240 -172 q 342 -118 296 -118 q 414 -145 386 -118 q 442 -217 442 -172 q 414 -287 442 -261 q 342 -314 386 -314 m 456 729 l 336 876 l 307 974 l 417 974 l 572 729 l 456 729 m 151 729 l 307 974 l 417 974 l 389 879 l 268 729 l 151 729 z "},"ề":{"ha":682,"x_min":107,"x_max":685,"o":"m 111 0 l 111 657 l 269 657 l 269 0 l 111 0 m 164 0 l 164 125 l 629 125 l 629 0 l 164 0 m 164 268 l 164 392 l 546 392 l 546 268 l 164 268 m 164 532 l 164 657 l 601 657 l 601 532 l 164 532 m 460 729 l 319 869 l 290 974 l 400 974 l 583 729 l 460 729 m 107 729 l 290 974 l 400 974 l 372 872 l 231 729 l 107 729 m 574 863 l 426 1079 l 592 1079 l 685 863 l 574 863 z "},"ể":{"ha":682,"x_min":111,"x_max":726,"o":"m 111 0 l 111 657 l 269 657 l 269 0 l 111 0 m 164 0 l 164 125 l 629 125 l 629 0 l 164 0 m 164 268 l 164 392 l 546 392 l 546 268 l 164 268 m 164 532 l 164 657 l 601 657 l 601 532 l 164 532 m 478 729 l 338 869 l 308 974 l 418 974 l 601 729 l 478 729 m 125 729 l 308 974 l 418 974 l 390 872 l 249 729 l 125 729 m 538 863 l 535 944 q 592 959 563 944 q 621 997 621 974 q 608 1024 621 1013 q 569 1036 594 1036 q 538 1030 556 1036 q 507 1013 519 1024 l 482 1057 q 548 1101 514 1090 q 608 1113 582 1113 q 694 1083 661 1113 q 726 1010 726 1053 q 690 935 726 964 q 589 906 654 906 l 626 942 l 626 863 l 538 863 z "},"ễ":{"ha":682,"x_min":111,"x_max":629,"o":"m 111 0 l 111 657 l 269 657 l 269 0 l 111 0 m 164 0 l 164 125 l 629 125 l 629 0 l 164 0 m 164 268 l 164 392 l 546 392 l 546 268 l 164 268 m 164 532 l 164 657 l 601 657 l 601 532 l 164 532 m 476 715 l 336 856 l 307 960 l 417 960 l 600 715 l 476 715 m 124 715 l 307 960 l 417 960 l 389 858 l 247 715 l 124 715 m 232 996 l 146 1017 q 206 1114 164 1075 q 297 1153 249 1153 q 353 1141 331 1153 q 394 1117 375 1129 q 435 1106 413 1106 q 474 1123 457 1106 q 500 1174 492 1140 l 586 1153 q 526 1044 568 1086 q 435 1003 483 1003 q 374 1015 396 1003 q 335 1038 351 1026 q 297 1049 319 1049 q 258 1035 275 1049 q 232 996 240 1022 z "},"ë":{"ha":682,"x_min":111,"x_max":629,"o":"m 111 0 l 111 657 l 269 657 l 269 0 l 111 0 m 164 0 l 164 125 l 629 125 l 629 0 l 164 0 m 164 268 l 164 392 l 546 392 l 546 268 l 164 268 m 164 532 l 164 657 l 601 657 l 601 532 l 164 532 m 225 749 q 158 774 183 749 q 132 839 132 800 q 158 906 132 881 q 225 932 183 932 q 292 906 267 932 q 318 839 318 881 q 292 774 318 800 q 225 749 267 749 m 500 749 q 431 774 457 749 q 404 839 404 800 q 431 906 404 881 q 500 932 457 932 q 566 906 540 932 q 592 839 592 881 q 566 774 592 800 q 500 749 540 749 z "},"ė":{"ha":682,"x_min":111,"x_max":629,"o":"m 111 0 l 111 657 l 269 657 l 269 0 l 111 0 m 164 0 l 164 125 l 629 125 l 629 0 l 164 0 m 164 268 l 164 392 l 546 392 l 546 268 l 164 268 m 164 532 l 164 657 l 601 657 l 601 532 l 164 532 m 363 758 q 289 785 317 758 q 261 856 261 811 q 289 927 261 900 q 363 954 317 954 q 435 927 407 954 q 463 856 463 900 q 435 785 463 811 q 363 758 407 758 z "},"ẹ":{"ha":682,"x_min":111,"x_max":629,"o":"m 111 0 l 111 657 l 269 657 l 269 0 l 111 0 m 164 0 l 164 125 l 629 125 l 629 0 l 164 0 m 164 268 l 164 392 l 546 392 l 546 268 l 164 268 m 164 532 l 164 657 l 601 657 l 601 532 l 164 532 m 342 -314 q 268 -287 296 -314 q 240 -217 240 -261 q 268 -145 240 -172 q 342 -118 296 -118 q 414 -145 386 -118 q 442 -217 442 -172 q 414 -287 442 -261 q 342 -314 386 -314 z "},"è":{"ha":682,"x_min":111,"x_max":629,"o":"m 111 0 l 111 657 l 269 657 l 269 0 l 111 0 m 164 0 l 164 125 l 629 125 l 629 0 l 164 0 m 164 268 l 164 392 l 546 392 l 546 268 l 164 268 m 164 532 l 164 657 l 601 657 l 601 532 l 164 532 m 326 729 l 164 974 l 350 974 l 446 729 l 326 729 z "},"ẻ":{"ha":682,"x_min":111,"x_max":629,"o":"m 111 0 l 111 657 l 269 657 l 269 0 l 111 0 m 164 0 l 164 125 l 629 125 l 629 0 l 164 0 m 164 268 l 164 392 l 546 392 l 546 268 l 164 268 m 164 532 l 164 657 l 601 657 l 601 532 l 164 532 m 299 714 l 296 825 q 370 838 344 825 q 396 871 396 850 q 383 904 396 893 q 344 915 369 915 q 305 910 326 915 q 268 892 283 904 l 218 953 q 301 997 258 985 q 376 1008 343 1008 q 499 973 453 1008 q 544 889 544 938 q 497 804 544 838 q 364 771 449 771 l 432 822 l 432 714 l 299 714 z "},"ē":{"ha":682,"x_min":111,"x_max":629,"o":"m 111 0 l 111 657 l 269 657 l 269 0 l 111 0 m 164 0 l 164 125 l 629 125 l 629 0 l 164 0 m 164 268 l 164 392 l 546 392 l 546 268 l 164 268 m 164 532 l 164 657 l 601 657 l 601 532 l 164 532 m 178 779 l 178 893 l 546 893 l 546 779 l 178 779 z "},"ę":{"ha":682,"x_min":111,"x_max":674,"o":"m 111 0 l 111 657 l 269 657 l 269 0 l 111 0 m 164 0 l 164 125 l 629 125 l 629 0 l 164 0 m 164 268 l 164 392 l 546 392 l 546 268 l 164 268 m 164 532 l 164 657 l 601 657 l 601 532 l 164 532 m 517 50 l 629 0 q 522 -84 557 -37 q 486 -187 486 -131 q 506 -260 486 -226 q 578 -294 526 -294 q 605 -292 589 -294 q 636 -283 621 -289 l 674 -360 q 605 -391 640 -381 q 526 -401 569 -401 q 381 -353 432 -401 q 331 -226 331 -306 q 375 -83 331 -156 q 517 50 419 -10 z "},"ẽ":{"ha":682,"x_min":111,"x_max":629,"o":"m 111 0 l 111 657 l 269 657 l 269 0 l 111 0 m 164 0 l 164 125 l 629 125 l 629 0 l 164 0 m 164 268 l 164 392 l 546 392 l 546 268 l 164 268 m 164 532 l 164 657 l 601 657 l 601 532 l 164 532 m 199 719 l 113 740 q 179 854 133 808 q 279 900 225 900 q 331 896 303 900 q 390 887 360 892 q 446 882 419 882 q 494 899 472 882 q 525 949 515 917 l 613 929 q 545 803 592 851 q 446 754 499 754 q 388 759 417 754 q 331 768 358 764 q 279 772 304 772 q 231 758 253 772 q 199 719 210 744 z "},"ə":{"ha":775,"x_min":64,"x_max":710,"o":"m 363 -10 q 205 26 272 -10 q 101 126 138 61 q 64 278 64 192 q 64 308 64 293 q 64 338 64 322 l 211 338 l 211 296 q 251 150 211 194 q 372 106 290 106 q 469 131 428 106 q 533 202 510 157 q 556 304 556 247 q 528 432 556 378 q 451 515 501 486 q 332 544 401 544 q 242 530 288 544 q 156 483 197 515 l 79 560 q 222 645 149 624 q 360 667 294 667 q 542 626 464 667 q 665 508 621 585 q 710 325 710 432 q 665 151 710 226 q 541 33 619 75 q 363 -10 463 -10 m 88 228 l 88 338 l 626 338 l 608 228 l 88 228 z "},"ʒ":{"ha":643,"x_min":44,"x_max":586,"o":"m 303 -8 q 188 9 240 -8 q 99 58 136 26 q 44 133 63 90 l 182 192 q 236 126 203 149 q 314 104 269 104 q 392 117 365 104 q 430 149 419 129 q 440 192 440 169 q 432 227 440 207 q 398 265 424 247 q 319 293 372 283 q 178 296 267 303 l 160 369 l 481 608 l 529 539 l 75 532 l 75 657 l 574 657 l 572 553 l 281 329 l 253 396 q 438 384 364 404 q 549 322 513 364 q 586 221 586 279 q 548 100 586 151 q 445 20 510 49 q 303 -8 381 -8 z "},"ǯ":{"ha":643,"x_min":44,"x_max":586,"o":"m 303 -8 q 188 9 240 -8 q 99 58 136 26 q 44 133 63 90 l 182 192 q 236 126 203 149 q 314 104 269 104 q 392 117 365 104 q 430 149 419 129 q 440 192 440 169 q 432 227 440 207 q 398 265 424 247 q 319 293 372 283 q 178 296 267 303 l 160 369 l 481 608 l 529 539 l 75 532 l 75 657 l 574 657 l 572 553 l 281 329 l 253 396 q 438 384 364 404 q 549 322 513 364 q 586 221 586 279 q 548 100 586 151 q 445 20 510 49 q 303 -8 381 -8 m 267 729 l 296 826 l 415 974 l 532 974 l 376 729 l 267 729 m 267 729 l 111 974 l 228 974 l 349 824 l 376 729 l 267 729 z "},"f":{"ha":657,"x_min":111,"x_max":603,"o":"m 111 0 l 111 657 l 269 657 l 269 0 l 111 0 m 164 253 l 164 379 l 547 379 l 547 253 l 164 253 m 164 531 l 164 657 l 603 657 l 603 531 l 164 531 z "},"g":{"ha":767,"x_min":64,"x_max":690,"o":"m 429 -10 q 231 32 313 -10 q 107 147 150 74 q 64 317 64 221 q 97 469 64 404 q 183 578 129 535 q 304 644 238 622 q 438 667 371 667 q 565 647 499 667 q 686 585 631 628 l 597 478 q 503 531 553 514 q 411 549 453 549 q 327 527 368 549 q 260 460 286 506 q 235 338 235 414 q 260 212 235 265 q 334 129 285 158 q 456 100 383 100 q 539 109 496 100 q 618 135 582 118 l 554 43 l 554 251 l 426 251 l 426 361 l 690 361 l 690 42 q 606 12 651 24 q 515 -5 560 0 q 429 -10 469 -10 z "},"ğ":{"ha":767,"x_min":64,"x_max":690,"o":"m 429 -10 q 231 32 313 -10 q 107 147 150 74 q 64 317 64 221 q 97 469 64 404 q 183 578 129 535 q 304 644 238 622 q 438 667 371 667 q 565 647 499 667 q 686 585 631 628 l 597 478 q 503 531 553 514 q 411 549 453 549 q 327 527 368 549 q 260 460 286 506 q 235 338 235 414 q 260 212 235 265 q 334 129 285 158 q 456 100 383 100 q 539 109 496 100 q 618 135 582 118 l 554 43 l 554 251 l 426 251 l 426 361 l 690 361 l 690 42 q 606 12 651 24 q 515 -5 560 0 q 429 -10 469 -10 m 418 722 q 274 779 331 722 q 199 939 217 836 l 286 953 q 333 878 297 906 q 418 851 369 851 q 503 878 467 851 q 550 953 540 906 l 638 939 q 563 779 619 836 q 418 722 506 722 z "},"ǧ":{"ha":767,"x_min":64,"x_max":690,"o":"m 429 -10 q 231 32 313 -10 q 107 147 150 74 q 64 317 64 221 q 97 469 64 404 q 183 578 129 535 q 304 644 238 622 q 438 667 371 667 q 565 647 499 667 q 686 585 631 628 l 597 478 q 503 531 553 514 q 411 549 453 549 q 327 527 368 549 q 260 460 286 506 q 235 338 235 414 q 260 212 235 265 q 334 129 285 158 q 456 100 383 100 q 539 109 496 100 q 618 135 582 118 l 554 43 l 554 251 l 426 251 l 426 361 l 690 361 l 690 42 q 606 12 651 24 q 515 -5 560 0 q 429 -10 469 -10 m 363 729 l 392 826 l 511 974 l 628 974 l 472 729 l 363 729 m 363 729 l 207 974 l 324 974 l 444 824 l 472 729 l 363 729 z "},"ĝ":{"ha":767,"x_min":64,"x_max":690,"o":"m 429 -10 q 231 32 313 -10 q 107 147 150 74 q 64 317 64 221 q 97 469 64 404 q 183 578 129 535 q 304 644 238 622 q 438 667 371 667 q 565 647 499 667 q 686 585 631 628 l 597 478 q 503 531 553 514 q 411 549 453 549 q 327 527 368 549 q 260 460 286 506 q 235 338 235 414 q 260 212 235 265 q 334 129 285 158 q 456 100 383 100 q 539 109 496 100 q 618 135 582 118 l 554 43 l 554 251 l 426 251 l 426 361 l 690 361 l 690 42 q 606 12 651 24 q 515 -5 560 0 q 429 -10 469 -10 m 511 729 l 392 876 l 363 974 l 472 974 l 628 729 l 511 729 m 207 729 l 363 974 l 472 974 l 444 879 l 324 729 l 207 729 z "},"ģ":{"ha":767,"x_min":64,"x_max":690,"o":"m 429 -10 q 231 32 313 -10 q 107 147 150 74 q 64 317 64 221 q 97 469 64 404 q 183 578 129 535 q 304 644 238 622 q 438 667 371 667 q 565 647 499 667 q 686 585 631 628 l 597 478 q 503 531 553 514 q 411 549 453 549 q 327 527 368 549 q 260 460 286 506 q 235 338 235 414 q 260 212 235 265 q 334 129 285 158 q 456 100 383 100 q 539 109 496 100 q 618 135 582 118 l 554 43 l 554 251 l 426 251 l 426 361 l 690 361 l 690 42 q 606 12 651 24 q 515 -5 560 0 q 429 -10 469 -10 m 376 -429 l 315 -379 q 349 -317 338 -351 q 360 -250 360 -283 q 351 -192 360 -218 q 328 -153 343 -167 l 443 -68 q 494 -129 478 -93 q 510 -206 510 -165 q 474 -333 510 -269 q 376 -429 438 -397 z "},"ġ":{"ha":767,"x_min":64,"x_max":690,"o":"m 429 -10 q 231 32 313 -10 q 107 147 150 74 q 64 317 64 221 q 97 469 64 404 q 183 578 129 535 q 304 644 238 622 q 438 667 371 667 q 565 647 499 667 q 686 585 631 628 l 597 478 q 503 531 553 514 q 411 549 453 549 q 327 527 368 549 q 260 460 286 506 q 235 338 235 414 q 260 212 235 265 q 334 129 285 158 q 456 100 383 100 q 539 109 496 100 q 618 135 582 118 l 554 43 l 554 251 l 426 251 l 426 361 l 690 361 l 690 42 q 606 12 651 24 q 515 -5 560 0 q 429 -10 469 -10 m 418 758 q 344 785 372 758 q 317 856 317 811 q 344 927 317 900 q 418 954 372 954 q 490 927 463 954 q 518 856 518 900 q 490 785 518 811 q 418 758 463 758 z "},"ḡ":{"ha":767,"x_min":64,"x_max":690,"o":"m 429 -10 q 231 32 313 -10 q 107 147 150 74 q 64 317 64 221 q 97 469 64 404 q 183 578 129 535 q 304 644 238 622 q 438 667 371 667 q 565 647 499 667 q 686 585 631 628 l 597 478 q 503 531 553 514 q 411 549 453 549 q 327 527 368 549 q 260 460 286 506 q 235 338 235 414 q 260 212 235 265 q 334 129 285 158 q 456 100 383 100 q 539 109 496 100 q 618 135 582 118 l 554 43 l 554 251 l 426 251 l 426 361 l 690 361 l 690 42 q 606 12 651 24 q 515 -5 560 0 q 429 -10 469 -10 m 233 779 l 233 893 l 601 893 l 601 779 l 233 779 z "},"ɡ":{"ha":767,"x_min":64,"x_max":690,"o":"m 429 -10 q 231 32 313 -10 q 107 147 150 74 q 64 317 64 221 q 97 469 64 404 q 183 578 129 535 q 304 644 238 622 q 438 667 371 667 q 565 647 499 667 q 686 585 631 628 l 597 478 q 503 531 553 514 q 411 549 453 549 q 327 527 368 549 q 260 460 286 506 q 235 338 235 414 q 260 212 235 265 q 334 129 285 158 q 456 100 383 100 q 539 109 496 100 q 618 135 582 118 l 554 43 l 554 251 l 426 251 l 426 361 l 690 361 l 690 42 q 606 12 651 24 q 515 -5 560 0 q 429 -10 469 -10 z "},"ǥ":{"ha":767,"x_min":64,"x_max":749,"o":"m 429 -10 q 231 32 313 -10 q 107 147 150 74 q 64 317 64 221 q 97 469 64 404 q 183 578 129 535 q 304 644 238 622 q 438 667 371 667 q 565 647 499 667 q 686 585 631 628 l 597 478 q 503 531 553 514 q 411 549 453 549 q 327 527 368 549 q 260 460 286 506 q 235 338 235 414 q 260 212 235 265 q 334 129 285 158 q 456 100 383 100 q 539 109 496 100 q 618 135 582 118 l 554 43 l 554 389 l 690 389 l 690 42 q 606 12 651 24 q 515 -5 560 0 q 429 -10 469 -10 m 400 192 l 400 306 l 749 306 l 749 192 l 400 192 z "},"h":{"ha":843,"x_min":111,"x_max":732,"o":"m 568 0 l 568 657 l 732 657 l 732 0 l 568 0 m 111 0 l 111 657 l 275 657 l 275 0 l 111 0 m 164 281 l 164 410 l 678 410 l 678 281 l 164 281 z "},"ħ":{"ha":843,"x_min":111,"x_max":732,"o":"m 568 0 l 568 657 l 732 657 l 732 0 l 568 0 m 111 0 l 111 657 l 275 657 l 275 0 l 111 0 m 164 156 l 164 271 l 678 271 l 678 156 l 164 156 m 164 419 l 164 535 l 678 535 l 678 419 l 164 419 z "},"ḫ":{"ha":843,"x_min":111,"x_max":732,"o":"m 568 0 l 568 657 l 732 657 l 732 0 l 568 0 m 111 0 l 111 657 l 275 657 l 275 0 l 111 0 m 164 281 l 164 410 l 678 410 l 678 281 l 164 281 m 422 -324 q 278 -267 335 -324 q 203 -107 221 -210 l 290 -93 q 338 -167 301 -140 q 422 -194 374 -194 q 508 -167 471 -194 q 554 -93 544 -140 l 642 -107 q 567 -267 624 -210 q 422 -324 510 -324 z "},"ĥ":{"ha":843,"x_min":111,"x_max":732,"o":"m 568 0 l 568 657 l 732 657 l 732 0 l 568 0 m 111 0 l 111 657 l 275 657 l 275 0 l 111 0 m 164 281 l 164 410 l 678 410 l 678 281 l 164 281 m 515 729 l 396 876 l 367 974 l 476 974 l 632 729 l 515 729 m 211 729 l 367 974 l 476 974 l 449 879 l 328 729 l 211 729 z "},"ḥ":{"ha":843,"x_min":111,"x_max":732,"o":"m 568 0 l 568 657 l 732 657 l 732 0 l 568 0 m 111 0 l 111 657 l 275 657 l 275 0 l 111 0 m 164 281 l 164 410 l 678 410 l 678 281 l 164 281 m 422 -314 q 349 -287 376 -314 q 321 -217 321 -261 q 349 -145 321 -172 q 422 -118 376 -118 q 494 -145 467 -118 q 522 -217 522 -172 q 494 -287 522 -261 q 422 -314 467 -314 z "},"i":{"ha":403,"x_min":118,"x_max":285,"o":"m 118 0 l 118 657 l 285 657 l 285 0 l 118 0 z "},"ı":{"ha":403,"x_min":118,"x_max":285,"o":"m 118 0 l 118 657 l 285 657 l 285 0 l 118 0 z "},"í":{"ha":403,"x_min":117,"x_max":399,"o":"m 118 0 l 118 657 l 285 657 l 285 0 l 118 0 m 117 729 l 213 974 l 399 974 l 236 729 l 117 729 z "},"ĭ":{"ha":403,"x_min":-19,"x_max":419,"o":"m 118 0 l 118 657 l 285 657 l 285 0 l 118 0 m 200 722 q 56 779 113 722 q -19 939 -1 836 l 68 953 q 115 878 79 906 q 200 851 151 851 q 285 878 249 851 q 332 953 322 906 l 419 939 q 344 779 401 836 q 200 722 288 722 z "},"ǐ":{"ha":403,"x_min":-11,"x_max":410,"o":"m 118 0 l 118 657 l 285 657 l 285 0 l 118 0 m 144 729 l 174 826 l 293 974 l 410 974 l 254 729 l 144 729 m 144 729 l -11 974 l 106 974 l 226 824 l 254 729 l 144 729 z "},"î":{"ha":403,"x_min":-11,"x_max":410,"o":"m 118 0 l 118 657 l 285 657 l 285 0 l 118 0 m 293 729 l 174 876 l 144 974 l 254 974 l 410 729 l 293 729 m -11 729 l 144 974 l 254 974 l 226 879 l 106 729 l -11 729 z "},"ï":{"ha":403,"x_min":-31,"x_max":429,"o":"m 118 0 l 118 657 l 285 657 l 285 0 l 118 0 m 63 749 q -5 774 21 749 q -31 839 -31 800 q -5 906 -31 881 q 63 932 21 932 q 130 906 104 932 q 156 839 156 881 q 130 774 156 800 q 63 749 104 749 m 338 749 q 268 774 294 749 q 242 839 242 800 q 268 906 242 881 q 338 932 294 932 q 403 906 378 932 q 429 839 429 881 q 403 774 429 800 q 338 749 378 749 z "},"ị":{"ha":403,"x_min":99,"x_max":300,"o":"m 118 0 l 118 657 l 285 657 l 285 0 l 118 0 m 200 -314 q 126 -287 154 -314 q 99 -217 99 -261 q 126 -145 99 -172 q 200 -118 154 -118 q 272 -145 244 -118 q 300 -217 300 -172 q 272 -287 300 -261 q 200 -314 244 -314 z "},"ì":{"ha":403,"x_min":1,"x_max":285,"o":"m 118 0 l 118 657 l 285 657 l 285 0 l 118 0 m 164 729 l 1 974 l 188 974 l 283 729 l 164 729 z "},"ỉ":{"ha":403,"x_min":56,"x_max":382,"o":"m 118 0 l 118 657 l 285 657 l 285 0 l 118 0 m 136 714 l 133 825 q 208 838 182 825 q 233 871 233 850 q 220 904 233 893 q 182 915 207 915 q 142 910 164 915 q 106 892 121 904 l 56 953 q 138 997 96 985 q 214 1008 181 1008 q 336 973 290 1008 q 382 889 382 938 q 334 804 382 838 q 201 771 286 771 l 269 822 l 269 714 l 136 714 z "},"ĳ":{"ha":776,"x_min":83,"x_max":693,"o":"m 375 -10 q 221 23 286 -10 q 119 115 156 56 q 83 251 83 174 l 83 288 l 247 288 l 247 279 q 266 188 247 226 q 318 128 285 149 q 397 108 351 108 q 496 146 463 108 q 529 250 529 183 l 529 657 l 693 657 l 693 278 q 653 126 693 192 q 542 26 614 61 q 375 -10 471 -10 m 83 432 l 83 657 l 247 657 l 247 432 l 83 432 z "},"ī":{"ha":403,"x_min":15,"x_max":383,"o":"m 118 0 l 118 657 l 285 657 l 285 0 l 118 0 m 15 779 l 15 893 l 383 893 l 383 779 l 15 779 z "},"į":{"ha":403,"x_min":24,"x_max":389,"o":"m 118 0 l 118 657 l 285 657 l 285 0 l 118 0 m 226 -401 q 75 -352 126 -401 q 24 -221 24 -303 q 58 -83 24 -156 q 167 47 92 -11 l 286 0 q 215 -83 239 -37 q 192 -178 192 -129 q 212 -253 192 -221 q 283 -285 232 -285 q 316 -281 299 -285 q 350 -271 333 -278 l 389 -356 q 313 -390 354 -378 q 226 -401 272 -401 z "},"ĩ":{"ha":403,"x_min":-50,"x_max":450,"o":"m 118 0 l 118 657 l 285 657 l 285 0 l 118 0 m 36 719 l -50 740 q 17 854 -29 808 q 117 900 63 900 q 169 896 140 900 q 227 887 197 892 q 283 882 257 882 q 331 899 310 882 q 363 949 353 917 l 450 929 q 383 803 429 851 q 283 754 336 754 q 225 759 254 754 q 169 768 196 764 q 117 772 142 772 q 69 758 90 772 q 36 719 47 744 z "},"j":{"ha":403,"x_min":-29,"x_max":285,"o":"m 7 -240 l -29 -147 q 60 -101 28 -125 q 105 -33 92 -76 q 118 86 118 10 l 118 657 l 285 657 l 285 86 q 265 -53 285 3 q 208 -146 244 -110 q 119 -204 171 -182 q 7 -240 68 -226 z "},"ĵ":{"ha":403,"x_min":-29,"x_max":411,"o":"m 7 -240 l -29 -147 q 60 -101 28 -125 q 105 -33 92 -76 q 118 86 118 10 l 118 657 l 285 657 l 285 86 q 265 -53 285 3 q 208 -146 244 -110 q 119 -204 171 -182 q 7 -240 68 -226 m 294 729 l 175 876 l 146 974 l 256 974 l 411 729 l 294 729 m -10 729 l 146 974 l 256 974 l 228 879 l 107 729 l -10 729 z "},"k":{"ha":747,"x_min":111,"x_max":749,"o":"m 533 0 l 264 329 l 526 657 l 739 657 l 374 288 l 388 394 l 749 0 l 533 0 m 111 0 l 111 657 l 275 657 l 275 0 l 111 0 z "},"ḱ":{"ha":747,"x_min":111,"x_max":749,"o":"m 533 0 l 264 329 l 526 657 l 739 657 l 374 288 l 388 394 l 749 0 l 533 0 m 111 0 l 111 657 l 275 657 l 275 0 l 111 0 m 331 729 l 426 974 l 613 974 l 450 729 l 331 729 z "},"ǩ":{"ha":747,"x_min":111,"x_max":749,"o":"m 533 0 l 264 329 l 526 657 l 739 657 l 374 288 l 388 394 l 749 0 l 533 0 m 111 0 l 111 657 l 275 657 l 275 0 l 111 0 m 358 729 l 388 826 l 507 974 l 624 974 l 468 729 l 358 729 m 358 729 l 203 974 l 319 974 l 440 824 l 468 729 l 358 729 z "},"ķ":{"ha":747,"x_min":111,"x_max":749,"o":"m 533 0 l 264 329 l 526 657 l 739 657 l 374 288 l 388 394 l 749 0 l 533 0 m 111 0 l 111 657 l 275 657 l 275 0 l 111 0 m 372 -429 l 311 -379 q 344 -317 333 -351 q 356 -250 356 -283 q 347 -192 356 -218 q 324 -153 339 -167 l 439 -68 q 490 -129 474 -93 q 506 -206 506 -165 q 469 -333 506 -269 q 372 -429 433 -397 z "},"ĸ":{"ha":747,"x_min":111,"x_max":749,"o":"m 533 0 l 264 329 l 526 657 l 739 657 l 374 288 l 388 394 l 749 0 l 533 0 m 111 0 l 111 657 l 275 657 l 275 0 l 111 0 z "},"l":{"ha":681,"x_min":111,"x_max":636,"o":"m 111 0 l 111 657 l 275 657 l 275 0 l 111 0 m 164 0 l 164 129 l 636 129 l 636 0 l 164 0 z "},"ĺ":{"ha":681,"x_min":111,"x_max":636,"o":"m 111 0 l 111 657 l 275 657 l 275 0 l 111 0 m 164 0 l 164 129 l 636 129 l 636 0 l 164 0 m 119 729 l 215 974 l 401 974 l 239 729 l 119 729 z "},"ľ":{"ha":681,"x_min":111,"x_max":636,"o":"m 111 0 l 111 657 l 275 657 l 275 0 l 111 0 m 164 0 l 164 129 l 636 129 l 636 0 l 164 0 m 549 314 l 450 313 l 450 657 l 590 657 l 549 314 z "},"ļ":{"ha":681,"x_min":111,"x_max":636,"o":"m 111 0 l 111 657 l 275 657 l 275 0 l 111 0 m 164 0 l 164 129 l 636 129 l 636 0 l 164 0 m 347 -429 l 286 -379 q 319 -317 308 -351 q 331 -250 331 -283 q 322 -192 331 -218 q 299 -153 314 -167 l 414 -68 q 465 -129 449 -93 q 481 -206 481 -165 q 444 -333 481 -269 q 347 -429 408 -397 z "},"ŀ":{"ha":685,"x_min":111,"x_max":656,"o":"m 111 0 l 111 657 l 275 657 l 275 0 l 111 0 m 164 0 l 164 129 l 636 129 l 636 0 l 164 0 m 549 253 q 469 282 499 253 q 439 358 439 311 q 469 436 439 407 q 549 465 499 465 q 626 436 597 465 q 656 358 656 407 q 626 282 656 311 q 549 253 597 253 z "},"ḷ":{"ha":681,"x_min":111,"x_max":636,"o":"m 111 0 l 111 657 l 275 657 l 275 0 l 111 0 m 164 0 l 164 129 l 636 129 l 636 0 l 164 0 m 389 -314 q 315 -287 343 -314 q 288 -217 288 -261 q 315 -145 288 -172 q 389 -118 343 -118 q 461 -145 433 -118 q 489 -217 489 -172 q 461 -287 489 -261 q 389 -314 433 -314 z "},"ḹ":{"ha":681,"x_min":18,"x_max":636,"o":"m 111 0 l 111 657 l 275 657 l 275 0 l 111 0 m 164 0 l 164 129 l 636 129 l 636 0 l 164 0 m 389 -314 q 315 -287 343 -314 q 288 -217 288 -261 q 315 -145 288 -172 q 389 -118 343 -118 q 461 -145 433 -118 q 489 -217 489 -172 q 461 -287 489 -261 q 389 -314 433 -314 m 18 779 l 18 893 l 386 893 l 386 779 l 18 779 z "},"ḻ":{"ha":681,"x_min":111,"x_max":636,"o":"m 111 0 l 111 657 l 275 657 l 275 0 l 111 0 m 164 0 l 164 129 l 636 129 l 636 0 l 164 0 m 204 -237 l 204 -124 l 572 -124 l 572 -237 l 204 -237 z "},"ł":{"ha":681,"x_min":-25,"x_max":636,"o":"m 111 0 l 111 657 l 275 657 l 275 0 l 111 0 m 164 0 l 164 129 l 636 129 l 636 0 l 164 0 m 40 197 l -25 311 l 438 561 l 503 446 l 40 197 z "},"m":{"ha":971,"x_min":104,"x_max":867,"o":"m 703 0 l 694 590 l 743 608 l 522 33 l 440 33 l 189 614 l 229 657 l 318 657 l 521 204 l 457 204 l 653 657 l 835 657 l 867 0 l 703 0 m 104 0 l 135 657 l 250 657 l 254 0 l 104 0 z "},"ṁ":{"ha":971,"x_min":104,"x_max":867,"o":"m 703 0 l 694 590 l 743 608 l 522 33 l 440 33 l 189 614 l 229 657 l 318 657 l 521 204 l 457 204 l 653 657 l 835 657 l 867 0 l 703 0 m 104 0 l 135 657 l 250 657 l 254 0 l 104 0 m 486 758 q 413 785 440 758 q 385 856 385 811 q 413 927 385 900 q 486 954 440 954 q 558 927 531 954 q 586 856 586 900 q 558 785 586 811 q 486 758 531 758 z "},"ṃ":{"ha":971,"x_min":104,"x_max":867,"o":"m 703 0 l 694 590 l 743 608 l 522 33 l 440 33 l 189 614 l 229 657 l 318 657 l 521 204 l 457 204 l 653 657 l 835 657 l 867 0 l 703 0 m 104 0 l 135 657 l 250 657 l 254 0 l 104 0 m 486 -314 q 413 -287 440 -314 q 385 -217 385 -261 q 413 -145 385 -172 q 486 -118 440 -118 q 558 -145 531 -118 q 586 -217 586 -172 q 558 -287 586 -261 q 486 -314 531 -314 z "},"n":{"ha":836,"x_min":111,"x_max":725,"o":"m 111 0 l 111 657 l 244 657 l 263 0 l 111 0 m 635 0 l 561 0 l 172 546 l 172 657 l 271 657 l 628 153 l 635 0 m 725 657 l 725 0 l 589 0 l 574 657 l 725 657 z "},"ń":{"ha":836,"x_min":111,"x_max":725,"o":"m 111 0 l 111 657 l 244 657 l 263 0 l 111 0 m 635 0 l 561 0 l 172 546 l 172 657 l 271 657 l 628 153 l 635 0 m 725 657 l 725 0 l 589 0 l 574 657 l 725 657 m 335 729 l 431 974 l 617 974 l 454 729 l 335 729 z "},"ŉ":{"ha":961,"x_min":-18,"x_max":850,"o":"m 43 303 l -18 353 q 15 415 4 381 q 26 482 26 449 q 18 540 26 514 q -6 579 10 565 l 110 664 q 160 603 144 639 q 176 526 176 567 q 140 399 176 463 q 43 303 104 335 m 236 0 l 236 657 l 369 657 l 388 0 l 236 0 m 760 0 l 686 0 l 297 546 l 297 657 l 396 657 l 753 153 l 760 0 m 850 657 l 850 0 l 714 0 l 699 657 l 850 657 z "},"ň":{"ha":836,"x_min":111,"x_max":725,"o":"m 111 0 l 111 657 l 244 657 l 263 0 l 111 0 m 635 0 l 561 0 l 172 546 l 172 657 l 271 657 l 628 153 l 635 0 m 725 657 l 725 0 l 589 0 l 574 657 l 725 657 m 363 729 l 392 826 l 511 974 l 628 974 l 472 729 l 363 729 m 363 729 l 207 974 l 324 974 l 444 824 l 472 729 l 363 729 z "},"ṋ":{"ha":836,"x_min":111,"x_max":725,"o":"m 111 0 l 111 657 l 244 657 l 263 0 l 111 0 m 635 0 l 561 0 l 172 546 l 172 657 l 271 657 l 628 153 l 635 0 m 725 657 l 725 0 l 589 0 l 574 657 l 725 657 m 511 -376 l 392 -187 l 363 -90 l 472 -90 l 628 -376 l 511 -376 m 207 -376 l 363 -90 l 472 -90 l 444 -185 l 324 -376 l 207 -376 z "},"ņ":{"ha":836,"x_min":111,"x_max":725,"o":"m 111 0 l 111 657 l 244 657 l 263 0 l 111 0 m 635 0 l 561 0 l 172 546 l 172 657 l 271 657 l 628 153 l 635 0 m 725 657 l 725 0 l 589 0 l 574 657 l 725 657 m 376 -429 l 315 -379 q 349 -317 338 -351 q 360 -250 360 -283 q 351 -192 360 -218 q 328 -153 343 -167 l 443 -68 q 494 -129 478 -93 q 510 -206 510 -165 q 474 -333 510 -269 q 376 -429 438 -397 z "},"ṅ":{"ha":836,"x_min":111,"x_max":725,"o":"m 111 0 l 111 657 l 244 657 l 263 0 l 111 0 m 635 0 l 561 0 l 172 546 l 172 657 l 271 657 l 628 153 l 635 0 m 725 657 l 725 0 l 589 0 l 574 657 l 725 657 m 418 758 q 344 785 372 758 q 317 856 317 811 q 344 927 317 900 q 418 954 372 954 q 490 927 463 954 q 518 856 518 900 q 490 785 518 811 q 418 758 463 758 z "},"ṇ":{"ha":836,"x_min":111,"x_max":725,"o":"m 111 0 l 111 657 l 244 657 l 263 0 l 111 0 m 635 0 l 561 0 l 172 546 l 172 657 l 271 657 l 628 153 l 635 0 m 725 657 l 725 0 l 589 0 l 574 657 l 725 657 m 418 -314 q 344 -287 372 -314 q 317 -217 317 -261 q 344 -145 317 -172 q 418 -118 372 -118 q 490 -145 463 -118 q 518 -217 518 -172 q 490 -287 518 -261 q 418 -314 463 -314 z "},"ṉ":{"ha":836,"x_min":111,"x_max":725,"o":"m 111 0 l 111 657 l 244 657 l 263 0 l 111 0 m 635 0 l 561 0 l 172 546 l 172 657 l 271 657 l 628 153 l 635 0 m 725 657 l 725 0 l 589 0 l 574 657 l 725 657 m 233 -237 l 233 -124 l 601 -124 l 601 -237 l 233 -237 z "},"ñ":{"ha":836,"x_min":111,"x_max":725,"o":"m 111 0 l 111 657 l 244 657 l 263 0 l 111 0 m 635 0 l 561 0 l 172 546 l 172 657 l 271 657 l 628 153 l 635 0 m 725 657 l 725 0 l 589 0 l 574 657 l 725 657 m 254 719 l 168 740 q 235 854 189 808 q 335 900 281 900 q 387 896 358 900 q 445 887 415 892 q 501 882 475 882 q 549 899 528 882 q 581 949 571 917 l 668 929 q 601 803 647 851 q 501 754 554 754 q 443 759 472 754 q 387 768 414 764 q 335 772 360 772 q 287 758 308 772 q 254 719 265 744 z "},"ŋ":{"ha":836,"x_min":111,"x_max":724,"o":"m 418 -296 l 382 -203 q 476 -160 439 -182 q 535 -109 514 -139 q 565 -33 557 -79 q 574 86 574 14 l 574 657 l 724 657 l 724 86 q 701 -77 724 -11 q 638 -185 679 -143 q 542 -253 597 -228 q 418 -296 486 -279 m 111 0 l 111 657 l 244 657 l 263 0 l 111 0 m 575 0 l 172 546 l 172 657 l 271 657 l 642 125 l 649 0 l 575 0 z "},"o":{"ha":833,"x_min":64,"x_max":768,"o":"m 408 -10 q 231 35 310 -10 q 108 154 153 79 q 64 321 64 229 q 110 494 64 415 q 237 619 156 572 q 422 667 318 667 q 599 623 521 667 q 723 503 678 579 q 768 332 768 428 q 719 155 768 232 q 589 34 671 78 q 408 -10 507 -10 m 425 111 q 514 136 476 111 q 572 207 551 161 q 593 317 593 253 q 569 438 593 386 q 503 517 544 489 q 407 546 461 546 q 320 521 358 546 q 260 449 282 496 q 239 338 239 403 q 263 218 239 269 q 329 139 288 167 q 425 111 371 111 z "},"ó":{"ha":833,"x_min":64,"x_max":768,"o":"m 408 -10 q 231 35 310 -10 q 108 154 153 79 q 64 321 64 229 q 110 494 64 415 q 237 619 156 572 q 422 667 318 667 q 599 623 521 667 q 723 503 678 579 q 768 332 768 428 q 719 155 768 232 q 589 34 671 78 q 408 -10 507 -10 m 425 111 q 514 136 476 111 q 572 207 551 161 q 593 317 593 253 q 569 438 593 386 q 503 517 544 489 q 407 546 461 546 q 320 521 358 546 q 260 449 282 496 q 239 338 239 403 q 263 218 239 269 q 329 139 288 167 q 425 111 371 111 m 333 729 l 429 974 l 615 974 l 453 729 l 333 729 z "},"ŏ":{"ha":833,"x_min":64,"x_max":768,"o":"m 408 -10 q 231 35 310 -10 q 108 154 153 79 q 64 321 64 229 q 110 494 64 415 q 237 619 156 572 q 422 667 318 667 q 599 623 521 667 q 723 503 678 579 q 768 332 768 428 q 719 155 768 232 q 589 34 671 78 q 408 -10 507 -10 m 425 111 q 514 136 476 111 q 572 207 551 161 q 593 317 593 253 q 569 438 593 386 q 503 517 544 489 q 407 546 461 546 q 320 521 358 546 q 260 449 282 496 q 239 338 239 403 q 263 218 239 269 q 329 139 288 167 q 425 111 371 111 m 417 722 q 272 779 329 722 q 197 939 215 836 l 285 953 q 332 878 296 906 q 417 851 368 851 q 502 878 465 851 q 549 953 539 906 l 636 939 q 561 779 618 836 q 417 722 504 722 z "},"ǒ":{"ha":833,"x_min":64,"x_max":768,"o":"m 408 -10 q 231 35 310 -10 q 108 154 153 79 q 64 321 64 229 q 110 494 64 415 q 237 619 156 572 q 422 667 318 667 q 599 623 521 667 q 723 503 678 579 q 768 332 768 428 q 719 155 768 232 q 589 34 671 78 q 408 -10 507 -10 m 425 111 q 514 136 476 111 q 572 207 551 161 q 593 317 593 253 q 569 438 593 386 q 503 517 544 489 q 407 546 461 546 q 320 521 358 546 q 260 449 282 496 q 239 338 239 403 q 263 218 239 269 q 329 139 288 167 q 425 111 371 111 m 361 729 l 390 826 l 510 974 l 626 974 l 471 729 l 361 729 m 361 729 l 206 974 l 322 974 l 443 824 l 471 729 l 361 729 z "},"ô":{"ha":833,"x_min":64,"x_max":768,"o":"m 408 -10 q 231 35 310 -10 q 108 154 153 79 q 64 321 64 229 q 110 494 64 415 q 237 619 156 572 q 422 667 318 667 q 599 623 521 667 q 723 503 678 579 q 768 332 768 428 q 719 155 768 232 q 589 34 671 78 q 408 -10 507 -10 m 425 111 q 514 136 476 111 q 572 207 551 161 q 593 317 593 253 q 569 438 593 386 q 503 517 544 489 q 407 546 461 546 q 320 521 358 546 q 260 449 282 496 q 239 338 239 403 q 263 218 239 269 q 329 139 288 167 q 425 111 371 111 m 510 729 l 390 876 l 361 974 l 471 974 l 626 729 l 510 729 m 206 729 l 361 974 l 471 974 l 443 879 l 322 729 l 206 729 z "},"ố":{"ha":833,"x_min":64,"x_max":822,"o":"m 408 -10 q 231 35 310 -10 q 108 154 153 79 q 64 321 64 229 q 110 494 64 415 q 237 619 156 572 q 422 667 318 667 q 599 623 521 667 q 723 503 678 579 q 768 332 768 428 q 719 155 768 232 q 589 34 671 78 q 408 -10 507 -10 m 425 111 q 514 136 476 111 q 572 207 551 161 q 593 317 593 253 q 569 438 593 386 q 503 517 544 489 q 407 546 461 546 q 320 521 358 546 q 260 449 282 496 q 239 338 239 403 q 263 218 239 269 q 329 139 288 167 q 425 111 371 111 m 514 729 l 374 869 l 344 974 l 454 974 l 638 729 l 514 729 m 161 729 l 344 974 l 454 974 l 426 872 l 285 729 l 161 729 m 564 863 l 657 1079 l 822 1079 l 675 863 l 564 863 z "},"ộ":{"ha":833,"x_min":64,"x_max":768,"o":"m 408 -10 q 231 35 310 -10 q 108 154 153 79 q 64 321 64 229 q 110 494 64 415 q 237 619 156 572 q 422 667 318 667 q 599 623 521 667 q 723 503 678 579 q 768 332 768 428 q 719 155 768 232 q 589 34 671 78 q 408 -10 507 -10 m 425 111 q 514 136 476 111 q 572 207 551 161 q 593 317 593 253 q 569 438 593 386 q 503 517 544 489 q 407 546 461 546 q 320 521 358 546 q 260 449 282 496 q 239 338 239 403 q 263 218 239 269 q 329 139 288 167 q 425 111 371 111 m 426 -314 q 353 -287 381 -314 q 325 -217 325 -261 q 353 -145 325 -172 q 426 -118 381 -118 q 499 -145 471 -118 q 526 -217 526 -172 q 499 -287 526 -261 q 426 -314 471 -314 m 510 729 l 390 876 l 361 974 l 471 974 l 626 729 l 510 729 m 206 729 l 361 974 l 471 974 l 443 879 l 322 729 l 206 729 z "},"ồ":{"ha":833,"x_min":64,"x_max":768,"o":"m 408 -10 q 231 35 310 -10 q 108 154 153 79 q 64 321 64 229 q 110 494 64 415 q 237 619 156 572 q 422 667 318 667 q 599 623 521 667 q 723 503 678 579 q 768 332 768 428 q 719 155 768 232 q 589 34 671 78 q 408 -10 507 -10 m 425 111 q 514 136 476 111 q 572 207 551 161 q 593 317 593 253 q 569 438 593 386 q 503 517 544 489 q 407 546 461 546 q 320 521 358 546 q 260 449 282 496 q 239 338 239 403 q 263 218 239 269 q 329 139 288 167 q 425 111 371 111 m 514 729 l 374 869 l 344 974 l 454 974 l 638 729 l 514 729 m 161 729 l 344 974 l 454 974 l 426 872 l 285 729 l 161 729 m 628 863 l 481 1079 l 646 1079 l 739 863 l 628 863 z "},"ổ":{"ha":833,"x_min":64,"x_max":781,"o":"m 408 -10 q 231 35 310 -10 q 108 154 153 79 q 64 321 64 229 q 110 494 64 415 q 237 619 156 572 q 422 667 318 667 q 599 623 521 667 q 723 503 678 579 q 768 332 768 428 q 719 155 768 232 q 589 34 671 78 q 408 -10 507 -10 m 425 111 q 514 136 476 111 q 572 207 551 161 q 593 317 593 253 q 569 438 593 386 q 503 517 544 489 q 407 546 461 546 q 320 521 358 546 q 260 449 282 496 q 239 338 239 403 q 263 218 239 269 q 329 139 288 167 q 425 111 371 111 m 532 729 l 392 869 l 363 974 l 472 974 l 656 729 l 532 729 m 179 729 l 363 974 l 472 974 l 444 872 l 303 729 l 179 729 m 592 863 l 589 944 q 646 959 617 944 q 675 997 675 974 q 662 1024 675 1013 q 624 1036 649 1036 q 592 1030 610 1036 q 561 1013 574 1024 l 536 1057 q 602 1101 568 1090 q 663 1113 636 1113 q 748 1083 715 1113 q 781 1010 781 1053 q 744 935 781 964 q 643 906 708 906 l 681 942 l 681 863 l 592 863 z "},"ỗ":{"ha":833,"x_min":64,"x_max":768,"o":"m 408 -10 q 231 35 310 -10 q 108 154 153 79 q 64 321 64 229 q 110 494 64 415 q 237 619 156 572 q 422 667 318 667 q 599 623 521 667 q 723 503 678 579 q 768 332 768 428 q 719 155 768 232 q 589 34 671 78 q 408 -10 507 -10 m 425 111 q 514 136 476 111 q 572 207 551 161 q 593 317 593 253 q 569 438 593 386 q 503 517 544 489 q 407 546 461 546 q 320 521 358 546 q 260 449 282 496 q 239 338 239 403 q 263 218 239 269 q 329 139 288 167 q 425 111 371 111 m 531 715 l 390 856 l 361 960 l 471 960 l 654 715 l 531 715 m 178 715 l 361 960 l 471 960 l 443 858 l 301 715 l 178 715 m 286 996 l 200 1017 q 260 1114 218 1075 q 351 1153 303 1153 q 407 1141 385 1153 q 448 1117 429 1129 q 489 1106 467 1106 q 528 1123 511 1106 q 554 1174 546 1140 l 640 1153 q 580 1044 622 1086 q 489 1003 538 1003 q 428 1015 450 1003 q 390 1038 406 1026 q 351 1049 374 1049 q 312 1035 329 1049 q 286 996 294 1022 z "},"ö":{"ha":833,"x_min":64,"x_max":768,"o":"m 408 -10 q 231 35 310 -10 q 108 154 153 79 q 64 321 64 229 q 110 494 64 415 q 237 619 156 572 q 422 667 318 667 q 599 623 521 667 q 723 503 678 579 q 768 332 768 428 q 719 155 768 232 q 589 34 671 78 q 408 -10 507 -10 m 425 111 q 514 136 476 111 q 572 207 551 161 q 593 317 593 253 q 569 438 593 386 q 503 517 544 489 q 407 546 461 546 q 320 521 358 546 q 260 449 282 496 q 239 338 239 403 q 263 218 239 269 q 329 139 288 167 q 425 111 371 111 m 279 749 q 212 774 238 749 q 186 839 186 800 q 212 906 186 881 q 279 932 238 932 q 347 906 321 932 q 372 839 372 881 q 347 774 372 800 q 279 749 321 749 m 554 749 q 485 774 511 749 q 458 839 458 800 q 485 906 458 881 q 554 932 511 932 q 620 906 594 932 q 646 839 646 881 q 620 774 646 800 q 554 749 594 749 z "},"ọ":{"ha":833,"x_min":64,"x_max":768,"o":"m 408 -10 q 231 35 310 -10 q 108 154 153 79 q 64 321 64 229 q 110 494 64 415 q 237 619 156 572 q 422 667 318 667 q 599 623 521 667 q 723 503 678 579 q 768 332 768 428 q 719 155 768 232 q 589 34 671 78 q 408 -10 507 -10 m 425 111 q 514 136 476 111 q 572 207 551 161 q 593 317 593 253 q 569 438 593 386 q 503 517 544 489 q 407 546 461 546 q 320 521 358 546 q 260 449 282 496 q 239 338 239 403 q 263 218 239 269 q 329 139 288 167 q 425 111 371 111 m 426 -314 q 353 -287 381 -314 q 325 -217 325 -261 q 353 -145 325 -172 q 426 -118 381 -118 q 499 -145 471 -118 q 526 -217 526 -172 q 499 -287 526 -261 q 426 -314 471 -314 z "},"ò":{"ha":833,"x_min":64,"x_max":768,"o":"m 408 -10 q 231 35 310 -10 q 108 154 153 79 q 64 321 64 229 q 110 494 64 415 q 237 619 156 572 q 422 667 318 667 q 599 623 521 667 q 723 503 678 579 q 768 332 768 428 q 719 155 768 232 q 589 34 671 78 q 408 -10 507 -10 m 425 111 q 514 136 476 111 q 572 207 551 161 q 593 317 593 253 q 569 438 593 386 q 503 517 544 489 q 407 546 461 546 q 320 521 358 546 q 260 449 282 496 q 239 338 239 403 q 263 218 239 269 q 329 139 288 167 q 425 111 371 111 m 381 729 l 218 974 l 404 974 l 500 729 l 381 729 z "},"ỏ":{"ha":833,"x_min":64,"x_max":768,"o":"m 408 -10 q 231 35 310 -10 q 108 154 153 79 q 64 321 64 229 q 110 494 64 415 q 237 619 156 572 q 422 667 318 667 q 599 623 521 667 q 723 503 678 579 q 768 332 768 428 q 719 155 768 232 q 589 34 671 78 q 408 -10 507 -10 m 425 111 q 514 136 476 111 q 572 207 551 161 q 593 317 593 253 q 569 438 593 386 q 503 517 544 489 q 407 546 461 546 q 320 521 358 546 q 260 449 282 496 q 239 338 239 403 q 263 218 239 269 q 329 139 288 167 q 425 111 371 111 m 353 714 l 350 825 q 424 838 399 825 q 450 871 450 850 q 437 904 450 893 q 399 915 424 915 q 359 910 381 915 q 322 892 338 904 l 272 953 q 355 997 313 985 q 431 1008 397 1008 q 553 973 507 1008 q 599 889 599 938 q 551 804 599 838 q 418 771 503 771 l 486 822 l 486 714 l 353 714 z "},"ơ":{"ha":833,"x_min":64,"x_max":844,"o":"m 408 -10 q 231 35 310 -10 q 108 154 153 79 q 64 321 64 229 q 110 494 64 415 q 237 619 156 572 q 422 667 318 667 q 599 623 521 667 q 723 503 678 579 q 768 332 768 428 q 719 155 768 232 q 589 34 671 78 q 408 -10 507 -10 m 425 111 q 514 136 476 111 q 572 207 551 161 q 593 317 593 253 q 569 438 593 386 q 503 517 544 489 q 407 546 461 546 q 320 521 358 546 q 260 449 282 496 q 239 338 239 403 q 263 218 239 269 q 329 139 288 167 q 425 111 371 111 m 585 514 l 556 601 q 653 638 619 601 q 688 718 688 674 q 678 765 688 742 q 649 806 669 788 l 763 890 q 825 817 806 858 q 844 736 844 776 q 812 629 844 681 q 721 546 779 578 q 585 514 663 514 z "},"ớ":{"ha":833,"x_min":64,"x_max":844,"o":"m 408 -10 q 231 35 310 -10 q 108 154 153 79 q 64 321 64 229 q 110 494 64 415 q 237 619 156 572 q 422 667 318 667 q 599 623 521 667 q 723 503 678 579 q 768 332 768 428 q 719 155 768 232 q 589 34 671 78 q 408 -10 507 -10 m 425 111 q 514 136 476 111 q 572 207 551 161 q 593 317 593 253 q 569 438 593 386 q 503 517 544 489 q 407 546 461 546 q 320 521 358 546 q 260 449 282 496 q 239 338 239 403 q 263 218 239 269 q 329 139 288 167 q 425 111 371 111 m 585 514 l 556 601 q 653 638 619 601 q 688 718 688 674 q 678 765 688 742 q 649 806 669 788 l 763 890 q 825 817 806 858 q 844 736 844 776 q 812 629 844 681 q 721 546 779 578 q 585 514 663 514 m 319 729 l 415 974 l 601 974 l 439 729 l 319 729 z "},"ợ":{"ha":833,"x_min":64,"x_max":844,"o":"m 408 -10 q 231 35 310 -10 q 108 154 153 79 q 64 321 64 229 q 110 494 64 415 q 237 619 156 572 q 422 667 318 667 q 599 623 521 667 q 723 503 678 579 q 768 332 768 428 q 719 155 768 232 q 589 34 671 78 q 408 -10 507 -10 m 425 111 q 514 136 476 111 q 572 207 551 161 q 593 317 593 253 q 569 438 593 386 q 503 517 544 489 q 407 546 461 546 q 320 521 358 546 q 260 449 282 496 q 239 338 239 403 q 263 218 239 269 q 329 139 288 167 q 425 111 371 111 m 585 514 l 556 601 q 653 638 619 601 q 688 718 688 674 q 678 765 688 742 q 649 806 669 788 l 763 890 q 825 817 806 858 q 844 736 844 776 q 812 629 844 681 q 721 546 779 578 q 585 514 663 514 m 417 -314 q 343 -287 371 -314 q 315 -217 315 -261 q 343 -145 315 -172 q 417 -118 371 -118 q 489 -145 461 -118 q 517 -217 517 -172 q 489 -287 517 -261 q 417 -314 461 -314 z "},"ờ":{"ha":833,"x_min":64,"x_max":844,"o":"m 408 -10 q 231 35 310 -10 q 108 154 153 79 q 64 321 64 229 q 110 494 64 415 q 237 619 156 572 q 422 667 318 667 q 599 623 521 667 q 723 503 678 579 q 768 332 768 428 q 719 155 768 232 q 589 34 671 78 q 408 -10 507 -10 m 425 111 q 514 136 476 111 q 572 207 551 161 q 593 317 593 253 q 569 438 593 386 q 503 517 544 489 q 407 546 461 546 q 320 521 358 546 q 260 449 282 496 q 239 338 239 403 q 263 218 239 269 q 329 139 288 167 q 425 111 371 111 m 585 514 l 556 601 q 653 638 619 601 q 688 718 688 674 q 678 765 688 742 q 649 806 669 788 l 763 890 q 825 817 806 858 q 844 736 844 776 q 812 629 844 681 q 721 546 779 578 q 585 514 663 514 m 367 729 l 204 974 l 390 974 l 486 729 l 367 729 z "},"ở":{"ha":833,"x_min":64,"x_max":844,"o":"m 408 -10 q 231 35 310 -10 q 108 154 153 79 q 64 321 64 229 q 110 494 64 415 q 237 619 156 572 q 422 667 318 667 q 599 623 521 667 q 723 503 678 579 q 768 332 768 428 q 719 155 768 232 q 589 34 671 78 q 408 -10 507 -10 m 425 111 q 514 136 476 111 q 572 207 551 161 q 593 317 593 253 q 569 438 593 386 q 503 517 544 489 q 407 546 461 546 q 320 521 358 546 q 260 449 282 496 q 239 338 239 403 q 263 218 239 269 q 329 139 288 167 q 425 111 371 111 m 585 514 l 556 601 q 653 638 619 601 q 688 718 688 674 q 678 765 688 742 q 649 806 669 788 l 763 890 q 825 817 806 858 q 844 736 844 776 q 812 629 844 681 q 721 546 779 578 q 585 514 663 514 m 339 714 l 336 825 q 410 838 385 825 q 436 871 436 850 q 423 904 436 893 q 385 915 410 915 q 345 910 367 915 q 308 892 324 904 l 258 953 q 341 997 299 985 q 417 1008 383 1008 q 539 973 493 1008 q 585 889 585 938 q 537 804 585 838 q 404 771 489 771 l 472 822 l 472 714 l 339 714 z "},"ỡ":{"ha":833,"x_min":64,"x_max":844,"o":"m 408 -10 q 231 35 310 -10 q 108 154 153 79 q 64 321 64 229 q 110 494 64 415 q 237 619 156 572 q 422 667 318 667 q 599 623 521 667 q 723 503 678 579 q 768 332 768 428 q 719 155 768 232 q 589 34 671 78 q 408 -10 507 -10 m 425 111 q 514 136 476 111 q 572 207 551 161 q 593 317 593 253 q 569 438 593 386 q 503 517 544 489 q 407 546 461 546 q 320 521 358 546 q 260 449 282 496 q 239 338 239 403 q 263 218 239 269 q 329 139 288 167 q 425 111 371 111 m 585 514 l 556 601 q 653 638 619 601 q 688 718 688 674 q 678 765 688 742 q 649 806 669 788 l 763 890 q 825 817 806 858 q 844 736 844 776 q 812 629 844 681 q 721 546 779 578 q 585 514 663 514 m 239 719 l 153 740 q 219 854 174 808 q 319 900 265 900 q 372 896 343 900 q 430 887 400 892 q 486 882 460 882 q 534 899 513 882 q 565 949 556 917 l 653 929 q 585 803 632 851 q 486 754 539 754 q 428 759 457 754 q 372 768 399 764 q 319 772 344 772 q 272 758 293 772 q 239 719 250 744 z "},"ő":{"ha":833,"x_min":64,"x_max":768,"o":"m 408 -10 q 231 35 310 -10 q 108 154 153 79 q 64 321 64 229 q 110 494 64 415 q 237 619 156 572 q 422 667 318 667 q 599 623 521 667 q 723 503 678 579 q 768 332 768 428 q 719 155 768 232 q 589 34 671 78 q 408 -10 507 -10 m 425 111 q 514 136 476 111 q 572 207 551 161 q 593 317 593 253 q 569 438 593 386 q 503 517 544 489 q 407 546 461 546 q 320 521 358 546 q 260 449 282 496 q 239 338 239 403 q 263 218 239 269 q 329 139 288 167 q 425 111 371 111 m 203 729 l 299 974 l 485 974 l 322 729 l 203 729 m 446 729 l 542 974 l 728 974 l 565 729 l 446 729 z "},"ō":{"ha":833,"x_min":64,"x_max":768,"o":"m 408 -10 q 231 35 310 -10 q 108 154 153 79 q 64 321 64 229 q 110 494 64 415 q 237 619 156 572 q 422 667 318 667 q 599 623 521 667 q 723 503 678 579 q 768 332 768 428 q 719 155 768 232 q 589 34 671 78 q 408 -10 507 -10 m 425 111 q 514 136 476 111 q 572 207 551 161 q 593 317 593 253 q 569 438 593 386 q 503 517 544 489 q 407 546 461 546 q 320 521 358 546 q 260 449 282 496 q 239 338 239 403 q 263 218 239 269 q 329 139 288 167 q 425 111 371 111 m 232 779 l 232 893 l 600 893 l 600 779 l 232 779 z "},"ǫ":{"ha":833,"x_min":64,"x_max":768,"o":"m 408 -10 q 231 35 310 -10 q 108 154 153 79 q 64 321 64 229 q 110 494 64 415 q 237 619 156 572 q 422 667 318 667 q 599 623 521 667 q 723 503 678 579 q 768 332 768 428 q 719 155 768 232 q 589 34 671 78 q 408 -10 507 -10 m 425 111 q 514 136 476 111 q 572 207 551 161 q 593 317 593 253 q 569 438 593 386 q 503 517 544 489 q 407 546 461 546 q 320 521 358 546 q 260 449 282 496 q 239 338 239 403 q 263 218 239 269 q 329 139 288 167 q 425 111 371 111 m 472 -403 q 313 -350 369 -403 q 257 -214 257 -297 q 306 -70 257 -140 q 465 56 356 0 l 521 15 q 439 -81 464 -28 q 414 -175 414 -133 q 445 -258 414 -231 q 529 -286 476 -286 q 557 -284 544 -286 q 582 -276 569 -282 l 621 -361 q 472 -403 557 -403 z "},"ø":{"ha":833,"x_min":60,"x_max":768,"o":"m 408 -10 q 231 35 310 -10 q 108 154 153 79 q 64 321 64 229 q 110 494 64 415 q 237 619 156 572 q 422 667 318 667 q 599 623 521 667 q 723 503 678 579 q 768 332 768 428 q 719 155 768 232 q 589 34 671 78 q 408 -10 507 -10 m 425 111 q 514 136 476 111 q 572 207 551 161 q 593 317 593 253 q 569 438 593 386 q 503 517 544 489 q 407 546 461 546 q 320 521 358 546 q 260 449 282 496 q 239 338 239 403 q 263 218 239 269 q 329 139 288 167 q 425 111 371 111 m 147 -51 l 60 22 l 678 710 l 767 636 l 147 -51 z "},"ǿ":{"ha":833,"x_min":60,"x_max":768,"o":"m 408 -10 q 231 35 310 -10 q 108 154 153 79 q 64 321 64 229 q 110 494 64 415 q 237 619 156 572 q 422 667 318 667 q 599 623 521 667 q 723 503 678 579 q 768 332 768 428 q 719 155 768 232 q 589 34 671 78 q 408 -10 507 -10 m 425 111 q 514 136 476 111 q 572 207 551 161 q 593 317 593 253 q 569 438 593 386 q 503 517 544 489 q 407 546 461 546 q 320 521 358 546 q 260 449 282 496 q 239 338 239 403 q 263 218 239 269 q 329 139 288 167 q 425 111 371 111 m 147 -51 l 60 22 l 678 710 l 767 636 l 147 -51 m 333 729 l 429 974 l 615 974 l 453 729 l 333 729 z "},"õ":{"ha":833,"x_min":64,"x_max":768,"o":"m 408 -10 q 231 35 310 -10 q 108 154 153 79 q 64 321 64 229 q 110 494 64 415 q 237 619 156 572 q 422 667 318 667 q 599 623 521 667 q 723 503 678 579 q 768 332 768 428 q 719 155 768 232 q 589 34 671 78 q 408 -10 507 -10 m 425 111 q 514 136 476 111 q 572 207 551 161 q 593 317 593 253 q 569 438 593 386 q 503 517 544 489 q 407 546 461 546 q 320 521 358 546 q 260 449 282 496 q 239 338 239 403 q 263 218 239 269 q 329 139 288 167 q 425 111 371 111 m 253 719 l 167 740 q 233 854 188 808 q 333 900 279 900 q 385 896 357 900 q 444 887 414 892 q 500 882 474 882 q 548 899 526 882 q 579 949 569 917 l 667 929 q 599 803 646 851 q 500 754 553 754 q 442 759 471 754 q 385 768 413 764 q 333 772 358 772 q 285 758 307 772 q 253 719 264 744 z "},"œ":{"ha":1114,"x_min":64,"x_max":1068,"o":"m 438 -7 q 238 35 322 -7 q 109 151 154 78 q 64 317 64 224 q 117 499 64 421 q 261 622 171 578 q 464 665 351 665 q 545 660 501 665 q 628 647 589 656 l 568 524 q 531 532 556 529 q 482 536 507 535 q 439 538 457 538 q 328 517 374 538 q 260 453 283 496 q 238 344 238 411 q 264 223 238 274 q 341 144 290 172 q 464 117 392 117 q 519 120 488 117 q 578 131 551 124 l 618 11 q 526 -2 576 3 q 438 -7 476 -7 m 585 265 l 585 403 l 983 403 l 983 265 l 585 265 m 538 0 l 538 657 l 1029 657 l 1029 532 l 692 532 l 692 125 l 1068 125 l 1068 0 l 538 0 z "},"p":{"ha":693,"x_min":111,"x_max":643,"o":"m 111 0 l 111 657 l 356 657 q 511 633 447 657 q 609 560 575 608 q 643 439 643 511 q 603 301 643 361 q 488 209 563 242 q 307 176 413 176 l 189 176 l 189 306 l 335 306 q 449 333 408 306 q 489 414 489 360 q 446 502 489 469 q 328 535 403 535 l 267 535 l 267 0 l 111 0 z "},"þ":{"ha":693,"x_min":111,"x_max":643,"o":"m 189 103 l 189 225 l 335 225 q 444 254 404 225 q 485 335 485 283 q 443 413 485 386 q 328 439 401 439 l 172 439 l 172 561 l 356 561 q 511 538 447 561 q 609 469 575 515 q 643 354 643 424 q 603 223 643 279 q 488 135 563 167 q 307 103 413 103 l 189 103 m 111 0 l 111 657 l 268 657 l 268 0 l 111 0 z "},"q":{"ha":833,"x_min":64,"x_max":901,"o":"m 408 -10 q 231 35 310 -10 q 108 154 153 79 q 64 321 64 229 q 110 494 64 415 q 237 619 156 572 q 422 667 318 667 q 599 623 521 667 q 723 503 678 579 q 768 332 768 428 q 719 155 768 232 q 589 34 671 78 q 408 -10 507 -10 m 425 111 q 514 136 476 111 q 572 207 551 161 q 593 317 593 253 q 569 438 593 386 q 503 517 544 489 q 407 546 461 546 q 320 521 358 546 q 260 449 282 496 q 239 338 239 403 q 263 218 239 269 q 329 139 288 167 q 425 111 371 111 m 753 -229 q 553 -172 635 -229 q 396 0 471 -114 l 560 67 q 672 -73 614 -25 q 801 -121 731 -121 q 828 -119 811 -121 q 865 -108 846 -117 l 901 -194 q 815 -223 851 -217 q 753 -229 778 -229 z "},"r":{"ha":744,"x_min":111,"x_max":731,"o":"m 111 0 l 111 657 l 369 657 q 561 608 493 657 q 629 463 629 558 q 592 347 629 396 q 487 271 556 297 q 321 244 418 244 l 189 244 l 189 357 l 349 357 q 442 380 408 357 q 476 442 476 403 q 444 507 476 483 q 356 531 413 531 l 263 531 l 263 0 l 111 0 m 626 -15 q 547 1 579 -15 q 490 51 515 18 q 433 136 464 85 l 358 264 l 486 313 l 565 196 q 614 128 596 151 q 646 97 632 106 q 676 89 660 89 q 697 90 686 89 q 714 93 707 92 l 731 3 q 675 -11 700 -7 q 626 -15 650 -15 z "},"ŕ":{"ha":744,"x_min":111,"x_max":731,"o":"m 111 0 l 111 657 l 369 657 q 561 608 493 657 q 629 463 629 558 q 592 347 629 396 q 487 271 556 297 q 321 244 418 244 l 189 244 l 189 357 l 349 357 q 442 380 408 357 q 476 442 476 403 q 444 507 476 483 q 356 531 413 531 l 263 531 l 263 0 l 111 0 m 626 -15 q 547 1 579 -15 q 490 51 515 18 q 433 136 464 85 l 358 264 l 486 313 l 565 196 q 614 128 596 151 q 646 97 632 106 q 676 89 660 89 q 697 90 686 89 q 714 93 707 92 l 731 3 q 675 -11 700 -7 q 626 -15 650 -15 m 292 729 l 388 974 l 574 974 l 411 729 l 292 729 z "},"ř":{"ha":744,"x_min":111,"x_max":731,"o":"m 111 0 l 111 657 l 369 657 q 561 608 493 657 q 629 463 629 558 q 592 347 629 396 q 487 271 556 297 q 321 244 418 244 l 189 244 l 189 357 l 349 357 q 442 380 408 357 q 476 442 476 403 q 444 507 476 483 q 356 531 413 531 l 263 531 l 263 0 l 111 0 m 626 -15 q 547 1 579 -15 q 490 51 515 18 q 433 136 464 85 l 358 264 l 486 313 l 565 196 q 614 128 596 151 q 646 97 632 106 q 676 89 660 89 q 697 90 686 89 q 714 93 707 92 l 731 3 q 675 -11 700 -7 q 626 -15 650 -15 m 319 729 l 349 826 l 468 974 l 585 974 l 429 729 l 319 729 m 319 729 l 164 974 l 281 974 l 401 824 l 429 729 l 319 729 z "},"ŗ":{"ha":744,"x_min":111,"x_max":731,"o":"m 111 0 l 111 657 l 369 657 q 561 608 493 657 q 629 463 629 558 q 592 347 629 396 q 487 271 556 297 q 321 244 418 244 l 189 244 l 189 357 l 349 357 q 442 380 408 357 q 476 442 476 403 q 444 507 476 483 q 356 531 413 531 l 263 531 l 263 0 l 111 0 m 626 -15 q 547 1 579 -15 q 490 51 515 18 q 433 136 464 85 l 358 264 l 486 313 l 565 196 q 614 128 596 151 q 646 97 632 106 q 676 89 660 89 q 697 90 686 89 q 714 93 707 92 l 731 3 q 675 -11 700 -7 q 626 -15 650 -15 m 349 -429 l 288 -379 q 321 -317 310 -351 q 332 -250 332 -283 q 324 -192 332 -218 q 300 -153 315 -167 l 415 -68 q 466 -129 450 -93 q 482 -206 482 -165 q 446 -333 482 -269 q 349 -429 410 -397 z "},"ṛ":{"ha":744,"x_min":111,"x_max":731,"o":"m 111 0 l 111 657 l 369 657 q 561 608 493 657 q 629 463 629 558 q 592 347 629 396 q 487 271 556 297 q 321 244 418 244 l 189 244 l 189 357 l 349 357 q 442 380 408 357 q 476 442 476 403 q 444 507 476 483 q 356 531 413 531 l 263 531 l 263 0 l 111 0 m 626 -15 q 547 1 579 -15 q 490 51 515 18 q 433 136 464 85 l 358 264 l 486 313 l 565 196 q 614 128 596 151 q 646 97 632 106 q 676 89 660 89 q 697 90 686 89 q 714 93 707 92 l 731 3 q 675 -11 700 -7 q 626 -15 650 -15 m 390 -314 q 317 -287 344 -314 q 289 -217 289 -261 q 317 -145 289 -172 q 390 -118 344 -118 q 463 -145 435 -118 q 490 -217 490 -172 q 463 -287 490 -261 q 390 -314 435 -314 z "},"ṝ":{"ha":744,"x_min":111,"x_max":731,"o":"m 111 0 l 111 657 l 369 657 q 561 608 493 657 q 629 463 629 558 q 592 347 629 396 q 487 271 556 297 q 321 244 418 244 l 189 244 l 189 357 l 349 357 q 442 380 408 357 q 476 442 476 403 q 444 507 476 483 q 356 531 413 531 l 263 531 l 263 0 l 111 0 m 626 -15 q 547 1 579 -15 q 490 51 515 18 q 433 136 464 85 l 358 264 l 486 313 l 565 196 q 614 128 596 151 q 646 97 632 106 q 676 89 660 89 q 697 90 686 89 q 714 93 707 92 l 731 3 q 675 -11 700 -7 q 626 -15 650 -15 m 390 -314 q 317 -287 344 -314 q 289 -217 289 -261 q 317 -145 289 -172 q 390 -118 344 -118 q 463 -145 435 -118 q 490 -217 490 -172 q 463 -287 490 -261 q 390 -314 435 -314 m 190 779 l 190 893 l 558 893 l 558 779 l 190 779 z "},"ṟ":{"ha":744,"x_min":111,"x_max":731,"o":"m 111 0 l 111 657 l 369 657 q 561 608 493 657 q 629 463 629 558 q 592 347 629 396 q 487 271 556 297 q 321 244 418 244 l 189 244 l 189 357 l 349 357 q 442 380 408 357 q 476 442 476 403 q 444 507 476 483 q 356 531 413 531 l 263 531 l 263 0 l 111 0 m 626 -15 q 547 1 579 -15 q 490 51 515 18 q 433 136 464 85 l 358 264 l 486 313 l 565 196 q 614 128 596 151 q 646 97 632 106 q 676 89 660 89 q 697 90 686 89 q 714 93 707 92 l 731 3 q 675 -11 700 -7 q 626 -15 650 -15 m 206 -237 l 206 -124 l 574 -124 l 574 -237 l 206 -237 z "},"s":{"ha":629,"x_min":50,"x_max":582,"o":"m 429 176 q 404 223 429 206 q 340 254 379 240 q 256 283 300 268 q 173 321 213 299 q 108 378 133 343 q 83 468 83 414 q 151 610 83 554 q 335 667 218 667 q 469 648 406 667 q 568 608 533 629 l 503 485 q 412 533 463 517 q 322 550 361 550 q 253 526 271 550 q 236 483 236 501 q 261 438 236 457 q 326 404 286 419 q 409 372 365 389 q 492 331 453 354 q 557 272 532 307 q 582 183 582 236 q 508 44 582 99 q 304 -10 435 -10 q 156 13 218 -10 q 50 64 93 35 l 117 190 q 219 133 161 156 q 333 110 276 110 q 406 131 382 110 q 429 176 429 151 z "},"ś":{"ha":629,"x_min":50,"x_max":582,"o":"m 429 176 q 404 223 429 206 q 340 254 379 240 q 256 283 300 268 q 173 321 213 299 q 108 378 133 343 q 83 468 83 414 q 151 610 83 554 q 335 667 218 667 q 469 648 406 667 q 568 608 533 629 l 503 485 q 412 533 463 517 q 322 550 361 550 q 253 526 271 550 q 236 483 236 501 q 261 438 236 457 q 326 404 286 419 q 409 372 365 389 q 492 331 453 354 q 557 272 532 307 q 582 183 582 236 q 508 44 582 99 q 304 -10 435 -10 q 156 13 218 -10 q 50 64 93 35 l 117 190 q 219 133 161 156 q 333 110 276 110 q 406 131 382 110 q 429 176 429 151 m 249 729 l 344 974 l 531 974 l 368 729 l 249 729 z "},"š":{"ha":629,"x_min":50,"x_max":582,"o":"m 429 176 q 404 223 429 206 q 340 254 379 240 q 256 283 300 268 q 173 321 213 299 q 108 378 133 343 q 83 468 83 414 q 151 610 83 554 q 335 667 218 667 q 469 648 406 667 q 568 608 533 629 l 503 485 q 412 533 463 517 q 322 550 361 550 q 253 526 271 550 q 236 483 236 501 q 261 438 236 457 q 326 404 286 419 q 409 372 365 389 q 492 331 453 354 q 557 272 532 307 q 582 183 582 236 q 508 44 582 99 q 304 -10 435 -10 q 156 13 218 -10 q 50 64 93 35 l 117 190 q 219 133 161 156 q 333 110 276 110 q 406 131 382 110 q 429 176 429 151 m 276 729 l 306 826 l 425 974 l 542 974 l 386 729 l 276 729 m 276 729 l 121 974 l 238 974 l 358 824 l 386 729 l 276 729 z "},"ş":{"ha":629,"x_min":50,"x_max":582,"o":"m 429 176 q 404 223 429 206 q 340 254 379 240 q 256 283 300 268 q 173 321 213 299 q 108 378 133 343 q 83 468 83 414 q 151 610 83 554 q 335 667 218 667 q 469 648 406 667 q 568 608 533 629 l 503 485 q 412 533 463 517 q 322 550 361 550 q 253 526 271 550 q 236 483 236 501 q 261 438 236 457 q 326 404 286 419 q 409 372 365 389 q 492 331 453 354 q 557 272 532 307 q 582 183 582 236 q 508 44 582 99 q 304 -10 435 -10 q 156 13 218 -10 q 50 64 93 35 l 117 190 q 219 133 161 156 q 333 110 276 110 q 406 131 382 110 q 429 176 429 151 m 285 0 l 378 0 l 343 -128 l 278 -107 q 312 -90 292 -96 q 358 -85 332 -85 q 472 -123 428 -85 q 515 -225 515 -161 q 464 -332 515 -292 q 326 -372 413 -372 q 246 -361 283 -372 q 178 -328 208 -350 l 207 -250 q 255 -272 226 -264 q 310 -281 283 -281 q 365 -262 349 -281 q 382 -222 382 -243 q 355 -176 382 -193 q 289 -158 328 -158 q 261 -160 275 -158 q 232 -167 247 -162 l 285 0 z "},"ŝ":{"ha":629,"x_min":50,"x_max":582,"o":"m 429 176 q 404 223 429 206 q 340 254 379 240 q 256 283 300 268 q 173 321 213 299 q 108 378 133 343 q 83 468 83 414 q 151 610 83 554 q 335 667 218 667 q 469 648 406 667 q 568 608 533 629 l 503 485 q 412 533 463 517 q 322 550 361 550 q 253 526 271 550 q 236 483 236 501 q 261 438 236 457 q 326 404 286 419 q 409 372 365 389 q 492 331 453 354 q 557 272 532 307 q 582 183 582 236 q 508 44 582 99 q 304 -10 435 -10 q 156 13 218 -10 q 50 64 93 35 l 117 190 q 219 133 161 156 q 333 110 276 110 q 406 131 382 110 q 429 176 429 151 m 425 729 l 306 876 l 276 974 l 386 974 l 542 729 l 425 729 m 121 729 l 276 974 l 386 974 l 358 879 l 238 729 l 121 729 z "},"ș":{"ha":629,"x_min":50,"x_max":582,"o":"m 429 176 q 404 223 429 206 q 340 254 379 240 q 256 283 300 268 q 173 321 213 299 q 108 378 133 343 q 83 468 83 414 q 151 610 83 554 q 335 667 218 667 q 469 648 406 667 q 568 608 533 629 l 503 485 q 412 533 463 517 q 322 550 361 550 q 253 526 271 550 q 236 483 236 501 q 261 438 236 457 q 326 404 286 419 q 409 372 365 389 q 492 331 453 354 q 557 272 532 307 q 582 183 582 236 q 508 44 582 99 q 304 -10 435 -10 q 156 13 218 -10 q 50 64 93 35 l 117 190 q 219 133 161 156 q 333 110 276 110 q 406 131 382 110 q 429 176 429 151 m 289 -429 l 228 -379 q 261 -317 250 -351 q 272 -250 272 -283 q 264 -192 272 -218 q 240 -153 256 -167 l 356 -68 q 406 -129 390 -93 q 422 -206 422 -165 q 386 -333 422 -269 q 289 -429 350 -397 z "},"ṡ":{"ha":629,"x_min":50,"x_max":582,"o":"m 429 176 q 404 223 429 206 q 340 254 379 240 q 256 283 300 268 q 173 321 213 299 q 108 378 133 343 q 83 468 83 414 q 151 610 83 554 q 335 667 218 667 q 469 648 406 667 q 568 608 533 629 l 503 485 q 412 533 463 517 q 322 550 361 550 q 253 526 271 550 q 236 483 236 501 q 261 438 236 457 q 326 404 286 419 q 409 372 365 389 q 492 331 453 354 q 557 272 532 307 q 582 183 582 236 q 508 44 582 99 q 304 -10 435 -10 q 156 13 218 -10 q 50 64 93 35 l 117 190 q 219 133 161 156 q 333 110 276 110 q 406 131 382 110 q 429 176 429 151 m 332 758 q 258 785 286 758 q 231 856 231 811 q 258 927 231 900 q 332 954 286 954 q 404 927 376 954 q 432 856 432 900 q 404 785 432 811 q 332 758 376 758 z "},"ṣ":{"ha":629,"x_min":50,"x_max":582,"o":"m 429 176 q 404 223 429 206 q 340 254 379 240 q 256 283 300 268 q 173 321 213 299 q 108 378 133 343 q 83 468 83 414 q 151 610 83 554 q 335 667 218 667 q 469 648 406 667 q 568 608 533 629 l 503 485 q 412 533 463 517 q 322 550 361 550 q 253 526 271 550 q 236 483 236 501 q 261 438 236 457 q 326 404 286 419 q 409 372 365 389 q 492 331 453 354 q 557 272 532 307 q 582 183 582 236 q 508 44 582 99 q 304 -10 435 -10 q 156 13 218 -10 q 50 64 93 35 l 117 190 q 219 133 161 156 q 333 110 276 110 q 406 131 382 110 q 429 176 429 151 m 331 -314 q 257 -287 285 -314 q 229 -217 229 -261 q 257 -145 229 -172 q 331 -118 285 -118 q 403 -145 375 -118 q 431 -217 431 -172 q 403 -287 431 -261 q 331 -314 375 -314 z "},"ß":{"ha":769,"x_min":100,"x_max":729,"o":"m 100 0 l 100 311 q 192 579 100 492 q 454 667 283 667 q 565 656 501 667 q 683 621 629 644 l 568 496 q 486 526 528 515 q 406 538 444 538 q 336 522 369 538 q 283 471 303 506 q 263 378 263 436 l 263 0 l 100 0 m 518 -7 q 428 8 471 -7 q 354 44 386 22 l 410 167 q 469 134 438 146 q 526 122 500 122 q 578 135 558 122 q 597 178 597 149 q 558 256 597 218 q 446 315 519 293 l 571 410 q 633 383 596 403 q 700 325 671 364 q 729 221 729 286 q 699 103 729 156 q 621 22 669 51 q 518 -7 572 -7 m 446 315 l 546 597 l 683 621 l 600 365 l 446 315 z "},"ſ":{"ha":629,"x_min":50,"x_max":582,"o":"m 429 176 q 404 223 429 206 q 340 254 379 240 q 256 283 300 268 q 173 321 213 299 q 108 378 133 343 q 83 468 83 414 q 151 610 83 554 q 335 667 218 667 q 469 648 406 667 q 568 608 533 629 l 503 485 q 412 533 463 517 q 322 550 361 550 q 253 526 271 550 q 236 483 236 501 q 261 438 236 457 q 326 404 286 419 q 409 372 365 389 q 492 331 453 354 q 557 272 532 307 q 582 183 582 236 q 508 44 582 99 q 304 -10 435 -10 q 156 13 218 -10 q 50 64 93 35 l 117 190 q 219 133 161 156 q 333 110 276 110 q 406 131 382 110 q 429 176 429 151 z "},"t":{"ha":672,"x_min":33,"x_max":639,"o":"m 254 0 l 254 657 l 418 657 l 418 0 l 254 0 m 33 528 l 33 657 l 639 657 l 639 528 l 33 528 z "},"ŧ":{"ha":672,"x_min":33,"x_max":639,"o":"m 254 0 l 254 657 l 418 657 l 418 0 l 254 0 m 33 528 l 33 657 l 639 657 l 639 528 l 33 528 m 138 258 l 138 372 l 533 372 l 533 258 l 138 258 z "},"ť":{"ha":672,"x_min":33,"x_max":639,"o":"m 254 0 l 254 657 l 418 657 l 418 0 l 254 0 m 33 528 l 33 657 l 639 657 l 639 528 l 33 528 m 281 729 l 310 826 l 429 974 l 546 974 l 390 729 l 281 729 m 281 729 l 125 974 l 242 974 l 363 824 l 390 729 l 281 729 z "},"ţ":{"ha":672,"x_min":33,"x_max":639,"o":"m 254 0 l 254 657 l 418 657 l 418 0 l 254 0 m 33 528 l 33 657 l 639 657 l 639 528 l 33 528 m 290 0 l 383 0 l 349 -128 l 283 -107 q 317 -90 297 -96 q 364 -85 338 -85 q 477 -123 433 -85 q 521 -225 521 -161 q 469 -332 521 -292 q 332 -372 418 -372 q 251 -361 289 -372 q 183 -328 214 -350 l 213 -250 q 260 -272 232 -264 q 315 -281 289 -281 q 371 -262 354 -281 q 388 -222 388 -243 q 360 -176 388 -193 q 294 -158 333 -158 q 267 -160 281 -158 q 238 -167 253 -162 l 290 0 z "},"ț":{"ha":672,"x_min":33,"x_max":639,"o":"m 254 0 l 254 657 l 418 657 l 418 0 l 254 0 m 33 528 l 33 657 l 639 657 l 639 528 l 33 528 m 294 -429 l 233 -379 q 267 -317 256 -351 q 278 -250 278 -283 q 269 -192 278 -218 q 246 -153 261 -167 l 361 -68 q 412 -129 396 -93 q 428 -206 428 -165 q 392 -333 428 -269 q 294 -429 356 -397 z "},"ẗ":{"ha":672,"x_min":33,"x_max":639,"o":"m 254 0 l 254 657 l 418 657 l 418 0 l 254 0 m 33 528 l 33 657 l 639 657 l 639 528 l 33 528 m 199 749 q 131 774 157 749 q 106 839 106 800 q 131 906 106 881 q 199 932 157 932 q 266 906 240 932 q 292 839 292 881 q 266 774 292 800 q 199 749 240 749 m 474 749 q 404 774 431 749 q 378 839 378 800 q 404 906 378 881 q 474 932 431 932 q 540 906 514 932 q 565 839 565 881 q 540 774 565 800 q 474 749 514 749 z "},"ṭ":{"ha":672,"x_min":33,"x_max":639,"o":"m 254 0 l 254 657 l 418 657 l 418 0 l 254 0 m 33 528 l 33 657 l 639 657 l 639 528 l 33 528 m 336 -314 q 263 -287 290 -314 q 235 -217 235 -261 q 263 -145 235 -172 q 336 -118 290 -118 q 408 -145 381 -118 q 436 -217 436 -172 q 408 -287 436 -261 q 336 -314 381 -314 z "},"ṯ":{"ha":672,"x_min":33,"x_max":639,"o":"m 254 0 l 254 657 l 418 657 l 418 0 l 254 0 m 33 528 l 33 657 l 639 657 l 639 528 l 33 528 m 151 -237 l 151 -124 l 519 -124 l 519 -237 l 151 -237 z "},"ꜩ":{"ha":1214,"x_min":33,"x_max":1163,"o":"m 617 0 l 617 96 l 1004 608 l 1144 560 l 750 10 l 697 113 l 1163 121 l 1163 0 l 617 0 m 254 0 l 254 657 l 418 657 l 418 0 l 254 0 m 33 528 l 33 657 l 1144 657 l 1144 560 l 1019 528 l 33 528 z "},"u":{"ha":776,"x_min":83,"x_max":693,"o":"m 375 -10 q 221 24 286 -10 q 119 121 156 58 q 83 265 83 183 l 83 657 l 247 657 l 247 293 q 288 157 247 206 q 397 108 329 108 q 496 153 463 108 q 529 278 529 197 l 529 657 l 693 657 l 693 306 q 653 140 693 211 q 542 29 614 68 q 375 -10 471 -10 z "},"ú":{"ha":776,"x_min":83,"x_max":693,"o":"m 375 -10 q 221 24 286 -10 q 119 121 156 58 q 83 265 83 183 l 83 657 l 247 657 l 247 293 q 288 157 247 206 q 397 108 329 108 q 496 153 463 108 q 529 278 529 197 l 529 657 l 693 657 l 693 306 q 653 140 693 211 q 542 29 614 68 q 375 -10 471 -10 m 306 729 l 401 974 l 588 974 l 425 729 l 306 729 z "},"ŭ":{"ha":776,"x_min":83,"x_max":693,"o":"m 375 -10 q 221 24 286 -10 q 119 121 156 58 q 83 265 83 183 l 83 657 l 247 657 l 247 293 q 288 157 247 206 q 397 108 329 108 q 496 153 463 108 q 529 278 529 197 l 529 657 l 693 657 l 693 306 q 653 140 693 211 q 542 29 614 68 q 375 -10 471 -10 m 389 722 q 244 779 301 722 q 169 939 188 836 l 257 953 q 304 878 268 906 q 389 851 340 851 q 474 878 438 851 q 521 953 511 906 l 608 939 q 533 779 590 836 q 389 722 476 722 z "},"ǔ":{"ha":776,"x_min":83,"x_max":693,"o":"m 375 -10 q 221 24 286 -10 q 119 121 156 58 q 83 265 83 183 l 83 657 l 247 657 l 247 293 q 288 157 247 206 q 397 108 329 108 q 496 153 463 108 q 529 278 529 197 l 529 657 l 693 657 l 693 306 q 653 140 693 211 q 542 29 614 68 q 375 -10 471 -10 m 333 729 l 363 826 l 482 974 l 599 974 l 443 729 l 333 729 m 333 729 l 178 974 l 294 974 l 415 824 l 443 729 l 333 729 z "},"û":{"ha":776,"x_min":83,"x_max":693,"o":"m 375 -10 q 221 24 286 -10 q 119 121 156 58 q 83 265 83 183 l 83 657 l 247 657 l 247 293 q 288 157 247 206 q 397 108 329 108 q 496 153 463 108 q 529 278 529 197 l 529 657 l 693 657 l 693 306 q 653 140 693 211 q 542 29 614 68 q 375 -10 471 -10 m 482 729 l 363 876 l 333 974 l 443 974 l 599 729 l 482 729 m 178 729 l 333 974 l 443 974 l 415 879 l 294 729 l 178 729 z "},"ü":{"ha":776,"x_min":83,"x_max":693,"o":"m 375 -10 q 221 24 286 -10 q 119 121 156 58 q 83 265 83 183 l 83 657 l 247 657 l 247 293 q 288 157 247 206 q 397 108 329 108 q 496 153 463 108 q 529 278 529 197 l 529 657 l 693 657 l 693 306 q 653 140 693 211 q 542 29 614 68 q 375 -10 471 -10 m 251 749 q 184 774 210 749 q 158 839 158 800 q 184 906 158 881 q 251 932 210 932 q 319 906 293 932 q 344 839 344 881 q 319 774 344 800 q 251 749 293 749 m 526 749 q 457 774 483 749 q 431 839 431 800 q 457 906 431 881 q 526 932 483 932 q 592 906 567 932 q 618 839 618 881 q 592 774 618 800 q 526 749 567 749 z "},"ǘ":{"ha":776,"x_min":83,"x_max":693,"o":"m 375 -10 q 221 24 286 -10 q 119 121 156 58 q 83 265 83 183 l 83 657 l 247 657 l 247 293 q 288 157 247 206 q 397 108 329 108 q 496 153 463 108 q 529 278 529 197 l 529 657 l 693 657 l 693 306 q 653 140 693 211 q 542 29 614 68 q 375 -10 471 -10 m 251 719 q 184 745 210 719 q 158 810 158 771 q 184 877 158 851 q 251 903 210 903 q 319 877 293 903 q 344 810 344 851 q 319 745 344 771 q 251 719 293 719 m 526 719 q 457 745 483 719 q 431 810 431 771 q 457 877 431 851 q 526 903 483 903 q 592 877 567 903 q 618 810 618 851 q 592 745 618 771 q 526 719 567 719 m 313 935 l 403 1179 l 596 1179 l 440 935 l 313 935 z "},"ǚ":{"ha":776,"x_min":83,"x_max":693,"o":"m 375 -10 q 221 24 286 -10 q 119 121 156 58 q 83 265 83 183 l 83 657 l 247 657 l 247 293 q 288 157 247 206 q 397 108 329 108 q 496 153 463 108 q 529 278 529 197 l 529 657 l 693 657 l 693 306 q 653 140 693 211 q 542 29 614 68 q 375 -10 471 -10 m 525 719 q 458 745 483 719 q 432 810 432 771 q 458 877 432 851 q 525 903 483 903 q 592 877 567 903 q 618 810 618 851 q 592 745 618 771 q 525 719 567 719 m 250 719 q 184 745 210 719 q 158 810 158 771 q 184 877 158 851 q 250 903 210 903 q 319 877 293 903 q 346 810 346 851 q 319 745 346 771 q 250 719 293 719 m 332 939 l 361 1043 l 501 1183 l 625 1183 l 442 939 l 332 939 m 332 939 l 149 1183 l 272 1183 l 414 1040 l 442 939 l 332 939 z "},"ǜ":{"ha":776,"x_min":83,"x_max":693,"o":"m 375 -10 q 221 24 286 -10 q 119 121 156 58 q 83 265 83 183 l 83 657 l 247 657 l 247 293 q 288 157 247 206 q 397 108 329 108 q 496 153 463 108 q 529 278 529 197 l 529 657 l 693 657 l 693 306 q 653 140 693 211 q 542 29 614 68 q 375 -10 471 -10 m 528 719 q 460 745 486 719 q 435 810 435 771 q 460 877 435 851 q 528 903 486 903 q 595 877 569 903 q 621 810 621 851 q 595 745 621 771 q 528 719 569 719 m 253 719 q 187 745 213 719 q 161 810 161 771 q 187 877 161 851 q 253 903 213 903 q 322 877 296 903 q 349 810 349 851 q 322 745 349 771 q 253 719 296 719 m 456 940 l 328 940 l 172 1185 l 365 1185 l 456 940 z "},"ǖ":{"ha":776,"x_min":83,"x_max":693,"o":"m 375 -10 q 221 24 286 -10 q 119 121 156 58 q 83 265 83 183 l 83 657 l 247 657 l 247 293 q 288 157 247 206 q 397 108 329 108 q 496 153 463 108 q 529 278 529 197 l 529 657 l 693 657 l 693 306 q 653 140 693 211 q 542 29 614 68 q 375 -10 471 -10 m 253 719 q 185 745 211 719 q 160 810 160 771 q 185 877 160 851 q 253 903 211 903 q 320 877 294 903 q 346 810 346 851 q 320 745 346 771 q 253 719 294 719 m 528 719 q 458 745 485 719 q 432 810 432 771 q 458 877 432 851 q 528 903 485 903 q 594 877 568 903 q 619 810 619 851 q 594 745 619 771 q 528 719 568 719 m 150 993 l 150 1107 l 628 1107 l 628 993 l 150 993 z "},"ù":{"ha":776,"x_min":83,"x_max":693,"o":"m 375 -10 q 221 24 286 -10 q 119 121 156 58 q 83 265 83 183 l 83 657 l 247 657 l 247 293 q 288 157 247 206 q 397 108 329 108 q 496 153 463 108 q 529 278 529 197 l 529 657 l 693 657 l 693 306 q 653 140 693 211 q 542 29 614 68 q 375 -10 471 -10 m 353 729 l 190 974 l 376 974 l 472 729 l 353 729 z "},"ű":{"ha":776,"x_min":83,"x_max":700,"o":"m 375 -10 q 221 24 286 -10 q 119 121 156 58 q 83 265 83 183 l 83 657 l 247 657 l 247 293 q 288 157 247 206 q 397 108 329 108 q 496 153 463 108 q 529 278 529 197 l 529 657 l 693 657 l 693 306 q 653 140 693 211 q 542 29 614 68 q 375 -10 471 -10 m 175 729 l 271 974 l 457 974 l 294 729 l 175 729 m 418 729 l 514 974 l 700 974 l 538 729 l 418 729 z "},"ū":{"ha":776,"x_min":83,"x_max":693,"o":"m 375 -10 q 221 24 286 -10 q 119 121 156 58 q 83 265 83 183 l 83 657 l 247 657 l 247 293 q 288 157 247 206 q 397 108 329 108 q 496 153 463 108 q 529 278 529 197 l 529 657 l 693 657 l 693 306 q 653 140 693 211 q 542 29 614 68 q 375 -10 471 -10 m 204 779 l 204 893 l 572 893 l 572 779 l 204 779 z "},"ų":{"ha":776,"x_min":83,"x_max":693,"o":"m 375 -10 q 221 24 286 -10 q 119 121 156 58 q 83 265 83 183 l 83 657 l 247 657 l 247 293 q 288 157 247 206 q 397 108 329 108 q 496 153 463 108 q 529 278 529 197 l 529 657 l 693 657 l 693 306 q 653 140 693 211 q 542 29 614 68 q 375 -10 471 -10 m 444 -403 q 285 -350 342 -403 q 229 -214 229 -297 q 278 -70 229 -140 q 438 56 328 0 l 493 15 q 411 -81 436 -28 q 386 -175 386 -133 q 417 -258 386 -231 q 501 -286 449 -286 q 529 -284 517 -286 q 554 -276 542 -282 l 593 -361 q 444 -403 529 -403 z "}}}
